<?xml version="1.0" encoding="UTF-8"?>
<svg width="795" height="378" viewBox="0 0 795 378" xmlns="http://www.w3.org/2000/svg" xmlns:xlink="http://www.w3.org/1999/xlink" style="color: rgb(229, 231, 235); font-family: Inter, Arial, sans-serif; background-color: rgba(0, 0, 0, 0);"><rect x="0" y="0" width="795" height="378" fill="rgb(17, 24, 39)"/><g transform="translate(34.23240661621094, 0)"><line x1="60" x2="740" y1="245" y2="245" stroke="#64748b66" stroke-width="1"/><text x="52" y="249" text-anchor="end" fill="currentColor" font-size="11">0.00</text><line x1="60" x2="740" y1="199.6" y2="199.6" stroke="#64748b66" stroke-width="1"/><text x="52" y="203.6" text-anchor="end" fill="currentColor" font-size="11">0.10</text><line x1="60" x2="740" y1="154.2" y2="154.2" stroke="#64748b66" stroke-width="1"/><text x="52" y="158.2" text-anchor="end" fill="currentColor" font-size="11">0.21</text><line x1="60" x2="740" y1="108.80000000000001" y2="108.80000000000001" stroke="#64748b66" stroke-width="1"/><text x="52" y="112.80000000000001" text-anchor="end" fill="currentColor" font-size="11">0.31</text><line x1="60" x2="740" y1="63.39999999999998" y2="63.39999999999998" stroke="#64748b66" stroke-width="1"/><text x="52" y="67.39999999999998" text-anchor="end" fill="currentColor" font-size="11">0.42</text><line x1="60" x2="740" y1="18" y2="18" stroke="#64748b66" stroke-width="1"/><text x="52" y="22" text-anchor="end" fill="currentColor" font-size="11">0.52</text><rect x="117" y="124.9944258846997" width="26" height="120.0055741153003" fill="#60a5fa" style="cursor: crosshair;"/><line x1="130" x2="130" y1="122.27378098012638" y2="127.71507078927303" stroke="currentColor" stroke-opacity="0.78" stroke-width="2"/><line x1="125" x2="135" y1="122.27378098012638" y2="122.27378098012638" stroke="currentColor" stroke-opacity="0.78" stroke-width="2"/><line x1="125" x2="135" y1="127.71507078927303" y2="127.71507078927303" stroke="currentColor" stroke-opacity="0.78" stroke-width="2"/><rect x="147" y="173.21387557798323" width="26" height="71.78612442201677" fill="#f97316" style="cursor: crosshair;"/><line x1="160" x2="160" y1="171.6676916234786" y2="174.7600595324879" stroke="currentColor" stroke-opacity="0.78" stroke-width="2"/><line x1="155" x2="165" y1="171.6676916234786" y2="171.6676916234786" stroke="currentColor" stroke-opacity="0.78" stroke-width="2"/><line x1="155" x2="165" y1="174.7600595324879" y2="174.7600595324879" stroke="currentColor" stroke-opacity="0.78" stroke-width="2"/><text x="145" y="261" transform="rotate(-28 145 261)" text-anchor="end" fill="currentColor" font-size="11">extractor/llm=gpt_oss_20b_in_process</text><rect x="287" y="22.723317057904097" width="26" height="222.2766829420959" fill="#60a5fa" style="cursor: crosshair;"/><line x1="300" x2="300" y1="18" y2="27.446634115808223" stroke="currentColor" stroke-opacity="0.78" stroke-width="2"/><line x1="295" x2="305" y1="18" y2="18" stroke="currentColor" stroke-opacity="0.78" stroke-width="2"/><line x1="295" x2="305" y1="27.446634115808223" y2="27.446634115808223" stroke="currentColor" stroke-opacity="0.78" stroke-width="2"/><rect x="317" y="90.95147966770287" width="26" height="154.04852033229713" fill="#f97316" style="cursor: crosshair;"/><line x1="330" x2="330" y1="87.4510235939662" y2="94.45193574143957" stroke="currentColor" stroke-opacity="0.78" stroke-width="2"/><line x1="325" x2="335" y1="87.4510235939662" y2="87.4510235939662" stroke="currentColor" stroke-opacity="0.78" stroke-width="2"/><line x1="325" x2="335" y1="94.45193574143957" y2="94.45193574143957" stroke="currentColor" stroke-opacity="0.78" stroke-width="2"/><text x="315" y="261" transform="rotate(-28 315 261)" text-anchor="end" fill="currentColor" font-size="11">extractor/llm=qwen3_30b_in_process</text><rect x="457" y="155.32805588236667" width="26" height="89.67194411763333" fill="#60a5fa" style="cursor: crosshair;"/><line x1="470" x2="470" y1="152.3863323962563" y2="158.26977936847703" stroke="currentColor" stroke-opacity="0.78" stroke-width="2"/><line x1="465" x2="475" y1="152.3863323962563" y2="152.3863323962563" stroke="currentColor" stroke-opacity="0.78" stroke-width="2"/><line x1="465" x2="475" y1="158.26977936847703" y2="158.26977936847703" stroke="currentColor" stroke-opacity="0.78" stroke-width="2"/><rect x="487" y="194.95432043415792" width="26" height="50.04567956584207" fill="#f97316" style="cursor: crosshair;"/><line x1="500" x2="500" y1="194.75101823125829" y2="195.15762263705759" stroke="currentColor" stroke-opacity="0.78" stroke-width="2"/><line x1="495" x2="505" y1="194.75101823125829" y2="194.75101823125829" stroke="currentColor" stroke-opacity="0.78" stroke-width="2"/><line x1="495" x2="505" y1="195.15762263705759" y2="195.15762263705759" stroke="currentColor" stroke-opacity="0.78" stroke-width="2"/><text x="485" y="261" transform="rotate(-28 485 261)" text-anchor="end" fill="currentColor" font-size="11">extractor/llm=mistral_small_3_24b_in_process</text><rect x="627" y="155.05389183556753" width="26" height="89.94610816443249" fill="#60a5fa" style="cursor: crosshair;"/><line x1="640" x2="640" y1="152.17255279596407" y2="157.935230875171" stroke="currentColor" stroke-opacity="0.78" stroke-width="2"/><line x1="635" x2="645" y1="152.17255279596407" y2="152.17255279596407" stroke="currentColor" stroke-opacity="0.78" stroke-width="2"/><line x1="635" x2="645" y1="157.935230875171" y2="157.935230875171" stroke="currentColor" stroke-opacity="0.78" stroke-width="2"/><rect x="657" y="194.3142737158038" width="26" height="50.6857262841962" fill="#f97316" style="cursor: crosshair;"/><line x1="670" x2="670" y1="193.63257954316492" y2="194.9959678884427" stroke="currentColor" stroke-opacity="0.78" stroke-width="2"/><line x1="665" x2="675" y1="193.63257954316492" y2="193.63257954316492" stroke="currentColor" stroke-opacity="0.78" stroke-width="2"/><line x1="665" x2="675" y1="194.9959678884427" y2="194.9959678884427" stroke="currentColor" stroke-opacity="0.78" stroke-width="2"/><text x="655" y="261" transform="rotate(-28 655 261)" text-anchor="end" fill="currentColor" font-size="11">extractor/llm=gemma3_27b_in_process</text></g></svg>