<?xml version="1.0" encoding="UTF-8"?>
<svg width="795" height="378" viewBox="0 0 795 378" xmlns="http://www.w3.org/2000/svg" xmlns:xlink="http://www.w3.org/1999/xlink" style="color: rgb(229, 231, 235); font-family: Inter, Arial, sans-serif; background-color: rgba(0, 0, 0, 0);"><rect x="0" y="0" width="795" height="378" fill="rgb(17, 24, 39)"/><g transform="translate(34.23240661621094, 0)"><line x1="60" x2="740" y1="245" y2="245" stroke="#64748b66" stroke-width="1"/><text x="52" y="249" text-anchor="end" fill="currentColor" font-size="11">0.00</text><line x1="60" x2="740" y1="199.6" y2="199.6" stroke="#64748b66" stroke-width="1"/><text x="52" y="203.6" text-anchor="end" fill="currentColor" font-size="11">0.18</text><line x1="60" x2="740" y1="154.2" y2="154.2" stroke="#64748b66" stroke-width="1"/><text x="52" y="158.2" text-anchor="end" fill="currentColor" font-size="11">0.36</text><line x1="60" x2="740" y1="108.80000000000001" y2="108.80000000000001" stroke="#64748b66" stroke-width="1"/><text x="52" y="112.80000000000001" text-anchor="end" fill="currentColor" font-size="11">0.54</text><line x1="60" x2="740" y1="63.39999999999998" y2="63.39999999999998" stroke="#64748b66" stroke-width="1"/><text x="52" y="67.39999999999998" text-anchor="end" fill="currentColor" font-size="11">0.72</text><line x1="60" x2="740" y1="18" y2="18" stroke="#64748b66" stroke-width="1"/><text x="52" y="22" text-anchor="end" fill="currentColor" font-size="11">0.90</text><rect x="117" y="61.085365287457506" width="26" height="183.9146347125425" fill="#60a5fa" style="cursor: crosshair;"/><line x1="130" x2="130" y1="59.12509702951917" y2="63.045633545395845" stroke="currentColor" stroke-opacity="0.78" stroke-width="2"/><line x1="125" x2="135" y1="59.12509702951917" y2="59.12509702951917" stroke="currentColor" stroke-opacity="0.78" stroke-width="2"/><line x1="125" x2="135" y1="63.045633545395845" y2="63.045633545395845" stroke="currentColor" stroke-opacity="0.78" stroke-width="2"/><rect x="147" y="36.68736921735669" width="26" height="208.3126307826433" fill="#f97316" style="cursor: crosshair;"/><line x1="160" x2="160" y1="29.462837684721165" y2="43.91190074999224" stroke="currentColor" stroke-opacity="0.78" stroke-width="2"/><line x1="155" x2="165" y1="29.462837684721165" y2="29.462837684721165" stroke="currentColor" stroke-opacity="0.78" stroke-width="2"/><line x1="155" x2="165" y1="43.91190074999224" y2="43.91190074999224" stroke="currentColor" stroke-opacity="0.78" stroke-width="2"/><text x="145" y="261" transform="rotate(-28 145 261)" text-anchor="end" fill="currentColor" font-size="11">extractor/llm=gpt_oss_20b_in_process</text><rect x="287" y="78.1257002137643" width="26" height="166.8742997862357" fill="#60a5fa" style="cursor: crosshair;"/><line x1="300" x2="300" y1="72.5707822528359" y2="83.68061817469274" stroke="currentColor" stroke-opacity="0.78" stroke-width="2"/><line x1="295" x2="305" y1="72.5707822528359" y2="72.5707822528359" stroke="currentColor" stroke-opacity="0.78" stroke-width="2"/><line x1="295" x2="305" y1="83.68061817469274" y2="83.68061817469274" stroke="currentColor" stroke-opacity="0.78" stroke-width="2"/><rect x="317" y="57.82750192769623" width="26" height="187.17249807230377" fill="#f97316" style="cursor: crosshair;"/><line x1="330" x2="330" y1="55.99293440597373" y2="59.66206944941871" stroke="currentColor" stroke-opacity="0.78" stroke-width="2"/><line x1="325" x2="335" y1="55.99293440597373" y2="55.99293440597373" stroke="currentColor" stroke-opacity="0.78" stroke-width="2"/><line x1="325" x2="335" y1="59.66206944941871" y2="59.66206944941871" stroke="currentColor" stroke-opacity="0.78" stroke-width="2"/><text x="315" y="261" transform="rotate(-28 315 261)" text-anchor="end" fill="currentColor" font-size="11">extractor/llm=qwen3_30b_in_process</text><rect x="457" y="141.62168772140285" width="26" height="103.37831227859715" fill="#60a5fa" style="cursor: crosshair;"/><line x1="470" x2="470" y1="139.61467301299123" y2="143.6287024298145" stroke="currentColor" stroke-opacity="0.78" stroke-width="2"/><line x1="465" x2="475" y1="139.61467301299123" y2="139.61467301299123" stroke="currentColor" stroke-opacity="0.78" stroke-width="2"/><line x1="465" x2="475" y1="143.6287024298145" y2="143.6287024298145" stroke="currentColor" stroke-opacity="0.78" stroke-width="2"/><rect x="487" y="87.41587028955095" width="26" height="157.58412971044905" fill="#f97316" style="cursor: crosshair;"/><line x1="500" x2="500" y1="84.6814922856424" y2="90.15024829345947" stroke="currentColor" stroke-opacity="0.78" stroke-width="2"/><line x1="495" x2="505" y1="84.6814922856424" y2="84.6814922856424" stroke="currentColor" stroke-opacity="0.78" stroke-width="2"/><line x1="495" x2="505" y1="90.15024829345947" y2="90.15024829345947" stroke="currentColor" stroke-opacity="0.78" stroke-width="2"/><text x="485" y="261" transform="rotate(-28 485 261)" text-anchor="end" fill="currentColor" font-size="11">extractor/llm=mistral_small_3_24b_in_process</text><rect x="627" y="51.5825794410093" width="26" height="193.4174205589907" fill="#60a5fa" style="cursor: crosshair;"/><line x1="640" x2="640" y1="42.85590707851361" y2="60.309251803504964" stroke="currentColor" stroke-opacity="0.78" stroke-width="2"/><line x1="635" x2="645" y1="42.85590707851361" y2="42.85590707851361" stroke="currentColor" stroke-opacity="0.78" stroke-width="2"/><line x1="635" x2="645" y1="60.309251803504964" y2="60.309251803504964" stroke="currentColor" stroke-opacity="0.78" stroke-width="2"/><rect x="657" y="18.76277098687143" width="26" height="226.23722901312857" fill="#f97316" style="cursor: crosshair;"/><line x1="670" x2="670" y1="18" y2="19.52554197374289" stroke="currentColor" stroke-opacity="0.78" stroke-width="2"/><line x1="665" x2="675" y1="18" y2="18" stroke="currentColor" stroke-opacity="0.78" stroke-width="2"/><line x1="665" x2="675" y1="19.52554197374289" y2="19.52554197374289" stroke="currentColor" stroke-opacity="0.78" stroke-width="2"/><text x="655" y="261" transform="rotate(-28 655 261)" text-anchor="end" fill="currentColor" font-size="11">extractor/llm=gemma3_27b_in_process</text></g></svg>