<?xml version="1.0" encoding="utf-8" standalone="no"?>
<!DOCTYPE svg PUBLIC "-//W3C//DTD SVG 1.1//EN"
  "http://www.w3.org/Graphics/SVG/1.1/DTD/svg11.dtd">
<svg xmlns:xlink="http://www.w3.org/1999/xlink" width="720pt" height="720pt" viewBox="0 0 720 720" xmlns="http://www.w3.org/2000/svg" version="1.1">
 <metadata>
  <rdf:RDF xmlns:dc="http://purl.org/dc/elements/1.1/" xmlns:cc="http://creativecommons.org/ns#" xmlns:rdf="http://www.w3.org/1999/02/22-rdf-syntax-ns#">
   <cc:Work>
    <dc:type rdf:resource="http://purl.org/dc/dcmitype/StillImage"/>
    <dc:date>2026-02-27T10:51:51.993676</dc:date>
    <dc:format>image/svg+xml</dc:format>
    <dc:creator>
     <cc:Agent>
      <dc:title>Matplotlib v3.10.8, https://matplotlib.org/</dc:title>
     </cc:Agent>
    </dc:creator>
   </cc:Work>
  </rdf:RDF>
 </metadata>
 <defs>
  <style type="text/css">*{stroke-linejoin: round; stroke-linecap: butt}</style>
 </defs>
 <g id="figure_1">
  <g id="patch_1">
   <path d="M 0 720 
L 720 720 
L 720 0 
L 0 0 
z
" style="fill: #ffffff"/>
  </g>
  <g id="axes_1">
   <g id="patch_2">
    <path d="M 39.94 528.82 
L 709.2 528.82 
L 709.2 26.88 
L 39.94 26.88 
z
" style="fill: #ffffff"/>
   </g>
   <g id="patch_3">
    <path d="M 81.76875 528.82 
L 92.225938 528.82 
L 92.225938 288.85081 
L 81.76875 288.85081 
z
" clip-path="url(#p108419b5f3)" style="fill: #1f77b4"/>
   </g>
   <g id="patch_4">
    <path d="M 249.08375 528.82 
L 259.540937 528.82 
L 259.540937 283.518161 
L 249.08375 283.518161 
z
" clip-path="url(#p108419b5f3)" style="fill: #1f77b4"/>
   </g>
   <g id="patch_5">
    <path d="M 416.39875 528.82 
L 426.855937 528.82 
L 426.855937 230.191674 
L 416.39875 230.191674 
z
" clip-path="url(#p108419b5f3)" style="fill: #1f77b4"/>
   </g>
   <g id="patch_6">
    <path d="M 583.71375 528.82 
L 594.170938 528.82 
L 594.170938 246.18962 
L 583.71375 246.18962 
z
" clip-path="url(#p108419b5f3)" style="fill: #1f77b4"/>
   </g>
   <g id="patch_7">
    <path d="M 92.225938 528.82 
L 102.683125 528.82 
L 102.683125 278.185512 
L 92.225938 278.185512 
z
" clip-path="url(#p108419b5f3)" style="fill: #ff7f0e"/>
   </g>
   <g id="patch_8">
    <path d="M 259.540937 528.82 
L 269.998125 528.82 
L 269.998125 288.85081 
L 259.540937 288.85081 
z
" clip-path="url(#p108419b5f3)" style="fill: #ff7f0e"/>
   </g>
   <g id="patch_9">
    <path d="M 426.855937 528.82 
L 437.313125 528.82 
L 437.313125 192.863134 
L 426.855937 192.863134 
z
" clip-path="url(#p108419b5f3)" style="fill: #ff7f0e"/>
   </g>
   <g id="patch_10">
    <path d="M 594.170938 528.82 
L 604.628125 528.82 
L 604.628125 256.854918 
L 594.170938 256.854918 
z
" clip-path="url(#p108419b5f3)" style="fill: #ff7f0e"/>
   </g>
   <g id="patch_11">
    <path d="M 102.683125 528.82 
L 113.140312 528.82 
L 113.140312 160.867242 
L 102.683125 160.867242 
z
" clip-path="url(#p108419b5f3)" style="fill: #2ca02c"/>
   </g>
   <g id="patch_12">
    <path d="M 269.998125 528.82 
L 280.455312 528.82 
L 280.455312 288.85081 
L 269.998125 288.85081 
z
" clip-path="url(#p108419b5f3)" style="fill: #2ca02c"/>
   </g>
   <g id="patch_13">
    <path d="M 437.313125 528.82 
L 447.770312 528.82 
L 447.770312 219.526377 
L 437.313125 219.526377 
z
" clip-path="url(#p108419b5f3)" style="fill: #2ca02c"/>
   </g>
   <g id="patch_14">
    <path d="M 604.628125 528.82 
L 615.085312 528.82 
L 615.085312 235.524323 
L 604.628125 235.524323 
z
" clip-path="url(#p108419b5f3)" style="fill: #2ca02c"/>
   </g>
   <g id="patch_15">
    <path d="M 113.140312 528.82 
L 123.5975 528.82 
L 123.5975 278.185512 
L 113.140312 278.185512 
z
" clip-path="url(#p108419b5f3)" style="fill: #d62728"/>
   </g>
   <g id="patch_16">
    <path d="M 280.455312 528.82 
L 290.9125 528.82 
L 290.9125 283.518161 
L 280.455312 283.518161 
z
" clip-path="url(#p108419b5f3)" style="fill: #d62728"/>
   </g>
   <g id="patch_17">
    <path d="M 447.770313 528.82 
L 458.2275 528.82 
L 458.2275 235.524323 
L 447.770313 235.524323 
z
" clip-path="url(#p108419b5f3)" style="fill: #d62728"/>
   </g>
   <g id="patch_18">
    <path d="M 615.085312 528.82 
L 625.5425 528.82 
L 625.5425 256.854918 
L 615.085312 256.854918 
z
" clip-path="url(#p108419b5f3)" style="fill: #d62728"/>
   </g>
   <g id="patch_19">
    <path d="M 123.5975 528.82 
L 134.054688 528.82 
L 134.054688 288.85081 
L 123.5975 288.85081 
z
" clip-path="url(#p108419b5f3)" style="fill: #9467bd"/>
   </g>
   <g id="patch_20">
    <path d="M 290.9125 528.82 
L 301.369687 528.82 
L 301.369687 288.85081 
L 290.9125 288.85081 
z
" clip-path="url(#p108419b5f3)" style="fill: #9467bd"/>
   </g>
   <g id="patch_21">
    <path d="M 458.2275 528.82 
L 468.684687 528.82 
L 468.684687 219.526377 
L 458.2275 219.526377 
z
" clip-path="url(#p108419b5f3)" style="fill: #9467bd"/>
   </g>
   <g id="patch_22">
    <path d="M 625.5425 528.82 
L 635.999688 528.82 
L 635.999688 251.522269 
L 625.5425 251.522269 
z
" clip-path="url(#p108419b5f3)" style="fill: #9467bd"/>
   </g>
   <g id="patch_23">
    <path d="M 134.054688 528.82 
L 144.511875 528.82 
L 144.511875 102.208106 
L 134.054688 102.208106 
z
" clip-path="url(#p108419b5f3)" style="fill: #8c564b"/>
   </g>
   <g id="patch_24">
    <path d="M 301.369687 528.82 
L 311.826875 528.82 
L 311.826875 283.518161 
L 301.369687 283.518161 
z
" clip-path="url(#p108419b5f3)" style="fill: #8c564b"/>
   </g>
   <g id="patch_25">
    <path d="M 468.684687 528.82 
L 479.141875 528.82 
L 479.141875 214.193728 
L 468.684687 214.193728 
z
" clip-path="url(#p108419b5f3)" style="fill: #8c564b"/>
   </g>
   <g id="patch_26">
    <path d="M 635.999687 528.82 
L 646.456875 528.82 
L 646.456875 256.854918 
L 635.999687 256.854918 
z
" clip-path="url(#p108419b5f3)" style="fill: #8c564b"/>
   </g>
   <g id="patch_27">
    <path d="M 144.511875 528.82 
L 154.969063 528.82 
L 154.969063 272.852864 
L 144.511875 272.852864 
z
" clip-path="url(#p108419b5f3)" style="fill: #e377c2"/>
   </g>
   <g id="patch_28">
    <path d="M 311.826875 528.82 
L 322.284062 528.82 
L 322.284062 278.185512 
L 311.826875 278.185512 
z
" clip-path="url(#p108419b5f3)" style="fill: #e377c2"/>
   </g>
   <g id="patch_29">
    <path d="M 479.141875 528.82 
L 489.599063 528.82 
L 489.599063 230.191674 
L 479.141875 230.191674 
z
" clip-path="url(#p108419b5f3)" style="fill: #e377c2"/>
   </g>
   <g id="patch_30">
    <path d="M 646.456875 528.82 
L 656.914062 528.82 
L 656.914062 256.854918 
L 646.456875 256.854918 
z
" clip-path="url(#p108419b5f3)" style="fill: #e377c2"/>
   </g>
   <g id="patch_31">
    <path d="M 154.969063 528.82 
L 165.42625 528.82 
L 165.42625 267.520215 
L 154.969063 267.520215 
z
" clip-path="url(#p108419b5f3)" style="fill: #7f7f7f"/>
   </g>
   <g id="patch_32">
    <path d="M 322.284063 528.82 
L 332.74125 528.82 
L 332.74125 288.85081 
L 322.284063 288.85081 
z
" clip-path="url(#p108419b5f3)" style="fill: #7f7f7f"/>
   </g>
   <g id="patch_33">
    <path d="M 489.599062 528.82 
L 500.05625 528.82 
L 500.05625 235.524323 
L 489.599062 235.524323 
z
" clip-path="url(#p108419b5f3)" style="fill: #7f7f7f"/>
   </g>
   <g id="patch_34">
    <path d="M 656.914062 528.82 
L 667.37125 528.82 
L 667.37125 246.18962 
L 656.914062 246.18962 
z
" clip-path="url(#p108419b5f3)" style="fill: #7f7f7f"/>
   </g>
   <g id="matplotlib.axis_1">
    <g id="xtick_1">
     <g id="line2d_1">
      <defs>
       <path id="m7aa610be2b" d="M 0 0 
L 0 3.5 
" style="stroke: #000000; stroke-width: 0.8"/>
      </defs>
      <g>
       <use xlink:href="#m7aa610be2b" x="123.5975" y="528.82" style="stroke: #000000; stroke-width: 0.8"/>
      </g>
     </g>
     <g id="text_1">
      <!-- gemma3_27b_in_process -->
      <g transform="translate(126.217812 661.905937) rotate(-90) scale(0.1 -0.1)">
       <defs>
        <path id="DejaVuSans-67" d="M 2906 1791 
Q 2906 2416 2648 2759 
Q 2391 3103 1925 3103 
Q 1463 3103 1205 2759 
Q 947 2416 947 1791 
Q 947 1169 1205 825 
Q 1463 481 1925 481 
Q 2391 481 2648 825 
Q 2906 1169 2906 1791 
z
M 3481 434 
Q 3481 -459 3084 -895 
Q 2688 -1331 1869 -1331 
Q 1566 -1331 1297 -1286 
Q 1028 -1241 775 -1147 
L 775 -588 
Q 1028 -725 1275 -790 
Q 1522 -856 1778 -856 
Q 2344 -856 2625 -561 
Q 2906 -266 2906 331 
L 2906 616 
Q 2728 306 2450 153 
Q 2172 0 1784 0 
Q 1141 0 747 490 
Q 353 981 353 1791 
Q 353 2603 747 3093 
Q 1141 3584 1784 3584 
Q 2172 3584 2450 3431 
Q 2728 3278 2906 2969 
L 2906 3500 
L 3481 3500 
L 3481 434 
z
" transform="scale(0.015625)"/>
        <path id="DejaVuSans-65" d="M 3597 1894 
L 3597 1613 
L 953 1613 
Q 991 1019 1311 708 
Q 1631 397 2203 397 
Q 2534 397 2845 478 
Q 3156 559 3463 722 
L 3463 178 
Q 3153 47 2828 -22 
Q 2503 -91 2169 -91 
Q 1331 -91 842 396 
Q 353 884 353 1716 
Q 353 2575 817 3079 
Q 1281 3584 2069 3584 
Q 2775 3584 3186 3129 
Q 3597 2675 3597 1894 
z
M 3022 2063 
Q 3016 2534 2758 2815 
Q 2500 3097 2075 3097 
Q 1594 3097 1305 2825 
Q 1016 2553 972 2059 
L 3022 2063 
z
" transform="scale(0.015625)"/>
        <path id="DejaVuSans-6d" d="M 3328 2828 
Q 3544 3216 3844 3400 
Q 4144 3584 4550 3584 
Q 5097 3584 5394 3201 
Q 5691 2819 5691 2113 
L 5691 0 
L 5113 0 
L 5113 2094 
Q 5113 2597 4934 2840 
Q 4756 3084 4391 3084 
Q 3944 3084 3684 2787 
Q 3425 2491 3425 1978 
L 3425 0 
L 2847 0 
L 2847 2094 
Q 2847 2600 2669 2842 
Q 2491 3084 2119 3084 
Q 1678 3084 1418 2786 
Q 1159 2488 1159 1978 
L 1159 0 
L 581 0 
L 581 3500 
L 1159 3500 
L 1159 2956 
Q 1356 3278 1631 3431 
Q 1906 3584 2284 3584 
Q 2666 3584 2933 3390 
Q 3200 3197 3328 2828 
z
" transform="scale(0.015625)"/>
        <path id="DejaVuSans-61" d="M 2194 1759 
Q 1497 1759 1228 1600 
Q 959 1441 959 1056 
Q 959 750 1161 570 
Q 1363 391 1709 391 
Q 2188 391 2477 730 
Q 2766 1069 2766 1631 
L 2766 1759 
L 2194 1759 
z
M 3341 1997 
L 3341 0 
L 2766 0 
L 2766 531 
Q 2569 213 2275 61 
Q 1981 -91 1556 -91 
Q 1019 -91 701 211 
Q 384 513 384 1019 
Q 384 1609 779 1909 
Q 1175 2209 1959 2209 
L 2766 2209 
L 2766 2266 
Q 2766 2663 2505 2880 
Q 2244 3097 1772 3097 
Q 1472 3097 1187 3025 
Q 903 2953 641 2809 
L 641 3341 
Q 956 3463 1253 3523 
Q 1550 3584 1831 3584 
Q 2591 3584 2966 3190 
Q 3341 2797 3341 1997 
z
" transform="scale(0.015625)"/>
        <path id="DejaVuSans-33" d="M 2597 2516 
Q 3050 2419 3304 2112 
Q 3559 1806 3559 1356 
Q 3559 666 3084 287 
Q 2609 -91 1734 -91 
Q 1441 -91 1130 -33 
Q 819 25 488 141 
L 488 750 
Q 750 597 1062 519 
Q 1375 441 1716 441 
Q 2309 441 2620 675 
Q 2931 909 2931 1356 
Q 2931 1769 2642 2001 
Q 2353 2234 1838 2234 
L 1294 2234 
L 1294 2753 
L 1863 2753 
Q 2328 2753 2575 2939 
Q 2822 3125 2822 3475 
Q 2822 3834 2567 4026 
Q 2313 4219 1838 4219 
Q 1578 4219 1281 4162 
Q 984 4106 628 3988 
L 628 4550 
Q 988 4650 1302 4700 
Q 1616 4750 1894 4750 
Q 2613 4750 3031 4423 
Q 3450 4097 3450 3541 
Q 3450 3153 3228 2886 
Q 3006 2619 2597 2516 
z
" transform="scale(0.015625)"/>
        <path id="DejaVuSans-5f" d="M 3263 -1063 
L 3263 -1509 
L -63 -1509 
L -63 -1063 
L 3263 -1063 
z
" transform="scale(0.015625)"/>
        <path id="DejaVuSans-32" d="M 1228 531 
L 3431 531 
L 3431 0 
L 469 0 
L 469 531 
Q 828 903 1448 1529 
Q 2069 2156 2228 2338 
Q 2531 2678 2651 2914 
Q 2772 3150 2772 3378 
Q 2772 3750 2511 3984 
Q 2250 4219 1831 4219 
Q 1534 4219 1204 4116 
Q 875 4013 500 3803 
L 500 4441 
Q 881 4594 1212 4672 
Q 1544 4750 1819 4750 
Q 2544 4750 2975 4387 
Q 3406 4025 3406 3419 
Q 3406 3131 3298 2873 
Q 3191 2616 2906 2266 
Q 2828 2175 2409 1742 
Q 1991 1309 1228 531 
z
" transform="scale(0.015625)"/>
        <path id="DejaVuSans-37" d="M 525 4666 
L 3525 4666 
L 3525 4397 
L 1831 0 
L 1172 0 
L 2766 4134 
L 525 4134 
L 525 4666 
z
" transform="scale(0.015625)"/>
        <path id="DejaVuSans-62" d="M 3116 1747 
Q 3116 2381 2855 2742 
Q 2594 3103 2138 3103 
Q 1681 3103 1420 2742 
Q 1159 2381 1159 1747 
Q 1159 1113 1420 752 
Q 1681 391 2138 391 
Q 2594 391 2855 752 
Q 3116 1113 3116 1747 
z
M 1159 2969 
Q 1341 3281 1617 3432 
Q 1894 3584 2278 3584 
Q 2916 3584 3314 3078 
Q 3713 2572 3713 1747 
Q 3713 922 3314 415 
Q 2916 -91 2278 -91 
Q 1894 -91 1617 61 
Q 1341 213 1159 525 
L 1159 0 
L 581 0 
L 581 4863 
L 1159 4863 
L 1159 2969 
z
" transform="scale(0.015625)"/>
        <path id="DejaVuSans-69" d="M 603 3500 
L 1178 3500 
L 1178 0 
L 603 0 
L 603 3500 
z
M 603 4863 
L 1178 4863 
L 1178 4134 
L 603 4134 
L 603 4863 
z
" transform="scale(0.015625)"/>
        <path id="DejaVuSans-6e" d="M 3513 2113 
L 3513 0 
L 2938 0 
L 2938 2094 
Q 2938 2591 2744 2837 
Q 2550 3084 2163 3084 
Q 1697 3084 1428 2787 
Q 1159 2491 1159 1978 
L 1159 0 
L 581 0 
L 581 3500 
L 1159 3500 
L 1159 2956 
Q 1366 3272 1645 3428 
Q 1925 3584 2291 3584 
Q 2894 3584 3203 3211 
Q 3513 2838 3513 2113 
z
" transform="scale(0.015625)"/>
        <path id="DejaVuSans-70" d="M 1159 525 
L 1159 -1331 
L 581 -1331 
L 581 3500 
L 1159 3500 
L 1159 2969 
Q 1341 3281 1617 3432 
Q 1894 3584 2278 3584 
Q 2916 3584 3314 3078 
Q 3713 2572 3713 1747 
Q 3713 922 3314 415 
Q 2916 -91 2278 -91 
Q 1894 -91 1617 61 
Q 1341 213 1159 525 
z
M 3116 1747 
Q 3116 2381 2855 2742 
Q 2594 3103 2138 3103 
Q 1681 3103 1420 2742 
Q 1159 2381 1159 1747 
Q 1159 1113 1420 752 
Q 1681 391 2138 391 
Q 2594 391 2855 752 
Q 3116 1113 3116 1747 
z
" transform="scale(0.015625)"/>
        <path id="DejaVuSans-72" d="M 2631 2963 
Q 2534 3019 2420 3045 
Q 2306 3072 2169 3072 
Q 1681 3072 1420 2755 
Q 1159 2438 1159 1844 
L 1159 0 
L 581 0 
L 581 3500 
L 1159 3500 
L 1159 2956 
Q 1341 3275 1631 3429 
Q 1922 3584 2338 3584 
Q 2397 3584 2469 3576 
Q 2541 3569 2628 3553 
L 2631 2963 
z
" transform="scale(0.015625)"/>
        <path id="DejaVuSans-6f" d="M 1959 3097 
Q 1497 3097 1228 2736 
Q 959 2375 959 1747 
Q 959 1119 1226 758 
Q 1494 397 1959 397 
Q 2419 397 2687 759 
Q 2956 1122 2956 1747 
Q 2956 2369 2687 2733 
Q 2419 3097 1959 3097 
z
M 1959 3584 
Q 2709 3584 3137 3096 
Q 3566 2609 3566 1747 
Q 3566 888 3137 398 
Q 2709 -91 1959 -91 
Q 1206 -91 779 398 
Q 353 888 353 1747 
Q 353 2609 779 3096 
Q 1206 3584 1959 3584 
z
" transform="scale(0.015625)"/>
        <path id="DejaVuSans-63" d="M 3122 3366 
L 3122 2828 
Q 2878 2963 2633 3030 
Q 2388 3097 2138 3097 
Q 1578 3097 1268 2742 
Q 959 2388 959 1747 
Q 959 1106 1268 751 
Q 1578 397 2138 397 
Q 2388 397 2633 464 
Q 2878 531 3122 666 
L 3122 134 
Q 2881 22 2623 -34 
Q 2366 -91 2075 -91 
Q 1284 -91 818 406 
Q 353 903 353 1747 
Q 353 2603 823 3093 
Q 1294 3584 2113 3584 
Q 2378 3584 2631 3529 
Q 2884 3475 3122 3366 
z
" transform="scale(0.015625)"/>
        <path id="DejaVuSans-73" d="M 2834 3397 
L 2834 2853 
Q 2591 2978 2328 3040 
Q 2066 3103 1784 3103 
Q 1356 3103 1142 2972 
Q 928 2841 928 2578 
Q 928 2378 1081 2264 
Q 1234 2150 1697 2047 
L 1894 2003 
Q 2506 1872 2764 1633 
Q 3022 1394 3022 966 
Q 3022 478 2636 193 
Q 2250 -91 1575 -91 
Q 1294 -91 989 -36 
Q 684 19 347 128 
L 347 722 
Q 666 556 975 473 
Q 1284 391 1588 391 
Q 1994 391 2212 530 
Q 2431 669 2431 922 
Q 2431 1156 2273 1281 
Q 2116 1406 1581 1522 
L 1381 1569 
Q 847 1681 609 1914 
Q 372 2147 372 2553 
Q 372 3047 722 3315 
Q 1072 3584 1716 3584 
Q 2034 3584 2315 3537 
Q 2597 3491 2834 3397 
z
" transform="scale(0.015625)"/>
       </defs>
       <use xlink:href="#DejaVuSans-67"/>
       <use xlink:href="#DejaVuSans-65" transform="translate(63.476562 0)"/>
       <use xlink:href="#DejaVuSans-6d" transform="translate(125 0)"/>
       <use xlink:href="#DejaVuSans-6d" transform="translate(222.412109 0)"/>
       <use xlink:href="#DejaVuSans-61" transform="translate(319.824219 0)"/>
       <use xlink:href="#DejaVuSans-33" transform="translate(381.103516 0)"/>
       <use xlink:href="#DejaVuSans-5f" transform="translate(444.726562 0)"/>
       <use xlink:href="#DejaVuSans-32" transform="translate(494.726562 0)"/>
       <use xlink:href="#DejaVuSans-37" transform="translate(558.349609 0)"/>
       <use xlink:href="#DejaVuSans-62" transform="translate(621.972656 0)"/>
       <use xlink:href="#DejaVuSans-5f" transform="translate(685.449219 0)"/>
       <use xlink:href="#DejaVuSans-69" transform="translate(735.449219 0)"/>
       <use xlink:href="#DejaVuSans-6e" transform="translate(763.232422 0)"/>
       <use xlink:href="#DejaVuSans-5f" transform="translate(826.611328 0)"/>
       <use xlink:href="#DejaVuSans-70" transform="translate(876.611328 0)"/>
       <use xlink:href="#DejaVuSans-72" transform="translate(940.087891 0)"/>
       <use xlink:href="#DejaVuSans-6f" transform="translate(978.951172 0)"/>
       <use xlink:href="#DejaVuSans-63" transform="translate(1040.132812 0)"/>
       <use xlink:href="#DejaVuSans-65" transform="translate(1095.113281 0)"/>
       <use xlink:href="#DejaVuSans-73" transform="translate(1156.636719 0)"/>
       <use xlink:href="#DejaVuSans-73" transform="translate(1208.736328 0)"/>
      </g>
     </g>
    </g>
    <g id="xtick_2">
     <g id="line2d_2">
      <g>
       <use xlink:href="#m7aa610be2b" x="290.9125" y="528.82" style="stroke: #000000; stroke-width: 0.8"/>
      </g>
     </g>
     <g id="text_2">
      <!-- gpt_oss_20b_in_process -->
      <g transform="translate(293.532813 655.587188) rotate(-90) scale(0.1 -0.1)">
       <defs>
        <path id="DejaVuSans-74" d="M 1172 4494 
L 1172 3500 
L 2356 3500 
L 2356 3053 
L 1172 3053 
L 1172 1153 
Q 1172 725 1289 603 
Q 1406 481 1766 481 
L 2356 481 
L 2356 0 
L 1766 0 
Q 1100 0 847 248 
Q 594 497 594 1153 
L 594 3053 
L 172 3053 
L 172 3500 
L 594 3500 
L 594 4494 
L 1172 4494 
z
" transform="scale(0.015625)"/>
        <path id="DejaVuSans-30" d="M 2034 4250 
Q 1547 4250 1301 3770 
Q 1056 3291 1056 2328 
Q 1056 1369 1301 889 
Q 1547 409 2034 409 
Q 2525 409 2770 889 
Q 3016 1369 3016 2328 
Q 3016 3291 2770 3770 
Q 2525 4250 2034 4250 
z
M 2034 4750 
Q 2819 4750 3233 4129 
Q 3647 3509 3647 2328 
Q 3647 1150 3233 529 
Q 2819 -91 2034 -91 
Q 1250 -91 836 529 
Q 422 1150 422 2328 
Q 422 3509 836 4129 
Q 1250 4750 2034 4750 
z
" transform="scale(0.015625)"/>
       </defs>
       <use xlink:href="#DejaVuSans-67"/>
       <use xlink:href="#DejaVuSans-70" transform="translate(63.476562 0)"/>
       <use xlink:href="#DejaVuSans-74" transform="translate(126.953125 0)"/>
       <use xlink:href="#DejaVuSans-5f" transform="translate(166.162109 0)"/>
       <use xlink:href="#DejaVuSans-6f" transform="translate(216.162109 0)"/>
       <use xlink:href="#DejaVuSans-73" transform="translate(277.34375 0)"/>
       <use xlink:href="#DejaVuSans-73" transform="translate(329.443359 0)"/>
       <use xlink:href="#DejaVuSans-5f" transform="translate(381.542969 0)"/>
       <use xlink:href="#DejaVuSans-32" transform="translate(431.542969 0)"/>
       <use xlink:href="#DejaVuSans-30" transform="translate(495.166016 0)"/>
       <use xlink:href="#DejaVuSans-62" transform="translate(558.789062 0)"/>
       <use xlink:href="#DejaVuSans-5f" transform="translate(622.265625 0)"/>
       <use xlink:href="#DejaVuSans-69" transform="translate(672.265625 0)"/>
       <use xlink:href="#DejaVuSans-6e" transform="translate(700.048828 0)"/>
       <use xlink:href="#DejaVuSans-5f" transform="translate(763.427734 0)"/>
       <use xlink:href="#DejaVuSans-70" transform="translate(813.427734 0)"/>
       <use xlink:href="#DejaVuSans-72" transform="translate(876.904297 0)"/>
       <use xlink:href="#DejaVuSans-6f" transform="translate(915.767578 0)"/>
       <use xlink:href="#DejaVuSans-63" transform="translate(976.949219 0)"/>
       <use xlink:href="#DejaVuSans-65" transform="translate(1031.929688 0)"/>
       <use xlink:href="#DejaVuSans-73" transform="translate(1093.453125 0)"/>
       <use xlink:href="#DejaVuSans-73" transform="translate(1145.552734 0)"/>
      </g>
     </g>
    </g>
    <g id="xtick_3">
     <g id="line2d_3">
      <g>
       <use xlink:href="#m7aa610be2b" x="458.2275" y="528.82" style="stroke: #000000; stroke-width: 0.8"/>
      </g>
     </g>
     <g id="text_3">
      <!-- mistral_small_3_24b_in_process -->
      <g transform="translate(460.847812 695.095) rotate(-90) scale(0.1 -0.1)">
       <defs>
        <path id="DejaVuSans-6c" d="M 603 4863 
L 1178 4863 
L 1178 0 
L 603 0 
L 603 4863 
z
" transform="scale(0.015625)"/>
        <path id="DejaVuSans-34" d="M 2419 4116 
L 825 1625 
L 2419 1625 
L 2419 4116 
z
M 2253 4666 
L 3047 4666 
L 3047 1625 
L 3713 1625 
L 3713 1100 
L 3047 1100 
L 3047 0 
L 2419 0 
L 2419 1100 
L 313 1100 
L 313 1709 
L 2253 4666 
z
" transform="scale(0.015625)"/>
       </defs>
       <use xlink:href="#DejaVuSans-6d"/>
       <use xlink:href="#DejaVuSans-69" transform="translate(97.412109 0)"/>
       <use xlink:href="#DejaVuSans-73" transform="translate(125.195312 0)"/>
       <use xlink:href="#DejaVuSans-74" transform="translate(177.294922 0)"/>
       <use xlink:href="#DejaVuSans-72" transform="translate(216.503906 0)"/>
       <use xlink:href="#DejaVuSans-61" transform="translate(257.617188 0)"/>
       <use xlink:href="#DejaVuSans-6c" transform="translate(318.896484 0)"/>
       <use xlink:href="#DejaVuSans-5f" transform="translate(346.679688 0)"/>
       <use xlink:href="#DejaVuSans-73" transform="translate(396.679688 0)"/>
       <use xlink:href="#DejaVuSans-6d" transform="translate(448.779297 0)"/>
       <use xlink:href="#DejaVuSans-61" transform="translate(546.191406 0)"/>
       <use xlink:href="#DejaVuSans-6c" transform="translate(607.470703 0)"/>
       <use xlink:href="#DejaVuSans-6c" transform="translate(635.253906 0)"/>
       <use xlink:href="#DejaVuSans-5f" transform="translate(663.037109 0)"/>
       <use xlink:href="#DejaVuSans-33" transform="translate(713.037109 0)"/>
       <use xlink:href="#DejaVuSans-5f" transform="translate(776.660156 0)"/>
       <use xlink:href="#DejaVuSans-32" transform="translate(826.660156 0)"/>
       <use xlink:href="#DejaVuSans-34" transform="translate(890.283203 0)"/>
       <use xlink:href="#DejaVuSans-62" transform="translate(953.90625 0)"/>
       <use xlink:href="#DejaVuSans-5f" transform="translate(1017.382812 0)"/>
       <use xlink:href="#DejaVuSans-69" transform="translate(1067.382812 0)"/>
       <use xlink:href="#DejaVuSans-6e" transform="translate(1095.166016 0)"/>
       <use xlink:href="#DejaVuSans-5f" transform="translate(1158.544922 0)"/>
       <use xlink:href="#DejaVuSans-70" transform="translate(1208.544922 0)"/>
       <use xlink:href="#DejaVuSans-72" transform="translate(1272.021484 0)"/>
       <use xlink:href="#DejaVuSans-6f" transform="translate(1310.884766 0)"/>
       <use xlink:href="#DejaVuSans-63" transform="translate(1372.066406 0)"/>
       <use xlink:href="#DejaVuSans-65" transform="translate(1427.046875 0)"/>
       <use xlink:href="#DejaVuSans-73" transform="translate(1488.570312 0)"/>
       <use xlink:href="#DejaVuSans-73" transform="translate(1540.669922 0)"/>
      </g>
     </g>
    </g>
    <g id="xtick_4">
     <g id="line2d_4">
      <g>
       <use xlink:href="#m7aa610be2b" x="625.5425" y="528.82" style="stroke: #000000; stroke-width: 0.8"/>
      </g>
     </g>
     <g id="text_4">
      <!-- qwen3_30b_in_process -->
      <g transform="translate(628.162812 650.812187) rotate(-90) scale(0.1 -0.1)">
       <defs>
        <path id="DejaVuSans-71" d="M 947 1747 
Q 947 1113 1208 752 
Q 1469 391 1925 391 
Q 2381 391 2643 752 
Q 2906 1113 2906 1747 
Q 2906 2381 2643 2742 
Q 2381 3103 1925 3103 
Q 1469 3103 1208 2742 
Q 947 2381 947 1747 
z
M 2906 525 
Q 2725 213 2448 61 
Q 2172 -91 1784 -91 
Q 1150 -91 751 415 
Q 353 922 353 1747 
Q 353 2572 751 3078 
Q 1150 3584 1784 3584 
Q 2172 3584 2448 3432 
Q 2725 3281 2906 2969 
L 2906 3500 
L 3481 3500 
L 3481 -1331 
L 2906 -1331 
L 2906 525 
z
" transform="scale(0.015625)"/>
        <path id="DejaVuSans-77" d="M 269 3500 
L 844 3500 
L 1563 769 
L 2278 3500 
L 2956 3500 
L 3675 769 
L 4391 3500 
L 4966 3500 
L 4050 0 
L 3372 0 
L 2619 2869 
L 1863 0 
L 1184 0 
L 269 3500 
z
" transform="scale(0.015625)"/>
       </defs>
       <use xlink:href="#DejaVuSans-71"/>
       <use xlink:href="#DejaVuSans-77" transform="translate(63.476562 0)"/>
       <use xlink:href="#DejaVuSans-65" transform="translate(145.263672 0)"/>
       <use xlink:href="#DejaVuSans-6e" transform="translate(206.787109 0)"/>
       <use xlink:href="#DejaVuSans-33" transform="translate(270.166016 0)"/>
       <use xlink:href="#DejaVuSans-5f" transform="translate(333.789062 0)"/>
       <use xlink:href="#DejaVuSans-33" transform="translate(383.789062 0)"/>
       <use xlink:href="#DejaVuSans-30" transform="translate(447.412109 0)"/>
       <use xlink:href="#DejaVuSans-62" transform="translate(511.035156 0)"/>
       <use xlink:href="#DejaVuSans-5f" transform="translate(574.511719 0)"/>
       <use xlink:href="#DejaVuSans-69" transform="translate(624.511719 0)"/>
       <use xlink:href="#DejaVuSans-6e" transform="translate(652.294922 0)"/>
       <use xlink:href="#DejaVuSans-5f" transform="translate(715.673828 0)"/>
       <use xlink:href="#DejaVuSans-70" transform="translate(765.673828 0)"/>
       <use xlink:href="#DejaVuSans-72" transform="translate(829.150391 0)"/>
       <use xlink:href="#DejaVuSans-6f" transform="translate(868.013672 0)"/>
       <use xlink:href="#DejaVuSans-63" transform="translate(929.195312 0)"/>
       <use xlink:href="#DejaVuSans-65" transform="translate(984.175781 0)"/>
       <use xlink:href="#DejaVuSans-73" transform="translate(1045.699219 0)"/>
       <use xlink:href="#DejaVuSans-73" transform="translate(1097.798828 0)"/>
      </g>
     </g>
    </g>
    <g id="text_5">
     <!-- extractor/llm -->
     <g transform="translate(342.384844 706.693437) scale(0.1 -0.1)">
      <defs>
       <path id="DejaVuSans-78" d="M 3513 3500 
L 2247 1797 
L 3578 0 
L 2900 0 
L 1881 1375 
L 863 0 
L 184 0 
L 1544 1831 
L 300 3500 
L 978 3500 
L 1906 2253 
L 2834 3500 
L 3513 3500 
z
" transform="scale(0.015625)"/>
       <path id="DejaVuSans-2f" d="M 1625 4666 
L 2156 4666 
L 531 -594 
L 0 -594 
L 1625 4666 
z
" transform="scale(0.015625)"/>
      </defs>
      <use xlink:href="#DejaVuSans-65"/>
      <use xlink:href="#DejaVuSans-78" transform="translate(59.773438 0)"/>
      <use xlink:href="#DejaVuSans-74" transform="translate(118.953125 0)"/>
      <use xlink:href="#DejaVuSans-72" transform="translate(158.162109 0)"/>
      <use xlink:href="#DejaVuSans-61" transform="translate(199.275391 0)"/>
      <use xlink:href="#DejaVuSans-63" transform="translate(260.554688 0)"/>
      <use xlink:href="#DejaVuSans-74" transform="translate(315.535156 0)"/>
      <use xlink:href="#DejaVuSans-6f" transform="translate(354.744141 0)"/>
      <use xlink:href="#DejaVuSans-72" transform="translate(415.925781 0)"/>
      <use xlink:href="#DejaVuSans-2f" transform="translate(457.039062 0)"/>
      <use xlink:href="#DejaVuSans-6c" transform="translate(490.730469 0)"/>
      <use xlink:href="#DejaVuSans-6c" transform="translate(518.513672 0)"/>
      <use xlink:href="#DejaVuSans-6d" transform="translate(546.296875 0)"/>
     </g>
    </g>
   </g>
   <g id="matplotlib.axis_2">
    <g id="ytick_1">
     <g id="line2d_5">
      <defs>
       <path id="ma1eff90fdf" d="M 0 0 
L -3.5 0 
" style="stroke: #000000; stroke-width: 0.8"/>
      </defs>
      <g>
       <use xlink:href="#ma1eff90fdf" x="39.94" y="528.82" style="stroke: #000000; stroke-width: 0.8"/>
      </g>
     </g>
     <g id="text_6">
      <!-- 0.00 -->
      <g transform="translate(10.674375 532.619219) scale(0.1 -0.1)">
       <defs>
        <path id="DejaVuSans-2e" d="M 684 794 
L 1344 794 
L 1344 0 
L 684 0 
L 684 794 
z
" transform="scale(0.015625)"/>
       </defs>
       <use xlink:href="#DejaVuSans-30"/>
       <use xlink:href="#DejaVuSans-2e" transform="translate(63.623047 0)"/>
       <use xlink:href="#DejaVuSans-30" transform="translate(95.410156 0)"/>
       <use xlink:href="#DejaVuSans-30" transform="translate(159.033203 0)"/>
      </g>
     </g>
    </g>
    <g id="ytick_2">
     <g id="line2d_6">
      <g>
       <use xlink:href="#ma1eff90fdf" x="39.94" y="448.83027" style="stroke: #000000; stroke-width: 0.8"/>
      </g>
     </g>
     <g id="text_7">
      <!-- 0.05 -->
      <g transform="translate(10.674375 452.629489) scale(0.1 -0.1)">
       <defs>
        <path id="DejaVuSans-35" d="M 691 4666 
L 3169 4666 
L 3169 4134 
L 1269 4134 
L 1269 2991 
Q 1406 3038 1543 3061 
Q 1681 3084 1819 3084 
Q 2600 3084 3056 2656 
Q 3513 2228 3513 1497 
Q 3513 744 3044 326 
Q 2575 -91 1722 -91 
Q 1428 -91 1123 -41 
Q 819 9 494 109 
L 494 744 
Q 775 591 1075 516 
Q 1375 441 1709 441 
Q 2250 441 2565 725 
Q 2881 1009 2881 1497 
Q 2881 1984 2565 2268 
Q 2250 2553 1709 2553 
Q 1456 2553 1204 2497 
Q 953 2441 691 2322 
L 691 4666 
z
" transform="scale(0.015625)"/>
       </defs>
       <use xlink:href="#DejaVuSans-30"/>
       <use xlink:href="#DejaVuSans-2e" transform="translate(63.623047 0)"/>
       <use xlink:href="#DejaVuSans-30" transform="translate(95.410156 0)"/>
       <use xlink:href="#DejaVuSans-35" transform="translate(159.033203 0)"/>
      </g>
     </g>
    </g>
    <g id="ytick_3">
     <g id="line2d_7">
      <g>
       <use xlink:href="#ma1eff90fdf" x="39.94" y="368.84054" style="stroke: #000000; stroke-width: 0.8"/>
      </g>
     </g>
     <g id="text_8">
      <!-- 0.10 -->
      <g transform="translate(10.674375 372.639759) scale(0.1 -0.1)">
       <defs>
        <path id="DejaVuSans-31" d="M 794 531 
L 1825 531 
L 1825 4091 
L 703 3866 
L 703 4441 
L 1819 4666 
L 2450 4666 
L 2450 531 
L 3481 531 
L 3481 0 
L 794 0 
L 794 531 
z
" transform="scale(0.015625)"/>
       </defs>
       <use xlink:href="#DejaVuSans-30"/>
       <use xlink:href="#DejaVuSans-2e" transform="translate(63.623047 0)"/>
       <use xlink:href="#DejaVuSans-31" transform="translate(95.410156 0)"/>
       <use xlink:href="#DejaVuSans-30" transform="translate(159.033203 0)"/>
      </g>
     </g>
    </g>
    <g id="ytick_4">
     <g id="line2d_8">
      <g>
       <use xlink:href="#ma1eff90fdf" x="39.94" y="288.85081" style="stroke: #000000; stroke-width: 0.8"/>
      </g>
     </g>
     <g id="text_9">
      <!-- 0.15 -->
      <g transform="translate(10.674375 292.650028) scale(0.1 -0.1)">
       <use xlink:href="#DejaVuSans-30"/>
       <use xlink:href="#DejaVuSans-2e" transform="translate(63.623047 0)"/>
       <use xlink:href="#DejaVuSans-31" transform="translate(95.410156 0)"/>
       <use xlink:href="#DejaVuSans-35" transform="translate(159.033203 0)"/>
      </g>
     </g>
    </g>
    <g id="ytick_5">
     <g id="line2d_9">
      <g>
       <use xlink:href="#ma1eff90fdf" x="39.94" y="208.86108" style="stroke: #000000; stroke-width: 0.8"/>
      </g>
     </g>
     <g id="text_10">
      <!-- 0.20 -->
      <g transform="translate(10.674375 212.660298) scale(0.1 -0.1)">
       <use xlink:href="#DejaVuSans-30"/>
       <use xlink:href="#DejaVuSans-2e" transform="translate(63.623047 0)"/>
       <use xlink:href="#DejaVuSans-32" transform="translate(95.410156 0)"/>
       <use xlink:href="#DejaVuSans-30" transform="translate(159.033203 0)"/>
      </g>
     </g>
    </g>
    <g id="ytick_6">
     <g id="line2d_10">
      <g>
       <use xlink:href="#ma1eff90fdf" x="39.94" y="128.87135" style="stroke: #000000; stroke-width: 0.8"/>
      </g>
     </g>
     <g id="text_11">
      <!-- 0.25 -->
      <g transform="translate(10.674375 132.670568) scale(0.1 -0.1)">
       <use xlink:href="#DejaVuSans-30"/>
       <use xlink:href="#DejaVuSans-2e" transform="translate(63.623047 0)"/>
       <use xlink:href="#DejaVuSans-32" transform="translate(95.410156 0)"/>
       <use xlink:href="#DejaVuSans-35" transform="translate(159.033203 0)"/>
      </g>
     </g>
    </g>
    <g id="ytick_7">
     <g id="line2d_11">
      <g>
       <use xlink:href="#ma1eff90fdf" x="39.94" y="48.881619" style="stroke: #000000; stroke-width: 0.8"/>
      </g>
     </g>
     <g id="text_12">
      <!-- 0.30 -->
      <g transform="translate(10.674375 52.680838) scale(0.1 -0.1)">
       <use xlink:href="#DejaVuSans-30"/>
       <use xlink:href="#DejaVuSans-2e" transform="translate(63.623047 0)"/>
       <use xlink:href="#DejaVuSans-33" transform="translate(95.410156 0)"/>
       <use xlink:href="#DejaVuSans-30" transform="translate(159.033203 0)"/>
      </g>
     </g>
    </g>
   </g>
   <g id="LineCollection_1">
    <path d="M 86.997344 288.85081 
L 86.997344 288.85081 
" clip-path="url(#p108419b5f3)" style="fill: none; stroke: #000000; stroke-width: 1.5"/>
    <path d="M 254.312344 292.75458 
L 254.312344 274.281743 
" clip-path="url(#p108419b5f3)" style="fill: none; stroke: #000000; stroke-width: 1.5"/>
    <path d="M 421.627344 248.664511 
L 421.627344 211.718837 
" clip-path="url(#p108419b5f3)" style="fill: none; stroke: #000000; stroke-width: 1.5"/>
    <path d="M 588.942344 255.426039 
L 588.942344 236.953202 
" clip-path="url(#p108419b5f3)" style="fill: none; stroke: #000000; stroke-width: 1.5"/>
   </g>
   <g id="LineCollection_2">
    <path d="M 97.454531 287.421931 
L 97.454531 268.949094 
" clip-path="url(#p108419b5f3)" style="fill: none; stroke: #000000; stroke-width: 1.5"/>
    <path d="M 264.769531 288.85081 
L 264.769531 288.85081 
" clip-path="url(#p108419b5f3)" style="fill: none; stroke: #000000; stroke-width: 1.5"/>
    <path d="M 432.084531 235.18972 
L 432.084531 150.536547 
" clip-path="url(#p108419b5f3)" style="fill: none; stroke: #000000; stroke-width: 1.5"/>
    <path d="M 599.399531 256.854918 
L 599.399531 256.854918 
" clip-path="url(#p108419b5f3)" style="fill: none; stroke: #000000; stroke-width: 1.5"/>
   </g>
   <g id="LineCollection_3">
    <path d="M 107.911719 192.863134 
L 107.911719 128.87135 
" clip-path="url(#p108419b5f3)" style="fill: none; stroke: #000000; stroke-width: 1.5"/>
    <path d="M 275.226719 288.85081 
L 275.226719 288.85081 
" clip-path="url(#p108419b5f3)" style="fill: none; stroke: #000000; stroke-width: 1.5"/>
    <path d="M 442.541719 243.963643 
L 442.541719 195.089111 
" clip-path="url(#p108419b5f3)" style="fill: none; stroke: #000000; stroke-width: 1.5"/>
    <path d="M 609.856719 244.760741 
L 609.856719 226.287905 
" clip-path="url(#p108419b5f3)" style="fill: none; stroke: #000000; stroke-width: 1.5"/>
   </g>
   <g id="LineCollection_4">
    <path d="M 118.368906 287.421931 
L 118.368906 268.949094 
" clip-path="url(#p108419b5f3)" style="fill: none; stroke: #000000; stroke-width: 1.5"/>
    <path d="M 285.683906 292.75458 
L 285.683906 274.281743 
" clip-path="url(#p108419b5f3)" style="fill: none; stroke: #000000; stroke-width: 1.5"/>
    <path d="M 452.998906 259.961589 
L 452.998906 211.087057 
" clip-path="url(#p108419b5f3)" style="fill: none; stroke: #000000; stroke-width: 1.5"/>
    <path d="M 620.313906 272.852864 
L 620.313906 240.856972 
" clip-path="url(#p108419b5f3)" style="fill: none; stroke: #000000; stroke-width: 1.5"/>
   </g>
   <g id="LineCollection_5">
    <path d="M 128.826094 288.85081 
L 128.826094 288.85081 
" clip-path="url(#p108419b5f3)" style="fill: none; stroke: #000000; stroke-width: 1.5"/>
    <path d="M 296.141094 288.85081 
L 296.141094 288.85081 
" clip-path="url(#p108419b5f3)" style="fill: none; stroke: #000000; stroke-width: 1.5"/>
    <path d="M 463.456094 228.762795 
L 463.456094 210.289959 
" clip-path="url(#p108419b5f3)" style="fill: none; stroke: #000000; stroke-width: 1.5"/>
    <path d="M 630.771094 260.758687 
L 630.771094 242.285851 
" clip-path="url(#p108419b5f3)" style="fill: none; stroke: #000000; stroke-width: 1.5"/>
   </g>
   <g id="LineCollection_6">
    <path d="M 139.283281 153.634308 
L 139.283281 50.781905 
" clip-path="url(#p108419b5f3)" style="fill: none; stroke: #000000; stroke-width: 1.5"/>
    <path d="M 306.598281 292.75458 
L 306.598281 274.281743 
" clip-path="url(#p108419b5f3)" style="fill: none; stroke: #000000; stroke-width: 1.5"/>
    <path d="M 473.913281 238.630995 
L 473.913281 189.756462 
" clip-path="url(#p108419b5f3)" style="fill: none; stroke: #000000; stroke-width: 1.5"/>
    <path d="M 641.228281 256.854918 
L 641.228281 256.854918 
" clip-path="url(#p108419b5f3)" style="fill: none; stroke: #000000; stroke-width: 1.5"/>
   </g>
   <g id="LineCollection_7">
    <path d="M 149.740469 288.85081 
L 149.740469 256.854918 
" clip-path="url(#p108419b5f3)" style="fill: none; stroke: #000000; stroke-width: 1.5"/>
    <path d="M 317.055469 287.421931 
L 317.055469 268.949094 
" clip-path="url(#p108419b5f3)" style="fill: none; stroke: #000000; stroke-width: 1.5"/>
    <path d="M 484.370469 279.066207 
L 484.370469 181.317142 
" clip-path="url(#p108419b5f3)" style="fill: none; stroke: #000000; stroke-width: 1.5"/>
    <path d="M 651.685469 284.564173 
L 651.685469 229.145662 
" clip-path="url(#p108419b5f3)" style="fill: none; stroke: #000000; stroke-width: 1.5"/>
   </g>
   <g id="LineCollection_8">
    <path d="M 160.197656 276.756633 
L 160.197656 258.283797 
" clip-path="url(#p108419b5f3)" style="fill: none; stroke: #000000; stroke-width: 1.5"/>
    <path d="M 327.512656 288.85081 
L 327.512656 288.85081 
" clip-path="url(#p108419b5f3)" style="fill: none; stroke: #000000; stroke-width: 1.5"/>
    <path d="M 494.827656 253.99716 
L 494.827656 217.051486 
" clip-path="url(#p108419b5f3)" style="fill: none; stroke: #000000; stroke-width: 1.5"/>
    <path d="M 662.142656 264.662457 
L 662.142656 227.716783 
" clip-path="url(#p108419b5f3)" style="fill: none; stroke: #000000; stroke-width: 1.5"/>
   </g>
   <g id="patch_35">
    <path d="M 39.94 528.82 
L 39.94 26.88 
" style="fill: none; stroke: #000000; stroke-width: 0.8; stroke-linejoin: miter; stroke-linecap: square"/>
   </g>
   <g id="patch_36">
    <path d="M 709.2 528.82 
L 709.2 26.88 
" style="fill: none; stroke: #000000; stroke-width: 0.8; stroke-linejoin: miter; stroke-linecap: square"/>
   </g>
   <g id="patch_37">
    <path d="M 39.94 528.82 
L 709.2 528.82 
" style="fill: none; stroke: #000000; stroke-width: 0.8; stroke-linejoin: miter; stroke-linecap: square"/>
   </g>
   <g id="patch_38">
    <path d="M 39.94 26.88 
L 709.2 26.88 
" style="fill: none; stroke: #000000; stroke-width: 0.8; stroke-linejoin: miter; stroke-linecap: square"/>
   </g>
   <g id="text_13">
    <!-- LLM Queries with Errors -->
    <g transform="translate(303.341563 20.88) scale(0.12 -0.12)">
     <defs>
      <path id="DejaVuSans-4c" d="M 628 4666 
L 1259 4666 
L 1259 531 
L 3531 531 
L 3531 0 
L 628 0 
L 628 4666 
z
" transform="scale(0.015625)"/>
      <path id="DejaVuSans-4d" d="M 628 4666 
L 1569 4666 
L 2759 1491 
L 3956 4666 
L 4897 4666 
L 4897 0 
L 4281 0 
L 4281 4097 
L 3078 897 
L 2444 897 
L 1241 4097 
L 1241 0 
L 628 0 
L 628 4666 
z
" transform="scale(0.015625)"/>
      <path id="DejaVuSans-20" transform="scale(0.015625)"/>
      <path id="DejaVuSans-51" d="M 2522 4238 
Q 1834 4238 1429 3725 
Q 1025 3213 1025 2328 
Q 1025 1447 1429 934 
Q 1834 422 2522 422 
Q 3209 422 3611 934 
Q 4013 1447 4013 2328 
Q 4013 3213 3611 3725 
Q 3209 4238 2522 4238 
z
M 3406 84 
L 4238 -825 
L 3475 -825 
L 2784 -78 
Q 2681 -84 2626 -87 
Q 2572 -91 2522 -91 
Q 1538 -91 948 567 
Q 359 1225 359 2328 
Q 359 3434 948 4092 
Q 1538 4750 2522 4750 
Q 3503 4750 4090 4092 
Q 4678 3434 4678 2328 
Q 4678 1516 4351 937 
Q 4025 359 3406 84 
z
" transform="scale(0.015625)"/>
      <path id="DejaVuSans-75" d="M 544 1381 
L 544 3500 
L 1119 3500 
L 1119 1403 
Q 1119 906 1312 657 
Q 1506 409 1894 409 
Q 2359 409 2629 706 
Q 2900 1003 2900 1516 
L 2900 3500 
L 3475 3500 
L 3475 0 
L 2900 0 
L 2900 538 
Q 2691 219 2414 64 
Q 2138 -91 1772 -91 
Q 1169 -91 856 284 
Q 544 659 544 1381 
z
M 1991 3584 
L 1991 3584 
z
" transform="scale(0.015625)"/>
      <path id="DejaVuSans-68" d="M 3513 2113 
L 3513 0 
L 2938 0 
L 2938 2094 
Q 2938 2591 2744 2837 
Q 2550 3084 2163 3084 
Q 1697 3084 1428 2787 
Q 1159 2491 1159 1978 
L 1159 0 
L 581 0 
L 581 4863 
L 1159 4863 
L 1159 2956 
Q 1366 3272 1645 3428 
Q 1925 3584 2291 3584 
Q 2894 3584 3203 3211 
Q 3513 2838 3513 2113 
z
" transform="scale(0.015625)"/>
      <path id="DejaVuSans-45" d="M 628 4666 
L 3578 4666 
L 3578 4134 
L 1259 4134 
L 1259 2753 
L 3481 2753 
L 3481 2222 
L 1259 2222 
L 1259 531 
L 3634 531 
L 3634 0 
L 628 0 
L 628 4666 
z
" transform="scale(0.015625)"/>
     </defs>
     <use xlink:href="#DejaVuSans-4c"/>
     <use xlink:href="#DejaVuSans-4c" transform="translate(55.712891 0)"/>
     <use xlink:href="#DejaVuSans-4d" transform="translate(111.425781 0)"/>
     <use xlink:href="#DejaVuSans-20" transform="translate(197.705078 0)"/>
     <use xlink:href="#DejaVuSans-51" transform="translate(229.492188 0)"/>
     <use xlink:href="#DejaVuSans-75" transform="translate(308.203125 0)"/>
     <use xlink:href="#DejaVuSans-65" transform="translate(371.582031 0)"/>
     <use xlink:href="#DejaVuSans-72" transform="translate(433.105469 0)"/>
     <use xlink:href="#DejaVuSans-69" transform="translate(474.21875 0)"/>
     <use xlink:href="#DejaVuSans-65" transform="translate(502.001953 0)"/>
     <use xlink:href="#DejaVuSans-73" transform="translate(563.525391 0)"/>
     <use xlink:href="#DejaVuSans-20" transform="translate(615.625 0)"/>
     <use xlink:href="#DejaVuSans-77" transform="translate(647.412109 0)"/>
     <use xlink:href="#DejaVuSans-69" transform="translate(729.199219 0)"/>
     <use xlink:href="#DejaVuSans-74" transform="translate(756.982422 0)"/>
     <use xlink:href="#DejaVuSans-68" transform="translate(796.191406 0)"/>
     <use xlink:href="#DejaVuSans-20" transform="translate(859.570312 0)"/>
     <use xlink:href="#DejaVuSans-45" transform="translate(891.357422 0)"/>
     <use xlink:href="#DejaVuSans-72" transform="translate(954.541016 0)"/>
     <use xlink:href="#DejaVuSans-72" transform="translate(993.904297 0)"/>
     <use xlink:href="#DejaVuSans-6f" transform="translate(1032.767578 0)"/>
     <use xlink:href="#DejaVuSans-72" transform="translate(1093.949219 0)"/>
     <use xlink:href="#DejaVuSans-73" transform="translate(1135.0625 0)"/>
    </g>
   </g>
   <g id="legend_1">
    <g id="patch_39">
     <path d="M 143.485937 169.208125 
L 702.2 169.208125 
Q 704.2 169.208125 704.2 167.208125 
L 704.2 33.88 
Q 704.2 31.88 702.2 31.88 
L 143.485937 31.88 
Q 141.485937 31.88 141.485937 33.88 
L 141.485937 167.208125 
Q 141.485937 169.208125 143.485937 169.208125 
z
" style="fill: #ffffff; opacity: 0.8; stroke: #cccccc; stroke-linejoin: miter"/>
    </g>
    <g id="text_14">
     <!-- commit_hash -->
     <g transform="translate(389.438281 43.478438) scale(0.1 -0.1)">
      <use xlink:href="#DejaVuSans-63"/>
      <use xlink:href="#DejaVuSans-6f" transform="translate(54.980469 0)"/>
      <use xlink:href="#DejaVuSans-6d" transform="translate(116.162109 0)"/>
      <use xlink:href="#DejaVuSans-6d" transform="translate(213.574219 0)"/>
      <use xlink:href="#DejaVuSans-69" transform="translate(310.986328 0)"/>
      <use xlink:href="#DejaVuSans-74" transform="translate(338.769531 0)"/>
      <use xlink:href="#DejaVuSans-5f" transform="translate(377.978516 0)"/>
      <use xlink:href="#DejaVuSans-68" transform="translate(427.978516 0)"/>
      <use xlink:href="#DejaVuSans-61" transform="translate(491.357422 0)"/>
      <use xlink:href="#DejaVuSans-73" transform="translate(552.636719 0)"/>
      <use xlink:href="#DejaVuSans-68" transform="translate(604.736328 0)"/>
     </g>
    </g>
    <g id="patch_40">
     <path d="M 145.485937 58.434687 
L 165.485937 58.434687 
L 165.485937 51.434687 
L 145.485937 51.434687 
z
" style="fill: #1f77b4"/>
    </g>
    <g id="text_15">
     <!-- 0. baseline -->
     <g transform="translate(173.485937 58.434687) scale(0.1 -0.1)">
      <use xlink:href="#DejaVuSans-30"/>
      <use xlink:href="#DejaVuSans-2e" transform="translate(63.623047 0)"/>
      <use xlink:href="#DejaVuSans-20" transform="translate(95.410156 0)"/>
      <use xlink:href="#DejaVuSans-62" transform="translate(127.197266 0)"/>
      <use xlink:href="#DejaVuSans-61" transform="translate(190.673828 0)"/>
      <use xlink:href="#DejaVuSans-73" transform="translate(251.953125 0)"/>
      <use xlink:href="#DejaVuSans-65" transform="translate(304.052734 0)"/>
      <use xlink:href="#DejaVuSans-6c" transform="translate(365.576172 0)"/>
      <use xlink:href="#DejaVuSans-69" transform="translate(393.359375 0)"/>
      <use xlink:href="#DejaVuSans-6e" transform="translate(421.142578 0)"/>
      <use xlink:href="#DejaVuSans-65" transform="translate(484.521484 0)"/>
     </g>
    </g>
    <g id="patch_41">
     <path d="M 145.485937 73.112813 
L 165.485937 73.112813 
L 165.485937 66.112813 
L 145.485937 66.112813 
z
" style="fill: #ff7f0e"/>
    </g>
    <g id="text_16">
     <!-- 1.a description_change -->
     <g transform="translate(173.485937 73.112813) scale(0.1 -0.1)">
      <defs>
       <path id="DejaVuSans-64" d="M 2906 2969 
L 2906 4863 
L 3481 4863 
L 3481 0 
L 2906 0 
L 2906 525 
Q 2725 213 2448 61 
Q 2172 -91 1784 -91 
Q 1150 -91 751 415 
Q 353 922 353 1747 
Q 353 2572 751 3078 
Q 1150 3584 1784 3584 
Q 2172 3584 2448 3432 
Q 2725 3281 2906 2969 
z
M 947 1747 
Q 947 1113 1208 752 
Q 1469 391 1925 391 
Q 2381 391 2643 752 
Q 2906 1113 2906 1747 
Q 2906 2381 2643 2742 
Q 2381 3103 1925 3103 
Q 1469 3103 1208 2742 
Q 947 2381 947 1747 
z
" transform="scale(0.015625)"/>
      </defs>
      <use xlink:href="#DejaVuSans-31"/>
      <use xlink:href="#DejaVuSans-2e" transform="translate(63.623047 0)"/>
      <use xlink:href="#DejaVuSans-61" transform="translate(95.410156 0)"/>
      <use xlink:href="#DejaVuSans-20" transform="translate(156.689453 0)"/>
      <use xlink:href="#DejaVuSans-64" transform="translate(188.476562 0)"/>
      <use xlink:href="#DejaVuSans-65" transform="translate(251.953125 0)"/>
      <use xlink:href="#DejaVuSans-73" transform="translate(313.476562 0)"/>
      <use xlink:href="#DejaVuSans-63" transform="translate(365.576172 0)"/>
      <use xlink:href="#DejaVuSans-72" transform="translate(420.556641 0)"/>
      <use xlink:href="#DejaVuSans-69" transform="translate(461.669922 0)"/>
      <use xlink:href="#DejaVuSans-70" transform="translate(489.453125 0)"/>
      <use xlink:href="#DejaVuSans-74" transform="translate(552.929688 0)"/>
      <use xlink:href="#DejaVuSans-69" transform="translate(592.138672 0)"/>
      <use xlink:href="#DejaVuSans-6f" transform="translate(619.921875 0)"/>
      <use xlink:href="#DejaVuSans-6e" transform="translate(681.103516 0)"/>
      <use xlink:href="#DejaVuSans-5f" transform="translate(744.482422 0)"/>
      <use xlink:href="#DejaVuSans-63" transform="translate(794.482422 0)"/>
      <use xlink:href="#DejaVuSans-68" transform="translate(849.462891 0)"/>
      <use xlink:href="#DejaVuSans-61" transform="translate(912.841797 0)"/>
      <use xlink:href="#DejaVuSans-6e" transform="translate(974.121094 0)"/>
      <use xlink:href="#DejaVuSans-67" transform="translate(1037.5 0)"/>
      <use xlink:href="#DejaVuSans-65" transform="translate(1100.976562 0)"/>
     </g>
    </g>
    <g id="patch_42">
     <path d="M 145.485937 88.069062 
L 165.485937 88.069062 
L 165.485937 81.069062 
L 145.485937 81.069062 
z
" style="fill: #2ca02c"/>
    </g>
    <g id="text_17">
     <!-- 1.b cardinality_change -->
     <g transform="translate(173.485937 88.069062) scale(0.1 -0.1)">
      <defs>
       <path id="DejaVuSans-79" d="M 2059 -325 
Q 1816 -950 1584 -1140 
Q 1353 -1331 966 -1331 
L 506 -1331 
L 506 -850 
L 844 -850 
Q 1081 -850 1212 -737 
Q 1344 -625 1503 -206 
L 1606 56 
L 191 3500 
L 800 3500 
L 1894 763 
L 2988 3500 
L 3597 3500 
L 2059 -325 
z
" transform="scale(0.015625)"/>
      </defs>
      <use xlink:href="#DejaVuSans-31"/>
      <use xlink:href="#DejaVuSans-2e" transform="translate(63.623047 0)"/>
      <use xlink:href="#DejaVuSans-62" transform="translate(95.410156 0)"/>
      <use xlink:href="#DejaVuSans-20" transform="translate(158.886719 0)"/>
      <use xlink:href="#DejaVuSans-63" transform="translate(190.673828 0)"/>
      <use xlink:href="#DejaVuSans-61" transform="translate(245.654297 0)"/>
      <use xlink:href="#DejaVuSans-72" transform="translate(306.933594 0)"/>
      <use xlink:href="#DejaVuSans-64" transform="translate(346.296875 0)"/>
      <use xlink:href="#DejaVuSans-69" transform="translate(409.773438 0)"/>
      <use xlink:href="#DejaVuSans-6e" transform="translate(437.556641 0)"/>
      <use xlink:href="#DejaVuSans-61" transform="translate(500.935547 0)"/>
      <use xlink:href="#DejaVuSans-6c" transform="translate(562.214844 0)"/>
      <use xlink:href="#DejaVuSans-69" transform="translate(589.998047 0)"/>
      <use xlink:href="#DejaVuSans-74" transform="translate(617.78125 0)"/>
      <use xlink:href="#DejaVuSans-79" transform="translate(656.990234 0)"/>
      <use xlink:href="#DejaVuSans-5f" transform="translate(716.169922 0)"/>
      <use xlink:href="#DejaVuSans-63" transform="translate(766.169922 0)"/>
      <use xlink:href="#DejaVuSans-68" transform="translate(821.150391 0)"/>
      <use xlink:href="#DejaVuSans-61" transform="translate(884.529297 0)"/>
      <use xlink:href="#DejaVuSans-6e" transform="translate(945.808594 0)"/>
      <use xlink:href="#DejaVuSans-67" transform="translate(1009.1875 0)"/>
      <use xlink:href="#DejaVuSans-65" transform="translate(1072.664062 0)"/>
     </g>
    </g>
    <g id="patch_43">
     <path d="M 145.485937 103.025313 
L 165.485937 103.025313 
L 165.485937 96.025313 
L 145.485937 96.025313 
z
" style="fill: #d62728"/>
    </g>
    <g id="text_18">
     <!-- 1.c description_change + cardinality_change -->
     <g transform="translate(173.485937 103.025313) scale(0.1 -0.1)">
      <defs>
       <path id="DejaVuSans-2b" d="M 2944 4013 
L 2944 2272 
L 4684 2272 
L 4684 1741 
L 2944 1741 
L 2944 0 
L 2419 0 
L 2419 1741 
L 678 1741 
L 678 2272 
L 2419 2272 
L 2419 4013 
L 2944 4013 
z
" transform="scale(0.015625)"/>
      </defs>
      <use xlink:href="#DejaVuSans-31"/>
      <use xlink:href="#DejaVuSans-2e" transform="translate(63.623047 0)"/>
      <use xlink:href="#DejaVuSans-63" transform="translate(95.410156 0)"/>
      <use xlink:href="#DejaVuSans-20" transform="translate(150.390625 0)"/>
      <use xlink:href="#DejaVuSans-64" transform="translate(182.177734 0)"/>
      <use xlink:href="#DejaVuSans-65" transform="translate(245.654297 0)"/>
      <use xlink:href="#DejaVuSans-73" transform="translate(307.177734 0)"/>
      <use xlink:href="#DejaVuSans-63" transform="translate(359.277344 0)"/>
      <use xlink:href="#DejaVuSans-72" transform="translate(414.257812 0)"/>
      <use xlink:href="#DejaVuSans-69" transform="translate(455.371094 0)"/>
      <use xlink:href="#DejaVuSans-70" transform="translate(483.154297 0)"/>
      <use xlink:href="#DejaVuSans-74" transform="translate(546.630859 0)"/>
      <use xlink:href="#DejaVuSans-69" transform="translate(585.839844 0)"/>
      <use xlink:href="#DejaVuSans-6f" transform="translate(613.623047 0)"/>
      <use xlink:href="#DejaVuSans-6e" transform="translate(674.804688 0)"/>
      <use xlink:href="#DejaVuSans-5f" transform="translate(738.183594 0)"/>
      <use xlink:href="#DejaVuSans-63" transform="translate(788.183594 0)"/>
      <use xlink:href="#DejaVuSans-68" transform="translate(843.164062 0)"/>
      <use xlink:href="#DejaVuSans-61" transform="translate(906.542969 0)"/>
      <use xlink:href="#DejaVuSans-6e" transform="translate(967.822266 0)"/>
      <use xlink:href="#DejaVuSans-67" transform="translate(1031.201172 0)"/>
      <use xlink:href="#DejaVuSans-65" transform="translate(1094.677734 0)"/>
      <use xlink:href="#DejaVuSans-20" transform="translate(1156.201172 0)"/>
      <use xlink:href="#DejaVuSans-2b" transform="translate(1187.988281 0)"/>
      <use xlink:href="#DejaVuSans-20" transform="translate(1271.777344 0)"/>
      <use xlink:href="#DejaVuSans-63" transform="translate(1303.564453 0)"/>
      <use xlink:href="#DejaVuSans-61" transform="translate(1358.544922 0)"/>
      <use xlink:href="#DejaVuSans-72" transform="translate(1419.824219 0)"/>
      <use xlink:href="#DejaVuSans-64" transform="translate(1459.1875 0)"/>
      <use xlink:href="#DejaVuSans-69" transform="translate(1522.664062 0)"/>
      <use xlink:href="#DejaVuSans-6e" transform="translate(1550.447266 0)"/>
      <use xlink:href="#DejaVuSans-61" transform="translate(1613.826172 0)"/>
      <use xlink:href="#DejaVuSans-6c" transform="translate(1675.105469 0)"/>
      <use xlink:href="#DejaVuSans-69" transform="translate(1702.888672 0)"/>
      <use xlink:href="#DejaVuSans-74" transform="translate(1730.671875 0)"/>
      <use xlink:href="#DejaVuSans-79" transform="translate(1769.880859 0)"/>
      <use xlink:href="#DejaVuSans-5f" transform="translate(1829.060547 0)"/>
      <use xlink:href="#DejaVuSans-63" transform="translate(1879.060547 0)"/>
      <use xlink:href="#DejaVuSans-68" transform="translate(1934.041016 0)"/>
      <use xlink:href="#DejaVuSans-61" transform="translate(1997.419922 0)"/>
      <use xlink:href="#DejaVuSans-6e" transform="translate(2058.699219 0)"/>
      <use xlink:href="#DejaVuSans-67" transform="translate(2122.078125 0)"/>
      <use xlink:href="#DejaVuSans-65" transform="translate(2185.554688 0)"/>
     </g>
    </g>
    <g id="patch_44">
     <path d="M 145.485937 117.981562 
L 165.485937 117.981562 
L 165.485937 110.981562 
L 145.485937 110.981562 
z
" style="fill: #9467bd"/>
    </g>
    <g id="text_19">
     <!-- 2.a description_change + move_description -->
     <g transform="translate(173.485937 117.981562) scale(0.1 -0.1)">
      <defs>
       <path id="DejaVuSans-76" d="M 191 3500 
L 800 3500 
L 1894 563 
L 2988 3500 
L 3597 3500 
L 2284 0 
L 1503 0 
L 191 3500 
z
" transform="scale(0.015625)"/>
      </defs>
      <use xlink:href="#DejaVuSans-32"/>
      <use xlink:href="#DejaVuSans-2e" transform="translate(63.623047 0)"/>
      <use xlink:href="#DejaVuSans-61" transform="translate(95.410156 0)"/>
      <use xlink:href="#DejaVuSans-20" transform="translate(156.689453 0)"/>
      <use xlink:href="#DejaVuSans-64" transform="translate(188.476562 0)"/>
      <use xlink:href="#DejaVuSans-65" transform="translate(251.953125 0)"/>
      <use xlink:href="#DejaVuSans-73" transform="translate(313.476562 0)"/>
      <use xlink:href="#DejaVuSans-63" transform="translate(365.576172 0)"/>
      <use xlink:href="#DejaVuSans-72" transform="translate(420.556641 0)"/>
      <use xlink:href="#DejaVuSans-69" transform="translate(461.669922 0)"/>
      <use xlink:href="#DejaVuSans-70" transform="translate(489.453125 0)"/>
      <use xlink:href="#DejaVuSans-74" transform="translate(552.929688 0)"/>
      <use xlink:href="#DejaVuSans-69" transform="translate(592.138672 0)"/>
      <use xlink:href="#DejaVuSans-6f" transform="translate(619.921875 0)"/>
      <use xlink:href="#DejaVuSans-6e" transform="translate(681.103516 0)"/>
      <use xlink:href="#DejaVuSans-5f" transform="translate(744.482422 0)"/>
      <use xlink:href="#DejaVuSans-63" transform="translate(794.482422 0)"/>
      <use xlink:href="#DejaVuSans-68" transform="translate(849.462891 0)"/>
      <use xlink:href="#DejaVuSans-61" transform="translate(912.841797 0)"/>
      <use xlink:href="#DejaVuSans-6e" transform="translate(974.121094 0)"/>
      <use xlink:href="#DejaVuSans-67" transform="translate(1037.5 0)"/>
      <use xlink:href="#DejaVuSans-65" transform="translate(1100.976562 0)"/>
      <use xlink:href="#DejaVuSans-20" transform="translate(1162.5 0)"/>
      <use xlink:href="#DejaVuSans-2b" transform="translate(1194.287109 0)"/>
      <use xlink:href="#DejaVuSans-20" transform="translate(1278.076172 0)"/>
      <use xlink:href="#DejaVuSans-6d" transform="translate(1309.863281 0)"/>
      <use xlink:href="#DejaVuSans-6f" transform="translate(1407.275391 0)"/>
      <use xlink:href="#DejaVuSans-76" transform="translate(1468.457031 0)"/>
      <use xlink:href="#DejaVuSans-65" transform="translate(1527.636719 0)"/>
      <use xlink:href="#DejaVuSans-5f" transform="translate(1589.160156 0)"/>
      <use xlink:href="#DejaVuSans-64" transform="translate(1639.160156 0)"/>
      <use xlink:href="#DejaVuSans-65" transform="translate(1702.636719 0)"/>
      <use xlink:href="#DejaVuSans-73" transform="translate(1764.160156 0)"/>
      <use xlink:href="#DejaVuSans-63" transform="translate(1816.259766 0)"/>
      <use xlink:href="#DejaVuSans-72" transform="translate(1871.240234 0)"/>
      <use xlink:href="#DejaVuSans-69" transform="translate(1912.353516 0)"/>
      <use xlink:href="#DejaVuSans-70" transform="translate(1940.136719 0)"/>
      <use xlink:href="#DejaVuSans-74" transform="translate(2003.613281 0)"/>
      <use xlink:href="#DejaVuSans-69" transform="translate(2042.822266 0)"/>
      <use xlink:href="#DejaVuSans-6f" transform="translate(2070.605469 0)"/>
      <use xlink:href="#DejaVuSans-6e" transform="translate(2131.787109 0)"/>
     </g>
    </g>
    <g id="patch_45">
     <path d="M 145.485937 132.937812 
L 165.485937 132.937812 
L 165.485937 125.937812 
L 145.485937 125.937812 
z
" style="fill: #8c564b"/>
    </g>
    <g id="text_20">
     <!-- 2.c description_change + cardinality_change + move_description -->
     <g transform="translate(173.485937 132.937812) scale(0.1 -0.1)">
      <use xlink:href="#DejaVuSans-32"/>
      <use xlink:href="#DejaVuSans-2e" transform="translate(63.623047 0)"/>
      <use xlink:href="#DejaVuSans-63" transform="translate(95.410156 0)"/>
      <use xlink:href="#DejaVuSans-20" transform="translate(150.390625 0)"/>
      <use xlink:href="#DejaVuSans-64" transform="translate(182.177734 0)"/>
      <use xlink:href="#DejaVuSans-65" transform="translate(245.654297 0)"/>
      <use xlink:href="#DejaVuSans-73" transform="translate(307.177734 0)"/>
      <use xlink:href="#DejaVuSans-63" transform="translate(359.277344 0)"/>
      <use xlink:href="#DejaVuSans-72" transform="translate(414.257812 0)"/>
      <use xlink:href="#DejaVuSans-69" transform="translate(455.371094 0)"/>
      <use xlink:href="#DejaVuSans-70" transform="translate(483.154297 0)"/>
      <use xlink:href="#DejaVuSans-74" transform="translate(546.630859 0)"/>
      <use xlink:href="#DejaVuSans-69" transform="translate(585.839844 0)"/>
      <use xlink:href="#DejaVuSans-6f" transform="translate(613.623047 0)"/>
      <use xlink:href="#DejaVuSans-6e" transform="translate(674.804688 0)"/>
      <use xlink:href="#DejaVuSans-5f" transform="translate(738.183594 0)"/>
      <use xlink:href="#DejaVuSans-63" transform="translate(788.183594 0)"/>
      <use xlink:href="#DejaVuSans-68" transform="translate(843.164062 0)"/>
      <use xlink:href="#DejaVuSans-61" transform="translate(906.542969 0)"/>
      <use xlink:href="#DejaVuSans-6e" transform="translate(967.822266 0)"/>
      <use xlink:href="#DejaVuSans-67" transform="translate(1031.201172 0)"/>
      <use xlink:href="#DejaVuSans-65" transform="translate(1094.677734 0)"/>
      <use xlink:href="#DejaVuSans-20" transform="translate(1156.201172 0)"/>
      <use xlink:href="#DejaVuSans-2b" transform="translate(1187.988281 0)"/>
      <use xlink:href="#DejaVuSans-20" transform="translate(1271.777344 0)"/>
      <use xlink:href="#DejaVuSans-63" transform="translate(1303.564453 0)"/>
      <use xlink:href="#DejaVuSans-61" transform="translate(1358.544922 0)"/>
      <use xlink:href="#DejaVuSans-72" transform="translate(1419.824219 0)"/>
      <use xlink:href="#DejaVuSans-64" transform="translate(1459.1875 0)"/>
      <use xlink:href="#DejaVuSans-69" transform="translate(1522.664062 0)"/>
      <use xlink:href="#DejaVuSans-6e" transform="translate(1550.447266 0)"/>
      <use xlink:href="#DejaVuSans-61" transform="translate(1613.826172 0)"/>
      <use xlink:href="#DejaVuSans-6c" transform="translate(1675.105469 0)"/>
      <use xlink:href="#DejaVuSans-69" transform="translate(1702.888672 0)"/>
      <use xlink:href="#DejaVuSans-74" transform="translate(1730.671875 0)"/>
      <use xlink:href="#DejaVuSans-79" transform="translate(1769.880859 0)"/>
      <use xlink:href="#DejaVuSans-5f" transform="translate(1829.060547 0)"/>
      <use xlink:href="#DejaVuSans-63" transform="translate(1879.060547 0)"/>
      <use xlink:href="#DejaVuSans-68" transform="translate(1934.041016 0)"/>
      <use xlink:href="#DejaVuSans-61" transform="translate(1997.419922 0)"/>
      <use xlink:href="#DejaVuSans-6e" transform="translate(2058.699219 0)"/>
      <use xlink:href="#DejaVuSans-67" transform="translate(2122.078125 0)"/>
      <use xlink:href="#DejaVuSans-65" transform="translate(2185.554688 0)"/>
      <use xlink:href="#DejaVuSans-20" transform="translate(2247.078125 0)"/>
      <use xlink:href="#DejaVuSans-2b" transform="translate(2278.865234 0)"/>
      <use xlink:href="#DejaVuSans-20" transform="translate(2362.654297 0)"/>
      <use xlink:href="#DejaVuSans-6d" transform="translate(2394.441406 0)"/>
      <use xlink:href="#DejaVuSans-6f" transform="translate(2491.853516 0)"/>
      <use xlink:href="#DejaVuSans-76" transform="translate(2553.035156 0)"/>
      <use xlink:href="#DejaVuSans-65" transform="translate(2612.214844 0)"/>
      <use xlink:href="#DejaVuSans-5f" transform="translate(2673.738281 0)"/>
      <use xlink:href="#DejaVuSans-64" transform="translate(2723.738281 0)"/>
      <use xlink:href="#DejaVuSans-65" transform="translate(2787.214844 0)"/>
      <use xlink:href="#DejaVuSans-73" transform="translate(2848.738281 0)"/>
      <use xlink:href="#DejaVuSans-63" transform="translate(2900.837891 0)"/>
      <use xlink:href="#DejaVuSans-72" transform="translate(2955.818359 0)"/>
      <use xlink:href="#DejaVuSans-69" transform="translate(2996.931641 0)"/>
      <use xlink:href="#DejaVuSans-70" transform="translate(3024.714844 0)"/>
      <use xlink:href="#DejaVuSans-74" transform="translate(3088.191406 0)"/>
      <use xlink:href="#DejaVuSans-69" transform="translate(3127.400391 0)"/>
      <use xlink:href="#DejaVuSans-6f" transform="translate(3155.183594 0)"/>
      <use xlink:href="#DejaVuSans-6e" transform="translate(3216.365234 0)"/>
     </g>
    </g>
    <g id="patch_46">
     <path d="M 145.485937 147.894063 
L 165.485937 147.894063 
L 165.485937 140.894063 
L 145.485937 140.894063 
z
" style="fill: #e377c2"/>
    </g>
    <g id="text_21">
     <!-- 3.d description_change + move_description + add_category + replace_separator -->
     <g transform="translate(173.485937 147.894063) scale(0.1 -0.1)">
      <use xlink:href="#DejaVuSans-33"/>
      <use xlink:href="#DejaVuSans-2e" transform="translate(63.623047 0)"/>
      <use xlink:href="#DejaVuSans-64" transform="translate(95.410156 0)"/>
      <use xlink:href="#DejaVuSans-20" transform="translate(158.886719 0)"/>
      <use xlink:href="#DejaVuSans-64" transform="translate(190.673828 0)"/>
      <use xlink:href="#DejaVuSans-65" transform="translate(254.150391 0)"/>
      <use xlink:href="#DejaVuSans-73" transform="translate(315.673828 0)"/>
      <use xlink:href="#DejaVuSans-63" transform="translate(367.773438 0)"/>
      <use xlink:href="#DejaVuSans-72" transform="translate(422.753906 0)"/>
      <use xlink:href="#DejaVuSans-69" transform="translate(463.867188 0)"/>
      <use xlink:href="#DejaVuSans-70" transform="translate(491.650391 0)"/>
      <use xlink:href="#DejaVuSans-74" transform="translate(555.126953 0)"/>
      <use xlink:href="#DejaVuSans-69" transform="translate(594.335938 0)"/>
      <use xlink:href="#DejaVuSans-6f" transform="translate(622.119141 0)"/>
      <use xlink:href="#DejaVuSans-6e" transform="translate(683.300781 0)"/>
      <use xlink:href="#DejaVuSans-5f" transform="translate(746.679688 0)"/>
      <use xlink:href="#DejaVuSans-63" transform="translate(796.679688 0)"/>
      <use xlink:href="#DejaVuSans-68" transform="translate(851.660156 0)"/>
      <use xlink:href="#DejaVuSans-61" transform="translate(915.039062 0)"/>
      <use xlink:href="#DejaVuSans-6e" transform="translate(976.318359 0)"/>
      <use xlink:href="#DejaVuSans-67" transform="translate(1039.697266 0)"/>
      <use xlink:href="#DejaVuSans-65" transform="translate(1103.173828 0)"/>
      <use xlink:href="#DejaVuSans-20" transform="translate(1164.697266 0)"/>
      <use xlink:href="#DejaVuSans-2b" transform="translate(1196.484375 0)"/>
      <use xlink:href="#DejaVuSans-20" transform="translate(1280.273438 0)"/>
      <use xlink:href="#DejaVuSans-6d" transform="translate(1312.060547 0)"/>
      <use xlink:href="#DejaVuSans-6f" transform="translate(1409.472656 0)"/>
      <use xlink:href="#DejaVuSans-76" transform="translate(1470.654297 0)"/>
      <use xlink:href="#DejaVuSans-65" transform="translate(1529.833984 0)"/>
      <use xlink:href="#DejaVuSans-5f" transform="translate(1591.357422 0)"/>
      <use xlink:href="#DejaVuSans-64" transform="translate(1641.357422 0)"/>
      <use xlink:href="#DejaVuSans-65" transform="translate(1704.833984 0)"/>
      <use xlink:href="#DejaVuSans-73" transform="translate(1766.357422 0)"/>
      <use xlink:href="#DejaVuSans-63" transform="translate(1818.457031 0)"/>
      <use xlink:href="#DejaVuSans-72" transform="translate(1873.4375 0)"/>
      <use xlink:href="#DejaVuSans-69" transform="translate(1914.550781 0)"/>
      <use xlink:href="#DejaVuSans-70" transform="translate(1942.333984 0)"/>
      <use xlink:href="#DejaVuSans-74" transform="translate(2005.810547 0)"/>
      <use xlink:href="#DejaVuSans-69" transform="translate(2045.019531 0)"/>
      <use xlink:href="#DejaVuSans-6f" transform="translate(2072.802734 0)"/>
      <use xlink:href="#DejaVuSans-6e" transform="translate(2133.984375 0)"/>
      <use xlink:href="#DejaVuSans-20" transform="translate(2197.363281 0)"/>
      <use xlink:href="#DejaVuSans-2b" transform="translate(2229.150391 0)"/>
      <use xlink:href="#DejaVuSans-20" transform="translate(2312.939453 0)"/>
      <use xlink:href="#DejaVuSans-61" transform="translate(2344.726562 0)"/>
      <use xlink:href="#DejaVuSans-64" transform="translate(2406.005859 0)"/>
      <use xlink:href="#DejaVuSans-64" transform="translate(2469.482422 0)"/>
      <use xlink:href="#DejaVuSans-5f" transform="translate(2532.958984 0)"/>
      <use xlink:href="#DejaVuSans-63" transform="translate(2582.958984 0)"/>
      <use xlink:href="#DejaVuSans-61" transform="translate(2637.939453 0)"/>
      <use xlink:href="#DejaVuSans-74" transform="translate(2699.21875 0)"/>
      <use xlink:href="#DejaVuSans-65" transform="translate(2738.427734 0)"/>
      <use xlink:href="#DejaVuSans-67" transform="translate(2799.951172 0)"/>
      <use xlink:href="#DejaVuSans-6f" transform="translate(2863.427734 0)"/>
      <use xlink:href="#DejaVuSans-72" transform="translate(2924.609375 0)"/>
      <use xlink:href="#DejaVuSans-79" transform="translate(2965.722656 0)"/>
      <use xlink:href="#DejaVuSans-20" transform="translate(3024.902344 0)"/>
      <use xlink:href="#DejaVuSans-2b" transform="translate(3056.689453 0)"/>
      <use xlink:href="#DejaVuSans-20" transform="translate(3140.478516 0)"/>
      <use xlink:href="#DejaVuSans-72" transform="translate(3172.265625 0)"/>
      <use xlink:href="#DejaVuSans-65" transform="translate(3211.128906 0)"/>
      <use xlink:href="#DejaVuSans-70" transform="translate(3272.652344 0)"/>
      <use xlink:href="#DejaVuSans-6c" transform="translate(3336.128906 0)"/>
      <use xlink:href="#DejaVuSans-61" transform="translate(3363.912109 0)"/>
      <use xlink:href="#DejaVuSans-63" transform="translate(3425.191406 0)"/>
      <use xlink:href="#DejaVuSans-65" transform="translate(3480.171875 0)"/>
      <use xlink:href="#DejaVuSans-5f" transform="translate(3541.695312 0)"/>
      <use xlink:href="#DejaVuSans-73" transform="translate(3591.695312 0)"/>
      <use xlink:href="#DejaVuSans-65" transform="translate(3643.794922 0)"/>
      <use xlink:href="#DejaVuSans-70" transform="translate(3705.318359 0)"/>
      <use xlink:href="#DejaVuSans-61" transform="translate(3768.794922 0)"/>
      <use xlink:href="#DejaVuSans-72" transform="translate(3830.074219 0)"/>
      <use xlink:href="#DejaVuSans-61" transform="translate(3871.1875 0)"/>
      <use xlink:href="#DejaVuSans-74" transform="translate(3932.466797 0)"/>
      <use xlink:href="#DejaVuSans-6f" transform="translate(3971.675781 0)"/>
      <use xlink:href="#DejaVuSans-72" transform="translate(4032.857422 0)"/>
     </g>
    </g>
    <g id="patch_47">
     <path d="M 145.485937 162.850312 
L 165.485937 162.850312 
L 165.485937 155.850312 
L 145.485937 155.850312 
z
" style="fill: #7f7f7f"/>
    </g>
    <g id="text_22">
     <!-- 3.e description_change + move_description + add_category + replace_separator + category_constraints -->
     <g transform="translate(173.485937 162.850312) scale(0.1 -0.1)">
      <use xlink:href="#DejaVuSans-33"/>
      <use xlink:href="#DejaVuSans-2e" transform="translate(63.623047 0)"/>
      <use xlink:href="#DejaVuSans-65" transform="translate(95.410156 0)"/>
      <use xlink:href="#DejaVuSans-20" transform="translate(156.933594 0)"/>
      <use xlink:href="#DejaVuSans-64" transform="translate(188.720703 0)"/>
      <use xlink:href="#DejaVuSans-65" transform="translate(252.197266 0)"/>
      <use xlink:href="#DejaVuSans-73" transform="translate(313.720703 0)"/>
      <use xlink:href="#DejaVuSans-63" transform="translate(365.820312 0)"/>
      <use xlink:href="#DejaVuSans-72" transform="translate(420.800781 0)"/>
      <use xlink:href="#DejaVuSans-69" transform="translate(461.914062 0)"/>
      <use xlink:href="#DejaVuSans-70" transform="translate(489.697266 0)"/>
      <use xlink:href="#DejaVuSans-74" transform="translate(553.173828 0)"/>
      <use xlink:href="#DejaVuSans-69" transform="translate(592.382812 0)"/>
      <use xlink:href="#DejaVuSans-6f" transform="translate(620.166016 0)"/>
      <use xlink:href="#DejaVuSans-6e" transform="translate(681.347656 0)"/>
      <use xlink:href="#DejaVuSans-5f" transform="translate(744.726562 0)"/>
      <use xlink:href="#DejaVuSans-63" transform="translate(794.726562 0)"/>
      <use xlink:href="#DejaVuSans-68" transform="translate(849.707031 0)"/>
      <use xlink:href="#DejaVuSans-61" transform="translate(913.085938 0)"/>
      <use xlink:href="#DejaVuSans-6e" transform="translate(974.365234 0)"/>
      <use xlink:href="#DejaVuSans-67" transform="translate(1037.744141 0)"/>
      <use xlink:href="#DejaVuSans-65" transform="translate(1101.220703 0)"/>
      <use xlink:href="#DejaVuSans-20" transform="translate(1162.744141 0)"/>
      <use xlink:href="#DejaVuSans-2b" transform="translate(1194.53125 0)"/>
      <use xlink:href="#DejaVuSans-20" transform="translate(1278.320312 0)"/>
      <use xlink:href="#DejaVuSans-6d" transform="translate(1310.107422 0)"/>
      <use xlink:href="#DejaVuSans-6f" transform="translate(1407.519531 0)"/>
      <use xlink:href="#DejaVuSans-76" transform="translate(1468.701172 0)"/>
      <use xlink:href="#DejaVuSans-65" transform="translate(1527.880859 0)"/>
      <use xlink:href="#DejaVuSans-5f" transform="translate(1589.404297 0)"/>
      <use xlink:href="#DejaVuSans-64" transform="translate(1639.404297 0)"/>
      <use xlink:href="#DejaVuSans-65" transform="translate(1702.880859 0)"/>
      <use xlink:href="#DejaVuSans-73" transform="translate(1764.404297 0)"/>
      <use xlink:href="#DejaVuSans-63" transform="translate(1816.503906 0)"/>
      <use xlink:href="#DejaVuSans-72" transform="translate(1871.484375 0)"/>
      <use xlink:href="#DejaVuSans-69" transform="translate(1912.597656 0)"/>
      <use xlink:href="#DejaVuSans-70" transform="translate(1940.380859 0)"/>
      <use xlink:href="#DejaVuSans-74" transform="translate(2003.857422 0)"/>
      <use xlink:href="#DejaVuSans-69" transform="translate(2043.066406 0)"/>
      <use xlink:href="#DejaVuSans-6f" transform="translate(2070.849609 0)"/>
      <use xlink:href="#DejaVuSans-6e" transform="translate(2132.03125 0)"/>
      <use xlink:href="#DejaVuSans-20" transform="translate(2195.410156 0)"/>
      <use xlink:href="#DejaVuSans-2b" transform="translate(2227.197266 0)"/>
      <use xlink:href="#DejaVuSans-20" transform="translate(2310.986328 0)"/>
      <use xlink:href="#DejaVuSans-61" transform="translate(2342.773438 0)"/>
      <use xlink:href="#DejaVuSans-64" transform="translate(2404.052734 0)"/>
      <use xlink:href="#DejaVuSans-64" transform="translate(2467.529297 0)"/>
      <use xlink:href="#DejaVuSans-5f" transform="translate(2531.005859 0)"/>
      <use xlink:href="#DejaVuSans-63" transform="translate(2581.005859 0)"/>
      <use xlink:href="#DejaVuSans-61" transform="translate(2635.986328 0)"/>
      <use xlink:href="#DejaVuSans-74" transform="translate(2697.265625 0)"/>
      <use xlink:href="#DejaVuSans-65" transform="translate(2736.474609 0)"/>
      <use xlink:href="#DejaVuSans-67" transform="translate(2797.998047 0)"/>
      <use xlink:href="#DejaVuSans-6f" transform="translate(2861.474609 0)"/>
      <use xlink:href="#DejaVuSans-72" transform="translate(2922.65625 0)"/>
      <use xlink:href="#DejaVuSans-79" transform="translate(2963.769531 0)"/>
      <use xlink:href="#DejaVuSans-20" transform="translate(3022.949219 0)"/>
      <use xlink:href="#DejaVuSans-2b" transform="translate(3054.736328 0)"/>
      <use xlink:href="#DejaVuSans-20" transform="translate(3138.525391 0)"/>
      <use xlink:href="#DejaVuSans-72" transform="translate(3170.3125 0)"/>
      <use xlink:href="#DejaVuSans-65" transform="translate(3209.175781 0)"/>
      <use xlink:href="#DejaVuSans-70" transform="translate(3270.699219 0)"/>
      <use xlink:href="#DejaVuSans-6c" transform="translate(3334.175781 0)"/>
      <use xlink:href="#DejaVuSans-61" transform="translate(3361.958984 0)"/>
      <use xlink:href="#DejaVuSans-63" transform="translate(3423.238281 0)"/>
      <use xlink:href="#DejaVuSans-65" transform="translate(3478.21875 0)"/>
      <use xlink:href="#DejaVuSans-5f" transform="translate(3539.742188 0)"/>
      <use xlink:href="#DejaVuSans-73" transform="translate(3589.742188 0)"/>
      <use xlink:href="#DejaVuSans-65" transform="translate(3641.841797 0)"/>
      <use xlink:href="#DejaVuSans-70" transform="translate(3703.365234 0)"/>
      <use xlink:href="#DejaVuSans-61" transform="translate(3766.841797 0)"/>
      <use xlink:href="#DejaVuSans-72" transform="translate(3828.121094 0)"/>
      <use xlink:href="#DejaVuSans-61" transform="translate(3869.234375 0)"/>
      <use xlink:href="#DejaVuSans-74" transform="translate(3930.513672 0)"/>
      <use xlink:href="#DejaVuSans-6f" transform="translate(3969.722656 0)"/>
      <use xlink:href="#DejaVuSans-72" transform="translate(4030.904297 0)"/>
      <use xlink:href="#DejaVuSans-20" transform="translate(4072.017578 0)"/>
      <use xlink:href="#DejaVuSans-2b" transform="translate(4103.804688 0)"/>
      <use xlink:href="#DejaVuSans-20" transform="translate(4187.59375 0)"/>
      <use xlink:href="#DejaVuSans-63" transform="translate(4219.380859 0)"/>
      <use xlink:href="#DejaVuSans-61" transform="translate(4274.361328 0)"/>
      <use xlink:href="#DejaVuSans-74" transform="translate(4335.640625 0)"/>
      <use xlink:href="#DejaVuSans-65" transform="translate(4374.849609 0)"/>
      <use xlink:href="#DejaVuSans-67" transform="translate(4436.373047 0)"/>
      <use xlink:href="#DejaVuSans-6f" transform="translate(4499.849609 0)"/>
      <use xlink:href="#DejaVuSans-72" transform="translate(4561.03125 0)"/>
      <use xlink:href="#DejaVuSans-79" transform="translate(4602.144531 0)"/>
      <use xlink:href="#DejaVuSans-5f" transform="translate(4661.324219 0)"/>
      <use xlink:href="#DejaVuSans-63" transform="translate(4711.324219 0)"/>
      <use xlink:href="#DejaVuSans-6f" transform="translate(4766.304688 0)"/>
      <use xlink:href="#DejaVuSans-6e" transform="translate(4827.486328 0)"/>
      <use xlink:href="#DejaVuSans-73" transform="translate(4890.865234 0)"/>
      <use xlink:href="#DejaVuSans-74" transform="translate(4942.964844 0)"/>
      <use xlink:href="#DejaVuSans-72" transform="translate(4982.173828 0)"/>
      <use xlink:href="#DejaVuSans-61" transform="translate(5023.287109 0)"/>
      <use xlink:href="#DejaVuSans-69" transform="translate(5084.566406 0)"/>
      <use xlink:href="#DejaVuSans-6e" transform="translate(5112.349609 0)"/>
      <use xlink:href="#DejaVuSans-74" transform="translate(5175.728516 0)"/>
      <use xlink:href="#DejaVuSans-73" transform="translate(5214.9375 0)"/>
     </g>
    </g>
   </g>
  </g>
 </g>
 <defs>
  <clipPath id="p108419b5f3">
   <rect x="39.94" y="26.88" width="669.26" height="501.94"/>
  </clipPath>
 </defs>
</svg>
