<?xml version="1.0" encoding="UTF-8"?>
<svg width="760" height="340" viewBox="0 0 760 340" xmlns="http://www.w3.org/2000/svg" xmlns:xlink="http://www.w3.org/1999/xlink" style="color: rgb(31, 41, 55); font-family: Inter, Arial, sans-serif; background-color: rgba(0, 0, 0, 0);"><rect x="0" y="0" width="760" height="340" fill="rgb(255, 255, 255)"/><g transform="translate(0, 0)"><line x1="60" x2="740" y1="245" y2="245" stroke="#64748b66" stroke-width="1"/><text x="52" y="249" text-anchor="end" fill="currentColor" font-size="11">0.00</text><line x1="60" x2="740" y1="199.6" y2="199.6" stroke="#64748b66" stroke-width="1"/><text x="52" y="203.6" text-anchor="end" fill="currentColor" font-size="11">0.14</text><line x1="60" x2="740" y1="154.2" y2="154.2" stroke="#64748b66" stroke-width="1"/><text x="52" y="158.2" text-anchor="end" fill="currentColor" font-size="11">0.28</text><line x1="60" x2="740" y1="108.79999999999998" y2="108.79999999999998" stroke="#64748b66" stroke-width="1"/><text x="52" y="112.79999999999998" text-anchor="end" fill="currentColor" font-size="11">0.43</text><line x1="60" x2="740" y1="63.39999999999998" y2="63.39999999999998" stroke="#64748b66" stroke-width="1"/><text x="52" y="67.39999999999998" text-anchor="end" fill="currentColor" font-size="11">0.57</text><line x1="60" x2="740" y1="18" y2="18" stroke="#64748b66" stroke-width="1"/><text x="52" y="22" text-anchor="end" fill="currentColor" font-size="11">0.71</text><rect x="327" y="30.224796627026052" width="26" height="214.77520337297395" fill="#60a5fa" style="cursor: crosshair;"/><line x1="340" x2="340" y1="28.25035566823081" y2="32.19923758582132" stroke="currentColor" stroke-opacity="0.78" stroke-width="2"/><line x1="335" x2="345" y1="28.25035566823081" y2="28.25035566823081" stroke="currentColor" stroke-opacity="0.78" stroke-width="2"/><line x1="335" x2="345" y1="32.19923758582132" y2="32.19923758582132" stroke="currentColor" stroke-opacity="0.78" stroke-width="2"/><rect x="357" y="19.116180982734562" width="26" height="225.88381901726544" fill="#f97316" style="cursor: crosshair;"/><line x1="370" x2="370" y1="18" y2="20.232361965469124" stroke="currentColor" stroke-opacity="0.78" stroke-width="2"/><line x1="365" x2="375" y1="18" y2="18" stroke="currentColor" stroke-opacity="0.78" stroke-width="2"/><line x1="365" x2="375" y1="20.232361965469124" y2="20.232361965469124" stroke="currentColor" stroke-opacity="0.78" stroke-width="2"/><rect x="387" y="64.91008622532416" width="26" height="180.08991377467584" fill="#22c55e" style="cursor: crosshair;"/><line x1="400" x2="400" y1="64.2676002257781" y2="65.5525722248702" stroke="currentColor" stroke-opacity="0.78" stroke-width="2"/><line x1="395" x2="405" y1="64.2676002257781" y2="64.2676002257781" stroke="currentColor" stroke-opacity="0.78" stroke-width="2"/><line x1="395" x2="405" y1="65.5525722248702" y2="65.5525722248702" stroke="currentColor" stroke-opacity="0.78" stroke-width="2"/><rect x="417" y="23.217653251802034" width="26" height="221.78234674819797" fill="#a78bfa" style="cursor: crosshair;"/><line x1="430" x2="430" y1="19.92429079417633" y2="26.511015709427767" stroke="currentColor" stroke-opacity="0.78" stroke-width="2"/><line x1="425" x2="435" y1="19.92429079417633" y2="19.92429079417633" stroke="currentColor" stroke-opacity="0.78" stroke-width="2"/><line x1="425" x2="435" y1="26.511015709427767" y2="26.511015709427767" stroke="currentColor" stroke-opacity="0.78" stroke-width="2"/><rect x="447" y="33.800770402576916" width="26" height="211.19922959742308" fill="#f43f5e" style="cursor: crosshair;"/><line x1="460" x2="460" y1="33.800770402576916" y2="33.800770402576916" stroke="currentColor" stroke-opacity="0.78" stroke-width="2"/><line x1="455" x2="465" y1="33.800770402576916" y2="33.800770402576916" stroke="currentColor" stroke-opacity="0.78" stroke-width="2"/><line x1="455" x2="465" y1="33.800770402576916" y2="33.800770402576916" stroke="currentColor" stroke-opacity="0.78" stroke-width="2"/><text x="400" y="261" transform="rotate(-28 400 261)" text-anchor="end" fill="currentColor" font-size="11">all</text></g></svg>