<?xml version="1.0" encoding="UTF-8"?>
<svg width="795" height="378" viewBox="0 0 795 378" xmlns="http://www.w3.org/2000/svg" xmlns:xlink="http://www.w3.org/1999/xlink" style="color: rgb(229, 231, 235); font-family: Inter, Arial, sans-serif; background-color: rgba(0, 0, 0, 0);"><rect x="0" y="0" width="795" height="378" fill="rgb(17, 24, 39)"/><g transform="translate(34.23240661621094, 0)"><line x1="60" x2="740" y1="245" y2="245" stroke="#64748b66" stroke-width="1"/><text x="52" y="249" text-anchor="end" fill="currentColor" font-size="11">0.00</text><line x1="60" x2="740" y1="199.6" y2="199.6" stroke="#64748b66" stroke-width="1"/><text x="52" y="203.6" text-anchor="end" fill="currentColor" font-size="11">29.26</text><line x1="60" x2="740" y1="154.2" y2="154.2" stroke="#64748b66" stroke-width="1"/><text x="52" y="158.2" text-anchor="end" fill="currentColor" font-size="11">58.51</text><line x1="60" x2="740" y1="108.80000000000001" y2="108.80000000000001" stroke="#64748b66" stroke-width="1"/><text x="52" y="112.80000000000001" text-anchor="end" fill="currentColor" font-size="11">87.77</text><line x1="60" x2="740" y1="63.400000000000006" y2="63.400000000000006" stroke="#64748b66" stroke-width="1"/><text x="52" y="67.4" text-anchor="end" fill="currentColor" font-size="11">117.02</text><line x1="60" x2="740" y1="18" y2="18" stroke="#64748b66" stroke-width="1"/><text x="52" y="22" text-anchor="end" fill="currentColor" font-size="11">146.28</text><rect x="117" y="58.77687736540054" width="26" height="186.22312263459946" fill="#60a5fa" style="cursor: crosshair;"/><line x1="130" x2="130" y1="54.975613792379676" y2="62.5781409384214" stroke="currentColor" stroke-opacity="0.78" stroke-width="2"/><line x1="125" x2="135" y1="54.975613792379676" y2="54.975613792379676" stroke="currentColor" stroke-opacity="0.78" stroke-width="2"/><line x1="125" x2="135" y1="62.5781409384214" y2="62.5781409384214" stroke="currentColor" stroke-opacity="0.78" stroke-width="2"/><rect x="147" y="41.189138005466134" width="26" height="203.81086199453387" fill="#f97316" style="cursor: crosshair;"/><line x1="160" x2="160" y1="36.39202079892951" y2="45.98625521200276" stroke="currentColor" stroke-opacity="0.78" stroke-width="2"/><line x1="155" x2="165" y1="36.39202079892951" y2="36.39202079892951" stroke="currentColor" stroke-opacity="0.78" stroke-width="2"/><line x1="155" x2="165" y1="45.98625521200276" y2="45.98625521200276" stroke="currentColor" stroke-opacity="0.78" stroke-width="2"/><text x="145" y="261" transform="rotate(-28 145 261)" text-anchor="end" fill="currentColor" font-size="11">extractor/llm=gpt_oss_20b_in_process</text><rect x="287" y="57.742304461874966" width="26" height="187.25769553812503" fill="#60a5fa" style="cursor: crosshair;"/><line x1="300" x2="300" y1="54.55353661508238" y2="60.93107230866758" stroke="currentColor" stroke-opacity="0.78" stroke-width="2"/><line x1="295" x2="305" y1="54.55353661508238" y2="54.55353661508238" stroke="currentColor" stroke-opacity="0.78" stroke-width="2"/><line x1="295" x2="305" y1="60.93107230866758" y2="60.93107230866758" stroke="currentColor" stroke-opacity="0.78" stroke-width="2"/><rect x="317" y="37.56813284312673" width="26" height="207.43186715687327" fill="#f97316" style="cursor: crosshair;"/><line x1="330" x2="330" y1="33.910365264552865" y2="41.2259004217006" stroke="currentColor" stroke-opacity="0.78" stroke-width="2"/><line x1="325" x2="335" y1="33.910365264552865" y2="33.910365264552865" stroke="currentColor" stroke-opacity="0.78" stroke-width="2"/><line x1="325" x2="335" y1="41.2259004217006" y2="41.2259004217006" stroke="currentColor" stroke-opacity="0.78" stroke-width="2"/><text x="315" y="261" transform="rotate(-28 315 261)" text-anchor="end" fill="currentColor" font-size="11">extractor/llm=qwen3_30b_in_process</text><rect x="457" y="69.12260640065605" width="26" height="175.87739359934395" fill="#60a5fa" style="cursor: crosshair;"/><line x1="470" x2="470" y1="63.847298977344934" y2="74.39791382396723" stroke="currentColor" stroke-opacity="0.78" stroke-width="2"/><line x1="465" x2="475" y1="63.847298977344934" y2="63.847298977344934" stroke="currentColor" stroke-opacity="0.78" stroke-width="2"/><line x1="465" x2="475" y1="74.39791382396723" y2="74.39791382396723" stroke="currentColor" stroke-opacity="0.78" stroke-width="2"/><rect x="487" y="19.46310703142953" width="26" height="225.53689296857047" fill="#f97316" style="cursor: crosshair;"/><line x1="500" x2="500" y1="18" y2="20.92621406285906" stroke="currentColor" stroke-opacity="0.78" stroke-width="2"/><line x1="495" x2="505" y1="18" y2="18" stroke="currentColor" stroke-opacity="0.78" stroke-width="2"/><line x1="495" x2="505" y1="20.92621406285906" y2="20.92621406285906" stroke="currentColor" stroke-opacity="0.78" stroke-width="2"/><text x="485" y="261" transform="rotate(-28 485 261)" text-anchor="end" fill="currentColor" font-size="11">extractor/llm=mistral_small_3_24b_in_process</text><rect x="627" y="81.02019479119991" width="26" height="163.9798052088001" fill="#60a5fa" style="cursor: crosshair;"/><line x1="640" x2="640" y1="70.46957994457765" y2="91.57080963782218" stroke="currentColor" stroke-opacity="0.78" stroke-width="2"/><line x1="635" x2="645" y1="70.46957994457765" y2="70.46957994457765" stroke="currentColor" stroke-opacity="0.78" stroke-width="2"/><line x1="635" x2="645" y1="91.57080963782218" y2="91.57080963782218" stroke="currentColor" stroke-opacity="0.78" stroke-width="2"/><rect x="657" y="21.014966386717873" width="26" height="223.98503361328213" fill="#f97316" style="cursor: crosshair;"/><line x1="670" x2="670" y1="19.079457713401553" y2="22.950475060034137" stroke="currentColor" stroke-opacity="0.78" stroke-width="2"/><line x1="665" x2="675" y1="19.079457713401553" y2="19.079457713401553" stroke="currentColor" stroke-opacity="0.78" stroke-width="2"/><line x1="665" x2="675" y1="22.950475060034137" y2="22.950475060034137" stroke="currentColor" stroke-opacity="0.78" stroke-width="2"/><text x="655" y="261" transform="rotate(-28 655 261)" text-anchor="end" fill="currentColor" font-size="11">extractor/llm=gemma3_27b_in_process</text></g></svg>