<?xml version="1.0" encoding="UTF-8"?>
<svg width="760" height="340" viewBox="0 0 760 340" xmlns="http://www.w3.org/2000/svg" xmlns:xlink="http://www.w3.org/1999/xlink" style="color: rgb(229, 231, 235); font-family: Inter, Arial, sans-serif; background-color: rgba(0, 0, 0, 0);"><rect x="0" y="0" width="760" height="340" fill="rgb(17, 24, 39)"/><g transform="translate(0, 0)"><line x1="60" x2="740" y1="245" y2="245" stroke="#64748b66" stroke-width="1"/><text x="52" y="249" text-anchor="end" fill="currentColor" font-size="11">0.00</text><line x1="60" x2="740" y1="199.6" y2="199.6" stroke="#64748b66" stroke-width="1"/><text x="52" y="203.6" text-anchor="end" fill="currentColor" font-size="11">0.10</text><line x1="60" x2="740" y1="154.2" y2="154.2" stroke="#64748b66" stroke-width="1"/><text x="52" y="158.2" text-anchor="end" fill="currentColor" font-size="11">0.20</text><line x1="60" x2="740" y1="108.80000000000001" y2="108.80000000000001" stroke="#64748b66" stroke-width="1"/><text x="52" y="112.80000000000001" text-anchor="end" fill="currentColor" font-size="11">0.29</text><line x1="60" x2="740" y1="63.400000000000006" y2="63.400000000000006" stroke="#64748b66" stroke-width="1"/><text x="52" y="67.4" text-anchor="end" fill="currentColor" font-size="11">0.39</text><line x1="60" x2="740" y1="18" y2="18" stroke="#64748b66" stroke-width="1"/><text x="52" y="22" text-anchor="end" fill="currentColor" font-size="11">0.49</text><rect x="342" y="25.435653643651705" width="26" height="219.5643463563483" fill="#60a5fa" style="cursor: crosshair;"/><line x1="355" x2="355" y1="18" y2="32.87130728730344" stroke="currentColor" stroke-opacity="0.78" stroke-width="2"/><line x1="350" x2="360" y1="18" y2="18" stroke="currentColor" stroke-opacity="0.78" stroke-width="2"/><line x1="350" x2="360" y1="32.87130728730344" y2="32.87130728730344" stroke="currentColor" stroke-opacity="0.78" stroke-width="2"/><rect x="372" y="47.67103523792892" width="26" height="197.32896476207108" fill="#f97316" style="cursor: crosshair;"/><line x1="385" x2="385" y1="34.3686824584712" y2="60.97338801738664" stroke="currentColor" stroke-opacity="0.78" stroke-width="2"/><line x1="380" x2="390" y1="34.3686824584712" y2="34.3686824584712" stroke="currentColor" stroke-opacity="0.78" stroke-width="2"/><line x1="380" x2="390" y1="60.97338801738664" y2="60.97338801738664" stroke="currentColor" stroke-opacity="0.78" stroke-width="2"/><rect x="402" y="122.67858870345192" width="26" height="122.32141129654808" fill="#22c55e" style="cursor: crosshair;"/><line x1="415" x2="415" y1="113.3538666303653" y2="132.00331077653857" stroke="currentColor" stroke-opacity="0.78" stroke-width="2"/><line x1="410" x2="420" y1="113.3538666303653" y2="113.3538666303653" stroke="currentColor" stroke-opacity="0.78" stroke-width="2"/><line x1="410" x2="420" y1="132.00331077653857" y2="132.00331077653857" stroke="currentColor" stroke-opacity="0.78" stroke-width="2"/><rect x="432" y="82.4545046752884" width="26" height="162.5454953247116" fill="#a78bfa" style="cursor: crosshair;"/><line x1="445" x2="445" y1="77.85609594454064" y2="87.05291340603617" stroke="currentColor" stroke-opacity="0.78" stroke-width="2"/><line x1="440" x2="450" y1="77.85609594454064" y2="77.85609594454064" stroke="currentColor" stroke-opacity="0.78" stroke-width="2"/><line x1="440" x2="450" y1="87.05291340603617" y2="87.05291340603617" stroke="currentColor" stroke-opacity="0.78" stroke-width="2"/><text x="400" y="261" transform="rotate(-28 400 261)" text-anchor="end" fill="currentColor" font-size="11">all</text></g></svg>