<?xml version="1.0" encoding="UTF-8"?>
<svg width="760" height="340" viewBox="0 0 760 340" xmlns="http://www.w3.org/2000/svg" xmlns:xlink="http://www.w3.org/1999/xlink" style="color: rgb(229, 231, 235); font-family: Inter, Arial, sans-serif; background-color: rgba(0, 0, 0, 0);"><rect x="0" y="0" width="760" height="340" fill="rgb(17, 24, 39)"/><g transform="translate(0, 0)"><line x1="60" x2="740" y1="245" y2="245" stroke="#64748b66" stroke-width="1"/><text x="52" y="249" text-anchor="end" fill="currentColor" font-size="11">0.00</text><line x1="60" x2="740" y1="199.6" y2="199.6" stroke="#64748b66" stroke-width="1"/><text x="52" y="203.6" text-anchor="end" fill="currentColor" font-size="11">24.54</text><line x1="60" x2="740" y1="154.2" y2="154.2" stroke="#64748b66" stroke-width="1"/><text x="52" y="158.2" text-anchor="end" fill="currentColor" font-size="11">49.09</text><line x1="60" x2="740" y1="108.79999999999998" y2="108.79999999999998" stroke="#64748b66" stroke-width="1"/><text x="52" y="112.79999999999998" text-anchor="end" fill="currentColor" font-size="11">73.63</text><line x1="60" x2="740" y1="63.39999999999998" y2="63.39999999999998" stroke="#64748b66" stroke-width="1"/><text x="52" y="67.39999999999998" text-anchor="end" fill="currentColor" font-size="11">98.18</text><line x1="60" x2="740" y1="18" y2="18" stroke="#64748b66" stroke-width="1"/><text x="52" y="22" text-anchor="end" fill="currentColor" font-size="11">122.72</text><rect x="342" y="23.033951974128115" width="26" height="221.96604802587188" fill="#60a5fa" style="cursor: crosshair;"/><line x1="355" x2="355" y1="18.503088991749024" y2="27.564814956507206" stroke="currentColor" stroke-opacity="0.78" stroke-width="2"/><line x1="350" x2="360" y1="18.503088991749024" y2="18.503088991749024" stroke="currentColor" stroke-opacity="0.78" stroke-width="2"/><line x1="350" x2="360" y1="27.564814956507206" y2="27.564814956507206" stroke="currentColor" stroke-opacity="0.78" stroke-width="2"/><rect x="372" y="21.800807262873263" width="26" height="223.19919273712674" fill="#f97316" style="cursor: crosshair;"/><line x1="385" x2="385" y1="18" y2="25.6016145257465" stroke="currentColor" stroke-opacity="0.78" stroke-width="2"/><line x1="380" x2="390" y1="18" y2="18" stroke="currentColor" stroke-opacity="0.78" stroke-width="2"/><line x1="380" x2="390" y1="25.6016145257465" y2="25.6016145257465" stroke="currentColor" stroke-opacity="0.78" stroke-width="2"/><rect x="402" y="35.36539908667655" width="26" height="209.63460091332345" fill="#22c55e" style="cursor: crosshair;"/><line x1="415" x2="415" y1="29.077570140904385" y2="41.65322803244874" stroke="currentColor" stroke-opacity="0.78" stroke-width="2"/><line x1="410" x2="420" y1="29.077570140904385" y2="29.077570140904385" stroke="currentColor" stroke-opacity="0.78" stroke-width="2"/><line x1="410" x2="420" y1="41.65322803244874" y2="41.65322803244874" stroke="currentColor" stroke-opacity="0.78" stroke-width="2"/><rect x="432" y="49.54656326610723" width="26" height="195.45343673389277" fill="#a78bfa" style="cursor: crosshair;"/><line x1="445" x2="445" y1="36.97090537456285" y2="62.12222115765161" stroke="currentColor" stroke-opacity="0.78" stroke-width="2"/><line x1="440" x2="450" y1="36.97090537456285" y2="36.97090537456285" stroke="currentColor" stroke-opacity="0.78" stroke-width="2"/><line x1="440" x2="450" y1="62.12222115765161" y2="62.12222115765161" stroke="currentColor" stroke-opacity="0.78" stroke-width="2"/><text x="400" y="261" transform="rotate(-28 400 261)" text-anchor="end" fill="currentColor" font-size="11">all</text></g></svg>