<?xml version="1.0" encoding="UTF-8"?>
<svg width="760" height="340" viewBox="0 0 760 340" xmlns="http://www.w3.org/2000/svg" xmlns:xlink="http://www.w3.org/1999/xlink" style="color: rgb(229, 231, 235); font-family: Inter, Arial, sans-serif; background-color: rgba(0, 0, 0, 0);"><rect x="0" y="0" width="760" height="340" fill="rgb(17, 24, 39)"/><g transform="translate(0, 0)"><line x1="60" x2="740" y1="245" y2="245" stroke="#64748b66" stroke-width="1"/><text x="52" y="249" text-anchor="end" fill="currentColor" font-size="11">0.00</text><line x1="60" x2="740" y1="199.6" y2="199.6" stroke="#64748b66" stroke-width="1"/><text x="52" y="203.6" text-anchor="end" fill="currentColor" font-size="11">0.08</text><line x1="60" x2="740" y1="154.2" y2="154.2" stroke="#64748b66" stroke-width="1"/><text x="52" y="158.2" text-anchor="end" fill="currentColor" font-size="11">0.16</text><line x1="60" x2="740" y1="108.80000000000001" y2="108.80000000000001" stroke="#64748b66" stroke-width="1"/><text x="52" y="112.80000000000001" text-anchor="end" fill="currentColor" font-size="11">0.23</text><line x1="60" x2="740" y1="63.39999999999998" y2="63.39999999999998" stroke="#64748b66" stroke-width="1"/><text x="52" y="67.39999999999998" text-anchor="end" fill="currentColor" font-size="11">0.31</text><line x1="60" x2="740" y1="18" y2="18" stroke="#64748b66" stroke-width="1"/><text x="52" y="22" text-anchor="end" fill="currentColor" font-size="11">0.39</text><rect x="342" y="20.998305211747947" width="26" height="224.00169478825205" fill="#60a5fa" style="cursor: crosshair;"/><line x1="355" x2="355" y1="18" y2="23.996610423495895" stroke="currentColor" stroke-opacity="0.78" stroke-width="2"/><line x1="350" x2="360" y1="18" y2="18" stroke="currentColor" stroke-opacity="0.78" stroke-width="2"/><line x1="350" x2="360" y1="23.996610423495895" y2="23.996610423495895" stroke="currentColor" stroke-opacity="0.78" stroke-width="2"/><rect x="372" y="72.40853024511725" width="26" height="172.59146975488275" fill="#f97316" style="cursor: crosshair;"/><line x1="385" x2="385" y1="59.3392208252167" y2="85.47783966501783" stroke="currentColor" stroke-opacity="0.78" stroke-width="2"/><line x1="380" x2="390" y1="59.3392208252167" y2="59.3392208252167" stroke="currentColor" stroke-opacity="0.78" stroke-width="2"/><line x1="380" x2="390" y1="85.47783966501783" y2="85.47783966501783" stroke="currentColor" stroke-opacity="0.78" stroke-width="2"/><rect x="402" y="121.3706493245166" width="26" height="123.6293506754834" fill="#22c55e" style="cursor: crosshair;"/><line x1="415" x2="415" y1="111.73244654552923" y2="131.00885210350395" stroke="currentColor" stroke-opacity="0.78" stroke-width="2"/><line x1="410" x2="420" y1="111.73244654552923" y2="111.73244654552923" stroke="currentColor" stroke-opacity="0.78" stroke-width="2"/><line x1="410" x2="420" y1="131.00885210350395" y2="131.00885210350395" stroke="currentColor" stroke-opacity="0.78" stroke-width="2"/><rect x="432" y="91.99337787687699" width="26" height="153.006622123123" fill="#a78bfa" style="cursor: crosshair;"/><line x1="445" x2="445" y1="82.35517509788963" y2="101.63158065586435" stroke="currentColor" stroke-opacity="0.78" stroke-width="2"/><line x1="440" x2="450" y1="82.35517509788963" y2="82.35517509788963" stroke="currentColor" stroke-opacity="0.78" stroke-width="2"/><line x1="440" x2="450" y1="101.63158065586435" y2="101.63158065586435" stroke="currentColor" stroke-opacity="0.78" stroke-width="2"/><text x="400" y="261" transform="rotate(-28 400 261)" text-anchor="end" fill="currentColor" font-size="11">all</text></g></svg>