<?xml version="1.0" encoding="UTF-8"?>
<svg width="760" height="340" viewBox="0 0 760 340" xmlns="http://www.w3.org/2000/svg" xmlns:xlink="http://www.w3.org/1999/xlink" style="color: rgb(229, 231, 235); font-family: Inter, Arial, sans-serif; background-color: rgba(0, 0, 0, 0);"><rect x="0" y="0" width="760" height="340" fill="rgb(17, 24, 39)"/><g transform="translate(0, 0)"><line x1="60" x2="740" y1="245" y2="245" stroke="#64748b66" stroke-width="1"/><text x="52" y="249" text-anchor="end" fill="currentColor" font-size="11">0.00</text><line x1="60" x2="740" y1="199.6" y2="199.6" stroke="#64748b66" stroke-width="1"/><text x="52" y="203.6" text-anchor="end" fill="currentColor" font-size="11">0.15</text><line x1="60" x2="740" y1="154.2" y2="154.2" stroke="#64748b66" stroke-width="1"/><text x="52" y="158.2" text-anchor="end" fill="currentColor" font-size="11">0.29</text><line x1="60" x2="740" y1="108.80000000000001" y2="108.80000000000001" stroke="#64748b66" stroke-width="1"/><text x="52" y="112.80000000000001" text-anchor="end" fill="currentColor" font-size="11">0.44</text><line x1="60" x2="740" y1="63.400000000000006" y2="63.400000000000006" stroke="#64748b66" stroke-width="1"/><text x="52" y="67.4" text-anchor="end" fill="currentColor" font-size="11">0.58</text><line x1="60" x2="740" y1="18" y2="18" stroke="#64748b66" stroke-width="1"/><text x="52" y="22" text-anchor="end" fill="currentColor" font-size="11">0.73</text><rect x="342" y="20.78924041730565" width="26" height="224.21075958269435" fill="#60a5fa" style="cursor: crosshair;"/><line x1="355" x2="355" y1="18" y2="23.57848083461127" stroke="currentColor" stroke-opacity="0.78" stroke-width="2"/><line x1="350" x2="360" y1="18" y2="18" stroke="currentColor" stroke-opacity="0.78" stroke-width="2"/><line x1="350" x2="360" y1="23.57848083461127" y2="23.57848083461127" stroke="currentColor" stroke-opacity="0.78" stroke-width="2"/><rect x="372" y="34.31156193479927" width="26" height="210.68843806520073" fill="#f97316" style="cursor: crosshair;"/><line x1="385" x2="385" y1="23.751139943608706" y2="44.87198392598984" stroke="currentColor" stroke-opacity="0.78" stroke-width="2"/><line x1="380" x2="390" y1="23.751139943608706" y2="23.751139943608706" stroke="currentColor" stroke-opacity="0.78" stroke-width="2"/><line x1="380" x2="390" y1="44.87198392598984" y2="44.87198392598984" stroke="currentColor" stroke-opacity="0.78" stroke-width="2"/><rect x="402" y="96.47726572480462" width="26" height="148.52273427519538" fill="#22c55e" style="cursor: crosshair;"/><line x1="415" x2="415" y1="94.28777619766109" y2="98.66675525194813" stroke="currentColor" stroke-opacity="0.78" stroke-width="2"/><line x1="410" x2="420" y1="94.28777619766109" y2="94.28777619766109" stroke="currentColor" stroke-opacity="0.78" stroke-width="2"/><line x1="410" x2="420" y1="98.66675525194813" y2="98.66675525194813" stroke="currentColor" stroke-opacity="0.78" stroke-width="2"/><rect x="432" y="39.755615431698544" width="26" height="205.24438456830146" fill="#a78bfa" style="cursor: crosshair;"/><line x1="445" x2="445" y1="24.448781393148778" y2="55.06244947024834" stroke="currentColor" stroke-opacity="0.78" stroke-width="2"/><line x1="440" x2="450" y1="24.448781393148778" y2="24.448781393148778" stroke="currentColor" stroke-opacity="0.78" stroke-width="2"/><line x1="440" x2="450" y1="55.06244947024834" y2="55.06244947024834" stroke="currentColor" stroke-opacity="0.78" stroke-width="2"/><text x="400" y="261" transform="rotate(-28 400 261)" text-anchor="end" fill="currentColor" font-size="11">all</text></g></svg>