<?xml version="1.0" encoding="UTF-8"?>
<svg width="2220" height="822" viewBox="0 0 2220 822" xmlns="http://www.w3.org/2000/svg" xmlns:xlink="http://www.w3.org/1999/xlink" style="color: rgb(229, 231, 235); font-family: Inter, Arial, sans-serif; background-color: rgba(0, 0, 0, 0);"><rect x="0" y="0" width="2220" height="822" fill="rgb(17, 24, 39)"/><text x="1240" y="20" text-anchor="middle" fill="currentColor" font-size="13">Predicted label</text><text x="20" y="466" transform="rotate(-90 20 466)" text-anchor="middle" fill="currentColor" font-size="13">Actual label</text><text x="270" y="182" text-anchor="end" fill="currentColor" font-size="11">Benthal der Nordsee</text><text x="270" y="278" text-anchor="end" fill="currentColor" font-size="11">Fließende Gewässer</text><text x="270" y="374" text-anchor="end" fill="currentColor" font-size="11">Pelagial der Nordsee</text><text x="270" y="470" text-anchor="end" fill="currentColor" font-size="11">Pelagial der Ostsee</text><text x="270" y="566" text-anchor="end" fill="currentColor" font-size="11">Stehende Gewässer</text><text x="270" y="662" text-anchor="end" fill="currentColor" font-size="11">Waldfreie Niedermoore und Sümpfe, Grünland nasser bis feuchter Standorte</text><text x="270" y="758" text-anchor="end" fill="currentColor" font-size="11">UNASSIGNABLE</text><rect x="280" y="130" width="96" height="96" fill="rgb(247, 251, 255)" stroke="#33415555" stroke-width="1" style="cursor: crosshair;"/><text x="328" y="182" text-anchor="middle" fill="#0f172a" font-size="11">0±0</text><rect x="376" y="130" width="96" height="96" fill="rgb(245, 249, 253)" stroke="#33415555" stroke-width="1" style="cursor: crosshair;"/><text x="424" y="182" text-anchor="middle" fill="#0f172a" font-size="11">0±0</text><rect x="472" y="130" width="96" height="96" fill="rgb(242, 247, 252)" stroke="#33415555" stroke-width="1" style="cursor: crosshair;"/><text x="520" y="182" text-anchor="middle" fill="#0f172a" font-size="11">0±0</text><rect x="568" y="130" width="96" height="96" fill="rgb(211, 220, 232)" stroke="#33415555" stroke-width="1" style="cursor: crosshair;"/><text x="616" y="182" text-anchor="middle" fill="#0f172a" font-size="11">2±0</text><rect x="664" y="130" width="96" height="96" fill="rgb(247, 251, 255)" stroke="#33415555" stroke-width="1" style="cursor: crosshair;"/><text x="712" y="182" text-anchor="middle" fill="#0f172a" font-size="11">0±0</text><rect x="760" y="130" width="96" height="96" fill="rgb(247, 251, 255)" stroke="#33415555" stroke-width="1" style="cursor: crosshair;"/><text x="808" y="182" text-anchor="middle" fill="#0f172a" font-size="11">0±0</text><rect x="856" y="130" width="96" height="96" fill="rgb(247, 251, 255)" stroke="#33415555" stroke-width="1" style="cursor: crosshair;"/><text x="904" y="182" text-anchor="middle" fill="#0f172a" font-size="11">0±0</text><rect x="952" y="130" width="96" height="96" fill="rgb(245, 250, 254)" stroke="#33415555" stroke-width="1" style="cursor: crosshair;"/><text x="1000" y="182" text-anchor="middle" fill="#0f172a" font-size="11">0±0</text><rect x="1048" y="130" width="96" height="96" fill="rgb(247, 251, 255)" stroke="#33415555" stroke-width="1" style="cursor: crosshair;"/><text x="1096" y="182" text-anchor="middle" fill="#0f172a" font-size="11">0±0</text><rect x="1144" y="130" width="96" height="96" fill="rgb(245, 249, 253)" stroke="#33415555" stroke-width="1" style="cursor: crosshair;"/><text x="1192" y="182" text-anchor="middle" fill="#0f172a" font-size="11">0±0</text><rect x="1240" y="130" width="96" height="96" fill="rgb(247, 251, 255)" stroke="#33415555" stroke-width="1" style="cursor: crosshair;"/><text x="1288" y="182" text-anchor="middle" fill="#0f172a" font-size="11">0±0</text><rect x="1336" y="130" width="96" height="96" fill="rgb(247, 251, 255)" stroke="#33415555" stroke-width="1" style="cursor: crosshair;"/><text x="1384" y="182" text-anchor="middle" fill="#0f172a" font-size="11">0±0</text><rect x="1432" y="130" width="96" height="96" fill="rgb(247, 251, 255)" stroke="#33415555" stroke-width="1" style="cursor: crosshair;"/><text x="1480" y="182" text-anchor="middle" fill="#0f172a" font-size="11">0±0</text><rect x="1528" y="130" width="96" height="96" fill="rgb(247, 251, 255)" stroke="#33415555" stroke-width="1" style="cursor: crosshair;"/><text x="1576" y="182" text-anchor="middle" fill="#0f172a" font-size="11">0±0</text><rect x="1624" y="130" width="96" height="96" fill="rgb(242, 247, 252)" stroke="#33415555" stroke-width="1" style="cursor: crosshair;"/><text x="1672" y="182" text-anchor="middle" fill="#0f172a" font-size="11">0±0</text><rect x="1720" y="130" width="96" height="96" fill="rgb(247, 251, 255)" stroke="#33415555" stroke-width="1" style="cursor: crosshair;"/><text x="1768" y="182" text-anchor="middle" fill="#0f172a" font-size="11">0±0</text><rect x="1816" y="130" width="96" height="96" fill="rgb(238, 244, 250)" stroke="#33415555" stroke-width="1" style="cursor: crosshair;"/><text x="1864" y="182" text-anchor="middle" fill="#0f172a" font-size="11">1±0</text><rect x="1912" y="130" width="96" height="96" fill="rgb(243, 247, 252)" stroke="#33415555" stroke-width="1" style="cursor: crosshair;"/><text x="1960" y="182" text-anchor="middle" fill="#0f172a" font-size="11">0±0</text><rect x="2008" y="130" width="96" height="96" fill="rgb(246, 250, 255)" stroke="#33415555" stroke-width="1" style="cursor: crosshair;"/><text x="2056" y="182" text-anchor="middle" fill="#0f172a" font-size="11">0±0</text><rect x="2104" y="130" width="96" height="96" fill="rgb(177, 192, 212)" stroke="#33415555" stroke-width="1" style="cursor: crosshair;"/><text x="2152" y="182" text-anchor="middle" fill="#0f172a" font-size="11">4±0</text><rect x="280" y="226" width="96" height="96" fill="rgb(239, 244, 250)" stroke="#33415555" stroke-width="1" style="cursor: crosshair;"/><text x="328" y="278" text-anchor="middle" fill="#0f172a" font-size="11">1±0</text><rect x="376" y="226" width="96" height="96" fill="rgb(233, 239, 246)" stroke="#33415555" stroke-width="1" style="cursor: crosshair;"/><text x="424" y="278" text-anchor="middle" fill="#0f172a" font-size="11">1±0</text><rect x="472" y="226" width="96" height="96" fill="rgb(247, 251, 255)" stroke="#33415555" stroke-width="1" style="cursor: crosshair;"/><text x="520" y="278" text-anchor="middle" fill="#0f172a" font-size="11">0±0</text><rect x="568" y="226" width="96" height="96" fill="rgb(247, 251, 255)" stroke="#33415555" stroke-width="1" style="cursor: crosshair;"/><text x="616" y="278" text-anchor="middle" fill="#0f172a" font-size="11">0±0</text><rect x="664" y="226" width="96" height="96" fill="rgb(247, 251, 255)" stroke="#33415555" stroke-width="1" style="cursor: crosshair;"/><text x="712" y="278" text-anchor="middle" fill="#0f172a" font-size="11">0±0</text><rect x="760" y="226" width="96" height="96" fill="rgb(247, 251, 255)" stroke="#33415555" stroke-width="1" style="cursor: crosshair;"/><text x="808" y="278" text-anchor="middle" fill="#0f172a" font-size="11">0±0</text><rect x="856" y="226" width="96" height="96" fill="rgb(164, 180, 204)" stroke="#33415555" stroke-width="1" style="cursor: crosshair;"/><text x="904" y="278" text-anchor="middle" fill="#0f172a" font-size="11">5±1</text><rect x="952" y="226" width="96" height="96" fill="rgb(238, 244, 250)" stroke="#33415555" stroke-width="1" style="cursor: crosshair;"/><text x="1000" y="278" text-anchor="middle" fill="#0f172a" font-size="11">1±1</text><rect x="1048" y="226" width="96" height="96" fill="rgb(246, 250, 254)" stroke="#33415555" stroke-width="1" style="cursor: crosshair;"/><text x="1096" y="278" text-anchor="middle" fill="#0f172a" font-size="11">0±0</text><rect x="1144" y="226" width="96" height="96" fill="rgb(243, 248, 253)" stroke="#33415555" stroke-width="1" style="cursor: crosshair;"/><text x="1192" y="278" text-anchor="middle" fill="#0f172a" font-size="11">0±0</text><rect x="1240" y="226" width="96" height="96" fill="rgb(238, 244, 250)" stroke="#33415555" stroke-width="1" style="cursor: crosshair;"/><text x="1288" y="278" text-anchor="middle" fill="#0f172a" font-size="11">1±0</text><rect x="1336" y="226" width="96" height="96" fill="rgb(244, 249, 253)" stroke="#33415555" stroke-width="1" style="cursor: crosshair;"/><text x="1384" y="278" text-anchor="middle" fill="#0f172a" font-size="11">0±0</text><rect x="1432" y="226" width="96" height="96" fill="rgb(247, 251, 255)" stroke="#33415555" stroke-width="1" style="cursor: crosshair;"/><text x="1480" y="278" text-anchor="middle" fill="#0f172a" font-size="11">0±0</text><rect x="1528" y="226" width="96" height="96" fill="rgb(247, 251, 255)" stroke="#33415555" stroke-width="1" style="cursor: crosshair;"/><text x="1576" y="278" text-anchor="middle" fill="#0f172a" font-size="11">0±0</text><rect x="1624" y="226" width="96" height="96" fill="rgb(244, 249, 253)" stroke="#33415555" stroke-width="1" style="cursor: crosshair;"/><text x="1672" y="278" text-anchor="middle" fill="#0f172a" font-size="11">0±0</text><rect x="1720" y="226" width="96" height="96" fill="rgb(231, 238, 245)" stroke="#33415555" stroke-width="1" style="cursor: crosshair;"/><text x="1768" y="278" text-anchor="middle" fill="#0f172a" font-size="11">1±0</text><rect x="1816" y="226" width="96" height="96" fill="rgb(247, 251, 255)" stroke="#33415555" stroke-width="1" style="cursor: crosshair;"/><text x="1864" y="278" text-anchor="middle" fill="#0f172a" font-size="11">0±0</text><rect x="1912" y="226" width="96" height="96" fill="rgb(235, 241, 247)" stroke="#33415555" stroke-width="1" style="cursor: crosshair;"/><text x="1960" y="278" text-anchor="middle" fill="#0f172a" font-size="11">1±0</text><rect x="2008" y="226" width="96" height="96" fill="rgb(246, 250, 254)" stroke="#33415555" stroke-width="1" style="cursor: crosshair;"/><text x="2056" y="278" text-anchor="middle" fill="#0f172a" font-size="11">0±0</text><rect x="2104" y="226" width="96" height="96" fill="rgb(217, 225, 236)" stroke="#33415555" stroke-width="1" style="cursor: crosshair;"/><text x="2152" y="278" text-anchor="middle" fill="#0f172a" font-size="11">2±1</text><rect x="280" y="322" width="96" height="96" fill="rgb(247, 251, 255)" stroke="#33415555" stroke-width="1" style="cursor: crosshair;"/><text x="328" y="374" text-anchor="middle" fill="#0f172a" font-size="11">0±0</text><rect x="376" y="322" width="96" height="96" fill="rgb(247, 251, 255)" stroke="#33415555" stroke-width="1" style="cursor: crosshair;"/><text x="424" y="374" text-anchor="middle" fill="#0f172a" font-size="11">0±0</text><rect x="472" y="322" width="96" height="96" fill="rgb(247, 251, 255)" stroke="#33415555" stroke-width="1" style="cursor: crosshair;"/><text x="520" y="374" text-anchor="middle" fill="#0f172a" font-size="11">0±0</text><rect x="568" y="322" width="96" height="96" fill="rgb(241, 246, 251)" stroke="#33415555" stroke-width="1" style="cursor: crosshair;"/><text x="616" y="374" text-anchor="middle" fill="#0f172a" font-size="11">0±0</text><rect x="664" y="322" width="96" height="96" fill="rgb(244, 248, 253)" stroke="#33415555" stroke-width="1" style="cursor: crosshair;"/><text x="712" y="374" text-anchor="middle" fill="#0f172a" font-size="11">0±0</text><rect x="760" y="322" width="96" height="96" fill="rgb(247, 251, 255)" stroke="#33415555" stroke-width="1" style="cursor: crosshair;"/><text x="808" y="374" text-anchor="middle" fill="#0f172a" font-size="11">0±0</text><rect x="856" y="322" width="96" height="96" fill="rgb(247, 251, 255)" stroke="#33415555" stroke-width="1" style="cursor: crosshair;"/><text x="904" y="374" text-anchor="middle" fill="#0f172a" font-size="11">0±0</text><rect x="952" y="322" width="96" height="96" fill="rgb(247, 251, 255)" stroke="#33415555" stroke-width="1" style="cursor: crosshair;"/><text x="1000" y="374" text-anchor="middle" fill="#0f172a" font-size="11">0±0</text><rect x="1048" y="322" width="96" height="96" fill="rgb(247, 251, 255)" stroke="#33415555" stroke-width="1" style="cursor: crosshair;"/><text x="1096" y="374" text-anchor="middle" fill="#0f172a" font-size="11">0±0</text><rect x="1144" y="322" width="96" height="96" fill="rgb(244, 249, 253)" stroke="#33415555" stroke-width="1" style="cursor: crosshair;"/><text x="1192" y="374" text-anchor="middle" fill="#0f172a" font-size="11">0±0</text><rect x="1240" y="322" width="96" height="96" fill="rgb(247, 251, 255)" stroke="#33415555" stroke-width="1" style="cursor: crosshair;"/><text x="1288" y="374" text-anchor="middle" fill="#0f172a" font-size="11">0±0</text><rect x="1336" y="322" width="96" height="96" fill="rgb(247, 251, 255)" stroke="#33415555" stroke-width="1" style="cursor: crosshair;"/><text x="1384" y="374" text-anchor="middle" fill="#0f172a" font-size="11">0±0</text><rect x="1432" y="322" width="96" height="96" fill="rgb(221, 229, 239)" stroke="#33415555" stroke-width="1" style="cursor: crosshair;"/><text x="1480" y="374" text-anchor="middle" fill="#0f172a" font-size="11">2±1</text><rect x="1528" y="322" width="96" height="96" fill="rgb(247, 251, 255)" stroke="#33415555" stroke-width="1" style="cursor: crosshair;"/><text x="1576" y="374" text-anchor="middle" fill="#0f172a" font-size="11">0±0</text><rect x="1624" y="322" width="96" height="96" fill="rgb(247, 251, 255)" stroke="#33415555" stroke-width="1" style="cursor: crosshair;"/><text x="1672" y="374" text-anchor="middle" fill="#0f172a" font-size="11">0±0</text><rect x="1720" y="322" width="96" height="96" fill="rgb(247, 251, 255)" stroke="#33415555" stroke-width="1" style="cursor: crosshair;"/><text x="1768" y="374" text-anchor="middle" fill="#0f172a" font-size="11">0±0</text><rect x="1816" y="322" width="96" height="96" fill="rgb(247, 251, 255)" stroke="#33415555" stroke-width="1" style="cursor: crosshair;"/><text x="1864" y="374" text-anchor="middle" fill="#0f172a" font-size="11">0±0</text><rect x="1912" y="322" width="96" height="96" fill="rgb(247, 251, 255)" stroke="#33415555" stroke-width="1" style="cursor: crosshair;"/><text x="1960" y="374" text-anchor="middle" fill="#0f172a" font-size="11">0±0</text><rect x="2008" y="322" width="96" height="96" fill="rgb(247, 251, 255)" stroke="#33415555" stroke-width="1" style="cursor: crosshair;"/><text x="2056" y="374" text-anchor="middle" fill="#0f172a" font-size="11">0±0</text><rect x="2104" y="322" width="96" height="96" fill="rgb(214, 223, 235)" stroke="#33415555" stroke-width="1" style="cursor: crosshair;"/><text x="2152" y="374" text-anchor="middle" fill="#0f172a" font-size="11">2±1</text><rect x="280" y="418" width="96" height="96" fill="rgb(246, 250, 255)" stroke="#33415555" stroke-width="1" style="cursor: crosshair;"/><text x="328" y="470" text-anchor="middle" fill="#0f172a" font-size="11">0±0</text><rect x="376" y="418" width="96" height="96" fill="rgb(247, 251, 255)" stroke="#33415555" stroke-width="1" style="cursor: crosshair;"/><text x="424" y="470" text-anchor="middle" fill="#0f172a" font-size="11">0±0</text><rect x="472" y="418" width="96" height="96" fill="rgb(238, 244, 250)" stroke="#33415555" stroke-width="1" style="cursor: crosshair;"/><text x="520" y="470" text-anchor="middle" fill="#0f172a" font-size="11">1±0</text><rect x="568" y="418" width="96" height="96" fill="rgb(244, 248, 253)" stroke="#33415555" stroke-width="1" style="cursor: crosshair;"/><text x="616" y="470" text-anchor="middle" fill="#0f172a" font-size="11">0±0</text><rect x="664" y="418" width="96" height="96" fill="rgb(236, 242, 248)" stroke="#33415555" stroke-width="1" style="cursor: crosshair;"/><text x="712" y="470" text-anchor="middle" fill="#0f172a" font-size="11">1±0</text><rect x="760" y="418" width="96" height="96" fill="rgb(247, 251, 255)" stroke="#33415555" stroke-width="1" style="cursor: crosshair;"/><text x="808" y="470" text-anchor="middle" fill="#0f172a" font-size="11">0±0</text><rect x="856" y="418" width="96" height="96" fill="rgb(246, 250, 254)" stroke="#33415555" stroke-width="1" style="cursor: crosshair;"/><text x="904" y="470" text-anchor="middle" fill="#0f172a" font-size="11">0±0</text><rect x="952" y="418" width="96" height="96" fill="rgb(247, 251, 255)" stroke="#33415555" stroke-width="1" style="cursor: crosshair;"/><text x="1000" y="470" text-anchor="middle" fill="#0f172a" font-size="11">0±0</text><rect x="1048" y="418" width="96" height="96" fill="rgb(247, 251, 255)" stroke="#33415555" stroke-width="1" style="cursor: crosshair;"/><text x="1096" y="470" text-anchor="middle" fill="#0f172a" font-size="11">0±0</text><rect x="1144" y="418" width="96" height="96" fill="rgb(242, 247, 252)" stroke="#33415555" stroke-width="1" style="cursor: crosshair;"/><text x="1192" y="470" text-anchor="middle" fill="#0f172a" font-size="11">0±0</text><rect x="1240" y="418" width="96" height="96" fill="rgb(247, 251, 255)" stroke="#33415555" stroke-width="1" style="cursor: crosshair;"/><text x="1288" y="470" text-anchor="middle" fill="#0f172a" font-size="11">0±0</text><rect x="1336" y="418" width="96" height="96" fill="rgb(246, 250, 254)" stroke="#33415555" stroke-width="1" style="cursor: crosshair;"/><text x="1384" y="470" text-anchor="middle" fill="#0f172a" font-size="11">0±0</text><rect x="1432" y="418" width="96" height="96" fill="rgb(247, 251, 255)" stroke="#33415555" stroke-width="1" style="cursor: crosshair;"/><text x="1480" y="470" text-anchor="middle" fill="#0f172a" font-size="11">0±0</text><rect x="1528" y="418" width="96" height="96" fill="rgb(221, 229, 239)" stroke="#33415555" stroke-width="1" style="cursor: crosshair;"/><text x="1576" y="470" text-anchor="middle" fill="#0f172a" font-size="11">2±0</text><rect x="1624" y="418" width="96" height="96" fill="rgb(247, 251, 255)" stroke="#33415555" stroke-width="1" style="cursor: crosshair;"/><text x="1672" y="470" text-anchor="middle" fill="#0f172a" font-size="11">0±0</text><rect x="1720" y="418" width="96" height="96" fill="rgb(238, 244, 250)" stroke="#33415555" stroke-width="1" style="cursor: crosshair;"/><text x="1768" y="470" text-anchor="middle" fill="#0f172a" font-size="11">1±0</text><rect x="1816" y="418" width="96" height="96" fill="rgb(247, 251, 255)" stroke="#33415555" stroke-width="1" style="cursor: crosshair;"/><text x="1864" y="470" text-anchor="middle" fill="#0f172a" font-size="11">0±0</text><rect x="1912" y="418" width="96" height="96" fill="rgb(247, 251, 255)" stroke="#33415555" stroke-width="1" style="cursor: crosshair;"/><text x="1960" y="470" text-anchor="middle" fill="#0f172a" font-size="11">0±0</text><rect x="2008" y="418" width="96" height="96" fill="rgb(247, 251, 255)" stroke="#33415555" stroke-width="1" style="cursor: crosshair;"/><text x="2056" y="470" text-anchor="middle" fill="#0f172a" font-size="11">0±0</text><rect x="2104" y="418" width="96" height="96" fill="rgb(176, 190, 211)" stroke="#33415555" stroke-width="1" style="cursor: crosshair;"/><text x="2152" y="470" text-anchor="middle" fill="#0f172a" font-size="11">5±0</text><rect x="280" y="514" width="96" height="96" fill="rgb(247, 251, 255)" stroke="#33415555" stroke-width="1" style="cursor: crosshair;"/><text x="328" y="566" text-anchor="middle" fill="#0f172a" font-size="11">0±0</text><rect x="376" y="514" width="96" height="96" fill="rgb(247, 251, 255)" stroke="#33415555" stroke-width="1" style="cursor: crosshair;"/><text x="424" y="566" text-anchor="middle" fill="#0f172a" font-size="11">0±0</text><rect x="472" y="514" width="96" height="96" fill="rgb(247, 251, 255)" stroke="#33415555" stroke-width="1" style="cursor: crosshair;"/><text x="520" y="566" text-anchor="middle" fill="#0f172a" font-size="11">0±0</text><rect x="568" y="514" width="96" height="96" fill="rgb(247, 251, 255)" stroke="#33415555" stroke-width="1" style="cursor: crosshair;"/><text x="616" y="566" text-anchor="middle" fill="#0f172a" font-size="11">0±0</text><rect x="664" y="514" width="96" height="96" fill="rgb(247, 251, 255)" stroke="#33415555" stroke-width="1" style="cursor: crosshair;"/><text x="712" y="566" text-anchor="middle" fill="#0f172a" font-size="11">0±0</text><rect x="760" y="514" width="96" height="96" fill="rgb(247, 251, 255)" stroke="#33415555" stroke-width="1" style="cursor: crosshair;"/><text x="808" y="566" text-anchor="middle" fill="#0f172a" font-size="11">0±0</text><rect x="856" y="514" width="96" height="96" fill="rgb(239, 244, 250)" stroke="#33415555" stroke-width="1" style="cursor: crosshair;"/><text x="904" y="566" text-anchor="middle" fill="#0f172a" font-size="11">1±0</text><rect x="952" y="514" width="96" height="96" fill="rgb(247, 251, 255)" stroke="#33415555" stroke-width="1" style="cursor: crosshair;"/><text x="1000" y="566" text-anchor="middle" fill="#0f172a" font-size="11">0±0</text><rect x="1048" y="514" width="96" height="96" fill="rgb(247, 251, 255)" stroke="#33415555" stroke-width="1" style="cursor: crosshair;"/><text x="1096" y="566" text-anchor="middle" fill="#0f172a" font-size="11">0±0</text><rect x="1144" y="514" width="96" height="96" fill="rgb(243, 248, 253)" stroke="#33415555" stroke-width="1" style="cursor: crosshair;"/><text x="1192" y="566" text-anchor="middle" fill="#0f172a" font-size="11">0±0</text><rect x="1240" y="514" width="96" height="96" fill="rgb(247, 251, 255)" stroke="#33415555" stroke-width="1" style="cursor: crosshair;"/><text x="1288" y="566" text-anchor="middle" fill="#0f172a" font-size="11">0±0</text><rect x="1336" y="514" width="96" height="96" fill="rgb(247, 251, 255)" stroke="#33415555" stroke-width="1" style="cursor: crosshair;"/><text x="1384" y="566" text-anchor="middle" fill="#0f172a" font-size="11">0±0</text><rect x="1432" y="514" width="96" height="96" fill="rgb(247, 251, 255)" stroke="#33415555" stroke-width="1" style="cursor: crosshair;"/><text x="1480" y="566" text-anchor="middle" fill="#0f172a" font-size="11">0±0</text><rect x="1528" y="514" width="96" height="96" fill="rgb(247, 251, 255)" stroke="#33415555" stroke-width="1" style="cursor: crosshair;"/><text x="1576" y="566" text-anchor="middle" fill="#0f172a" font-size="11">0±0</text><rect x="1624" y="514" width="96" height="96" fill="rgb(247, 251, 255)" stroke="#33415555" stroke-width="1" style="cursor: crosshair;"/><text x="1672" y="566" text-anchor="middle" fill="#0f172a" font-size="11">0±0</text><rect x="1720" y="514" width="96" height="96" fill="rgb(185, 198, 216)" stroke="#33415555" stroke-width="1" style="cursor: crosshair;"/><text x="1768" y="566" text-anchor="middle" fill="#0f172a" font-size="11">4±0</text><rect x="1816" y="514" width="96" height="96" fill="rgb(247, 251, 255)" stroke="#33415555" stroke-width="1" style="cursor: crosshair;"/><text x="1864" y="566" text-anchor="middle" fill="#0f172a" font-size="11">0±0</text><rect x="1912" y="514" width="96" height="96" fill="rgb(247, 251, 255)" stroke="#33415555" stroke-width="1" style="cursor: crosshair;"/><text x="1960" y="566" text-anchor="middle" fill="#0f172a" font-size="11">0±0</text><rect x="2008" y="514" width="96" height="96" fill="rgb(247, 251, 255)" stroke="#33415555" stroke-width="1" style="cursor: crosshair;"/><text x="2056" y="566" text-anchor="middle" fill="#0f172a" font-size="11">0±0</text><rect x="2104" y="514" width="96" height="96" fill="rgb(247, 251, 255)" stroke="#33415555" stroke-width="1" style="cursor: crosshair;"/><text x="2152" y="566" text-anchor="middle" fill="#0f172a" font-size="11">0±0</text><rect x="280" y="610" width="96" height="96" fill="rgb(247, 251, 255)" stroke="#33415555" stroke-width="1" style="cursor: crosshair;"/><text x="328" y="662" text-anchor="middle" fill="#0f172a" font-size="11">0±0</text><rect x="376" y="610" width="96" height="96" fill="rgb(247, 251, 255)" stroke="#33415555" stroke-width="1" style="cursor: crosshair;"/><text x="424" y="662" text-anchor="middle" fill="#0f172a" font-size="11">0±0</text><rect x="472" y="610" width="96" height="96" fill="rgb(247, 251, 255)" stroke="#33415555" stroke-width="1" style="cursor: crosshair;"/><text x="520" y="662" text-anchor="middle" fill="#0f172a" font-size="11">0±0</text><rect x="568" y="610" width="96" height="96" fill="rgb(247, 251, 255)" stroke="#33415555" stroke-width="1" style="cursor: crosshair;"/><text x="616" y="662" text-anchor="middle" fill="#0f172a" font-size="11">0±0</text><rect x="664" y="610" width="96" height="96" fill="rgb(247, 251, 255)" stroke="#33415555" stroke-width="1" style="cursor: crosshair;"/><text x="712" y="662" text-anchor="middle" fill="#0f172a" font-size="11">0±0</text><rect x="760" y="610" width="96" height="96" fill="rgb(247, 251, 255)" stroke="#33415555" stroke-width="1" style="cursor: crosshair;"/><text x="808" y="662" text-anchor="middle" fill="#0f172a" font-size="11">0±0</text><rect x="856" y="610" width="96" height="96" fill="rgb(247, 251, 255)" stroke="#33415555" stroke-width="1" style="cursor: crosshair;"/><text x="904" y="662" text-anchor="middle" fill="#0f172a" font-size="11">0±0</text><rect x="952" y="610" width="96" height="96" fill="rgb(247, 251, 255)" stroke="#33415555" stroke-width="1" style="cursor: crosshair;"/><text x="1000" y="662" text-anchor="middle" fill="#0f172a" font-size="11">0±0</text><rect x="1048" y="610" width="96" height="96" fill="rgb(247, 251, 255)" stroke="#33415555" stroke-width="1" style="cursor: crosshair;"/><text x="1096" y="662" text-anchor="middle" fill="#0f172a" font-size="11">0±0</text><rect x="1144" y="610" width="96" height="96" fill="rgb(247, 251, 255)" stroke="#33415555" stroke-width="1" style="cursor: crosshair;"/><text x="1192" y="662" text-anchor="middle" fill="#0f172a" font-size="11">0±0</text><rect x="1240" y="610" width="96" height="96" fill="rgb(247, 251, 255)" stroke="#33415555" stroke-width="1" style="cursor: crosshair;"/><text x="1288" y="662" text-anchor="middle" fill="#0f172a" font-size="11">0±0</text><rect x="1336" y="610" width="96" height="96" fill="rgb(247, 251, 255)" stroke="#33415555" stroke-width="1" style="cursor: crosshair;"/><text x="1384" y="662" text-anchor="middle" fill="#0f172a" font-size="11">0±0</text><rect x="1432" y="610" width="96" height="96" fill="rgb(247, 251, 255)" stroke="#33415555" stroke-width="1" style="cursor: crosshair;"/><text x="1480" y="662" text-anchor="middle" fill="#0f172a" font-size="11">0±0</text><rect x="1528" y="610" width="96" height="96" fill="rgb(247, 251, 255)" stroke="#33415555" stroke-width="1" style="cursor: crosshair;"/><text x="1576" y="662" text-anchor="middle" fill="#0f172a" font-size="11">0±0</text><rect x="1624" y="610" width="96" height="96" fill="rgb(247, 251, 255)" stroke="#33415555" stroke-width="1" style="cursor: crosshair;"/><text x="1672" y="662" text-anchor="middle" fill="#0f172a" font-size="11">0±0</text><rect x="1720" y="610" width="96" height="96" fill="rgb(244, 249, 253)" stroke="#33415555" stroke-width="1" style="cursor: crosshair;"/><text x="1768" y="662" text-anchor="middle" fill="#0f172a" font-size="11">0±0</text><rect x="1816" y="610" width="96" height="96" fill="rgb(247, 251, 255)" stroke="#33415555" stroke-width="1" style="cursor: crosshair;"/><text x="1864" y="662" text-anchor="middle" fill="#0f172a" font-size="11">0±0</text><rect x="1912" y="610" width="96" height="96" fill="rgb(247, 251, 255)" stroke="#33415555" stroke-width="1" style="cursor: crosshair;"/><text x="1960" y="662" text-anchor="middle" fill="#0f172a" font-size="11">0±0</text><rect x="2008" y="610" width="96" height="96" fill="rgb(231, 238, 245)" stroke="#33415555" stroke-width="1" style="cursor: crosshair;"/><text x="2056" y="662" text-anchor="middle" fill="#0f172a" font-size="11">1±1</text><rect x="2104" y="610" width="96" height="96" fill="rgb(218, 227, 237)" stroke="#33415555" stroke-width="1" style="cursor: crosshair;"/><text x="2152" y="662" text-anchor="middle" fill="#0f172a" font-size="11">2±1</text><rect x="280" y="706" width="96" height="96" fill="rgb(8, 48, 107)" stroke="#33415555" stroke-width="1" style="cursor: crosshair;"/><text x="328" y="758" text-anchor="middle" fill="#f8fafc" font-size="11">15±2</text><rect x="376" y="706" width="96" height="96" fill="rgb(192, 205, 221)" stroke="#33415555" stroke-width="1" style="cursor: crosshair;"/><text x="424" y="758" text-anchor="middle" fill="#0f172a" font-size="11">4±2</text><rect x="472" y="706" width="96" height="96" fill="rgb(146, 165, 192)" stroke="#33415555" stroke-width="1" style="cursor: crosshair;"/><text x="520" y="758" text-anchor="middle" fill="#0f172a" font-size="11">7±2</text><rect x="568" y="706" width="96" height="96" fill="rgb(144, 163, 191)" stroke="#33415555" stroke-width="1" style="cursor: crosshair;"/><text x="616" y="758" text-anchor="middle" fill="#0f172a" font-size="11">7±1</text><rect x="664" y="706" width="96" height="96" fill="rgb(170, 186, 207)" stroke="#33415555" stroke-width="1" style="cursor: crosshair;"/><text x="712" y="758" text-anchor="middle" fill="#0f172a" font-size="11">5±2</text><rect x="760" y="706" width="96" height="96" fill="rgb(185, 198, 216)" stroke="#33415555" stroke-width="1" style="cursor: crosshair;"/><text x="808" y="758" text-anchor="middle" fill="#0f172a" font-size="11">4±2</text><rect x="856" y="706" width="96" height="96" fill="rgb(57, 90, 138)" stroke="#33415555" stroke-width="1" style="cursor: crosshair;"/><text x="904" y="758" text-anchor="middle" fill="#f8fafc" font-size="11">12±2</text><rect x="952" y="706" width="96" height="96" fill="rgb(89, 116, 157)" stroke="#33415555" stroke-width="1" style="cursor: crosshair;"/><text x="1000" y="758" text-anchor="middle" fill="#f8fafc" font-size="11">10±4</text><rect x="1048" y="706" width="96" height="96" fill="rgb(200, 211, 226)" stroke="#33415555" stroke-width="1" style="cursor: crosshair;"/><text x="1096" y="758" text-anchor="middle" fill="#0f172a" font-size="11">3±1</text><rect x="1144" y="706" width="96" height="96" fill="rgb(113, 137, 172)" stroke="#33415555" stroke-width="1" style="cursor: crosshair;"/><text x="1192" y="758" text-anchor="middle" fill="#f8fafc" font-size="11">9±2</text><rect x="1240" y="706" width="96" height="96" fill="rgb(68, 99, 144)" stroke="#33415555" stroke-width="1" style="cursor: crosshair;"/><text x="1288" y="758" text-anchor="middle" fill="#f8fafc" font-size="11">12±1</text><rect x="1336" y="706" width="96" height="96" fill="rgb(166, 183, 205)" stroke="#33415555" stroke-width="1" style="cursor: crosshair;"/><text x="1384" y="758" text-anchor="middle" fill="#0f172a" font-size="11">5±1</text><rect x="1432" y="706" width="96" height="96" fill="rgb(174, 189, 210)" stroke="#33415555" stroke-width="1" style="cursor: crosshair;"/><text x="1480" y="758" text-anchor="middle" fill="#0f172a" font-size="11">5±0</text><rect x="1528" y="706" width="96" height="96" fill="rgb(211, 220, 232)" stroke="#33415555" stroke-width="1" style="cursor: crosshair;"/><text x="1576" y="758" text-anchor="middle" fill="#0f172a" font-size="11">2±0</text><rect x="1624" y="706" width="96" height="96" fill="rgb(172, 187, 208)" stroke="#33415555" stroke-width="1" style="cursor: crosshair;"/><text x="1672" y="758" text-anchor="middle" fill="#0f172a" font-size="11">5±1</text><rect x="1720" y="706" width="96" height="96" fill="rgb(60, 92, 139)" stroke="#33415555" stroke-width="1" style="cursor: crosshair;"/><text x="1768" y="758" text-anchor="middle" fill="#f8fafc" font-size="11">12±2</text><rect x="1816" y="706" width="96" height="96" fill="rgb(120, 143, 176)" stroke="#33415555" stroke-width="1" style="cursor: crosshair;"/><text x="1864" y="758" text-anchor="middle" fill="#0f172a" font-size="11">8±1</text><rect x="1912" y="706" width="96" height="96" fill="rgb(34, 70, 123)" stroke="#33415555" stroke-width="1" style="cursor: crosshair;"/><text x="1960" y="758" text-anchor="middle" fill="#f8fafc" font-size="11">14±2</text><rect x="2008" y="706" width="96" height="96" fill="rgb(148, 167, 194)" stroke="#33415555" stroke-width="1" style="cursor: crosshair;"/><text x="2056" y="758" text-anchor="middle" fill="#0f172a" font-size="11">6±1</text><rect x="2104" y="706" width="96" height="96" fill="rgb(247, 251, 255)" stroke="#33415555" stroke-width="1" style="cursor: crosshair;"/><text x="2152" y="758" text-anchor="middle" fill="#0f172a" font-size="11">0±0</text><text x="330" y="120" transform="rotate(-35 330 120)" text-anchor="start" fill="currentColor" font-size="11">Äcker und Ackerbrachen</text><text x="426" y="120" transform="rotate(-35 426 120)" text-anchor="start" fill="currentColor" font-size="11">Anthropogene Rohbodenstandorte und Ruderalfluren</text><text x="522" y="120" transform="rotate(-35 522 120)" text-anchor="start" fill="currentColor" font-size="11">Bauwerke</text><text x="618" y="120" transform="rotate(-35 618 120)" text-anchor="start" fill="currentColor" font-size="11">Benthal der Nordsee</text><text x="714" y="120" transform="rotate(-35 714 120)" text-anchor="start" fill="currentColor" font-size="11">Benthal der Ostsee</text><text x="810" y="120" transform="rotate(-35 810 120)" text-anchor="start" fill="currentColor" font-size="11">Feldgehölze, Gebüsche, Hecken und Gehölzkulturen</text><text x="906" y="120" transform="rotate(-35 906 120)" text-anchor="start" fill="currentColor" font-size="11">Fließende Gewässer</text><text x="1002" y="120" transform="rotate(-35 1002 120)" text-anchor="start" fill="currentColor" font-size="11">Grün- und Freiflächen</text><text x="1098" y="120" transform="rotate(-35 1098 120)" text-anchor="start" fill="currentColor" font-size="11">Hoch-, Zwischen- und Übergangsmoore</text><text x="1194" y="120" transform="rotate(-35 1194 120)" text-anchor="start" fill="currentColor" font-size="11">Küstendünen</text><text x="1290" y="120" transform="rotate(-35 1290 120)" text-anchor="start" fill="currentColor" font-size="11">Laub(Misch)Wälder und -Forste (Laubbaumanteil über 50 Prozent)</text><text x="1386" y="120" transform="rotate(-35 1386 120)" text-anchor="start" fill="currentColor" font-size="11">Nadel(Misch)Wälder und -Forste</text><text x="1482" y="120" transform="rotate(-35 1482 120)" text-anchor="start" fill="currentColor" font-size="11">Pelagial der Nordsee</text><text x="1578" y="120" transform="rotate(-35 1578 120)" text-anchor="start" fill="currentColor" font-size="11">Pelagial der Ostsee</text><text x="1674" y="120" transform="rotate(-35 1674 120)" text-anchor="start" fill="currentColor" font-size="11">Röhrichte (ohne Brackwasserröhrichte)</text><text x="1770" y="120" transform="rotate(-35 1770 120)" text-anchor="start" fill="currentColor" font-size="11">Stehende Gewässer</text><text x="1866" y="120" transform="rotate(-35 1866 120)" text-anchor="start" fill="currentColor" font-size="11">Trockenrasen sowie Grünland trockener bis frischer Standorte</text><text x="1962" y="120" transform="rotate(-35 1962 120)" text-anchor="start" fill="currentColor" font-size="11">Wald- und Ufersäume, Staudenfluren</text><text x="2058" y="120" transform="rotate(-35 2058 120)" text-anchor="start" fill="currentColor" font-size="11">Waldfreie Niedermoore und Sümpfe, Grünland nasser bis feuchter Standorte</text><text x="2154" y="120" transform="rotate(-35 2154 120)" text-anchor="start" fill="currentColor" font-size="11">UNDETECTED</text></svg>