<?xml version="1.0" encoding="UTF-8"?>
<svg width="760" height="340" viewBox="0 0 760 340" xmlns="http://www.w3.org/2000/svg" xmlns:xlink="http://www.w3.org/1999/xlink" style="color: rgb(229, 231, 235); font-family: Inter, Arial, sans-serif; background-color: rgba(0, 0, 0, 0);"><rect x="0" y="0" width="760" height="340" fill="rgb(17, 24, 39)"/><g transform="translate(0, 0)"><line x1="60" x2="740" y1="245" y2="245" stroke="#64748b66" stroke-width="1"/><text x="52" y="249" text-anchor="end" fill="currentColor" font-size="11">0.00</text><line x1="60" x2="740" y1="199.6" y2="199.6" stroke="#64748b66" stroke-width="1"/><text x="52" y="203.6" text-anchor="end" fill="currentColor" font-size="11">0.09</text><line x1="60" x2="740" y1="154.2" y2="154.2" stroke="#64748b66" stroke-width="1"/><text x="52" y="158.2" text-anchor="end" fill="currentColor" font-size="11">0.18</text><line x1="60" x2="740" y1="108.80000000000001" y2="108.80000000000001" stroke="#64748b66" stroke-width="1"/><text x="52" y="112.80000000000001" text-anchor="end" fill="currentColor" font-size="11">0.28</text><line x1="60" x2="740" y1="63.39999999999998" y2="63.39999999999998" stroke="#64748b66" stroke-width="1"/><text x="52" y="67.39999999999998" text-anchor="end" fill="currentColor" font-size="11">0.37</text><line x1="60" x2="740" y1="18.00000000000003" y2="18.00000000000003" stroke="#64748b66" stroke-width="1"/><text x="52" y="22.00000000000003" text-anchor="end" fill="currentColor" font-size="11">0.46</text><rect x="342" y="115.66739233257874" width="26" height="129.33260766742126" fill="#60a5fa" style="cursor: crosshair;"/><line x1="355" x2="355" y1="113.01330601496818" y2="118.3214786501893" stroke="currentColor" stroke-opacity="0.78" stroke-width="2"/><line x1="350" x2="360" y1="113.01330601496818" y2="113.01330601496818" stroke="currentColor" stroke-opacity="0.78" stroke-width="2"/><line x1="350" x2="360" y1="118.3214786501893" y2="118.3214786501893" stroke="currentColor" stroke-opacity="0.78" stroke-width="2"/><rect x="372" y="22.661856235327576" width="26" height="222.33814376467242" fill="#f97316" style="cursor: crosshair;"/><line x1="385" x2="385" y1="18" y2="27.32371247065518" stroke="currentColor" stroke-opacity="0.78" stroke-width="2"/><line x1="380" x2="390" y1="18" y2="18" stroke="currentColor" stroke-opacity="0.78" stroke-width="2"/><line x1="380" x2="390" y1="27.32371247065518" y2="27.32371247065518" stroke="currentColor" stroke-opacity="0.78" stroke-width="2"/><rect x="402" y="156.6498683772116" width="26" height="88.35013162278841" fill="#22c55e" style="cursor: crosshair;"/><line x1="415" x2="415" y1="154.36732566849753" y2="158.93241108592565" stroke="currentColor" stroke-opacity="0.78" stroke-width="2"/><line x1="410" x2="420" y1="154.36732566849753" y2="154.36732566849753" stroke="currentColor" stroke-opacity="0.78" stroke-width="2"/><line x1="410" x2="420" y1="158.93241108592565" y2="158.93241108592565" stroke="currentColor" stroke-opacity="0.78" stroke-width="2"/><rect x="432" y="148.37300754729324" width="26" height="96.62699245270674" fill="#a78bfa" style="cursor: crosshair;"/><line x1="445" x2="445" y1="145.46229704972464" y2="151.28371804486187" stroke="currentColor" stroke-opacity="0.78" stroke-width="2"/><line x1="440" x2="450" y1="145.46229704972464" y2="145.46229704972464" stroke="currentColor" stroke-opacity="0.78" stroke-width="2"/><line x1="440" x2="450" y1="151.28371804486187" y2="151.28371804486187" stroke="currentColor" stroke-opacity="0.78" stroke-width="2"/><text x="400" y="261" transform="rotate(-28 400 261)" text-anchor="end" fill="currentColor" font-size="11">all</text></g></svg>