<?xml version="1.0" encoding="UTF-8"?>
<svg width="760" height="340" viewBox="0 0 760 340" xmlns="http://www.w3.org/2000/svg" xmlns:xlink="http://www.w3.org/1999/xlink" style="color: rgb(229, 231, 235); font-family: Inter, Arial, sans-serif; background-color: rgba(0, 0, 0, 0);"><rect x="0" y="0" width="760" height="340" fill="rgb(17, 24, 39)"/><g transform="translate(0, 0)"><line x1="60" x2="740" y1="245" y2="245" stroke="#64748b66" stroke-width="1"/><text x="52" y="249" text-anchor="end" fill="currentColor" font-size="11">0.00</text><line x1="60" x2="740" y1="199.6" y2="199.6" stroke="#64748b66" stroke-width="1"/><text x="52" y="203.6" text-anchor="end" fill="currentColor" font-size="11">9.88</text><line x1="60" x2="740" y1="154.2" y2="154.2" stroke="#64748b66" stroke-width="1"/><text x="52" y="158.2" text-anchor="end" fill="currentColor" font-size="11">19.77</text><line x1="60" x2="740" y1="108.80000000000001" y2="108.80000000000001" stroke="#64748b66" stroke-width="1"/><text x="52" y="112.80000000000001" text-anchor="end" fill="currentColor" font-size="11">29.65</text><line x1="60" x2="740" y1="63.400000000000006" y2="63.400000000000006" stroke="#64748b66" stroke-width="1"/><text x="52" y="67.4" text-anchor="end" fill="currentColor" font-size="11">39.53</text><line x1="60" x2="740" y1="18" y2="18" stroke="#64748b66" stroke-width="1"/><text x="52" y="22" text-anchor="end" fill="currentColor" font-size="11">49.41</text><rect x="342" y="237.3436334192432" width="26" height="7.656366580756813" fill="#60a5fa" style="cursor: crosshair;"/><line x1="355" x2="355" y1="235.17808592784192" y2="239.50918091064446" stroke="currentColor" stroke-opacity="0.78" stroke-width="2"/><line x1="350" x2="360" y1="235.17808592784192" y2="235.17808592784192" stroke="currentColor" stroke-opacity="0.78" stroke-width="2"/><line x1="350" x2="360" y1="239.50918091064446" y2="239.50918091064446" stroke="currentColor" stroke-opacity="0.78" stroke-width="2"/><rect x="372" y="24.49664247420384" width="26" height="220.50335752579616" fill="#f97316" style="cursor: crosshair;"/><line x1="385" x2="385" y1="18" y2="30.99328494840765" stroke="currentColor" stroke-opacity="0.78" stroke-width="2"/><line x1="380" x2="390" y1="18" y2="18" stroke="currentColor" stroke-opacity="0.78" stroke-width="2"/><line x1="380" x2="390" y1="30.99328494840765" y2="30.99328494840765" stroke="currentColor" stroke-opacity="0.78" stroke-width="2"/><rect x="402" y="229.68726683848638" width="26" height="15.312733161513625" fill="#22c55e" style="cursor: crosshair;"/><line x1="415" x2="415" y1="225.3561718556838" y2="234.01836182128895" stroke="currentColor" stroke-opacity="0.78" stroke-width="2"/><line x1="410" x2="420" y1="225.3561718556838" y2="225.3561718556838" stroke="currentColor" stroke-opacity="0.78" stroke-width="2"/><line x1="410" x2="420" y1="234.01836182128895" y2="234.01836182128895" stroke="currentColor" stroke-opacity="0.78" stroke-width="2"/><rect x="432" y="197.53052719930776" width="26" height="47.46947280069223" fill="#a78bfa" style="cursor: crosshair;"/><line x1="445" x2="445" y1="178.28272007580313" y2="216.7783343228124" stroke="currentColor" stroke-opacity="0.78" stroke-width="2"/><line x1="440" x2="450" y1="178.28272007580313" y2="178.28272007580313" stroke="currentColor" stroke-opacity="0.78" stroke-width="2"/><line x1="440" x2="450" y1="216.7783343228124" y2="216.7783343228124" stroke="currentColor" stroke-opacity="0.78" stroke-width="2"/><text x="400" y="261" transform="rotate(-28 400 261)" text-anchor="end" fill="currentColor" font-size="11">all</text></g></svg>