<?xml version="1.0" encoding="UTF-8"?>
<svg width="760" height="384" viewBox="0 0 760 384" xmlns="http://www.w3.org/2000/svg" xmlns:xlink="http://www.w3.org/1999/xlink" style="color: rgb(31, 41, 55); font-family: Inter, Arial, sans-serif; background-color: rgba(0, 0, 0, 0);"><rect x="0" y="0" width="760" height="384" fill="rgb(255, 255, 255)"/><g transform="translate(0, 0)"><line x1="60" x2="740" y1="245" y2="245" stroke="#64748b66" stroke-width="1"/><text x="52" y="249" text-anchor="end" fill="currentColor" font-size="11">0.00</text><line x1="60" x2="740" y1="199.6" y2="199.6" stroke="#64748b66" stroke-width="1"/><text x="52" y="203.6" text-anchor="end" fill="currentColor" font-size="11">25.40</text><line x1="60" x2="740" y1="154.2" y2="154.2" stroke="#64748b66" stroke-width="1"/><text x="52" y="158.2" text-anchor="end" fill="currentColor" font-size="11">50.80</text><line x1="60" x2="740" y1="108.80000000000001" y2="108.80000000000001" stroke="#64748b66" stroke-width="1"/><text x="52" y="112.80000000000001" text-anchor="end" fill="currentColor" font-size="11">76.20</text><line x1="60" x2="740" y1="63.400000000000006" y2="63.400000000000006" stroke="#64748b66" stroke-width="1"/><text x="52" y="67.4" text-anchor="end" fill="currentColor" font-size="11">101.60</text><line x1="60" x2="740" y1="18" y2="18" stroke="#64748b66" stroke-width="1"/><text x="52" y="22" text-anchor="end" fill="currentColor" font-size="11">127.00</text><rect x="157" y="236.65879265091863" width="26" height="8.341207349081365" fill="#60a5fa" style="cursor: crosshair;"/><line x1="170" x2="170" y1="233.28843591959378" y2="240.0291493822435" stroke="currentColor" stroke-opacity="0.78" stroke-width="2"/><line x1="165" x2="175" y1="233.28843591959378" y2="233.28843591959378" stroke="currentColor" stroke-opacity="0.78" stroke-width="2"/><line x1="165" x2="175" y1="240.0291493822435" y2="240.0291493822435" stroke="currentColor" stroke-opacity="0.78" stroke-width="2"/><rect x="187" y="245" width="26" height="0" fill="#f97316" style="cursor: crosshair;"/><line x1="200" x2="200" y1="245" y2="245" stroke="currentColor" stroke-opacity="0.78" stroke-width="2"/><line x1="195" x2="205" y1="245" y2="245" stroke="currentColor" stroke-opacity="0.78" stroke-width="2"/><line x1="195" x2="205" y1="245" y2="245" stroke="currentColor" stroke-opacity="0.78" stroke-width="2"/><rect x="217" y="245" width="26" height="0" fill="#22c55e" style="cursor: crosshair;"/><line x1="230" x2="230" y1="245" y2="245" stroke="currentColor" stroke-opacity="0.78" stroke-width="2"/><line x1="225" x2="235" y1="245" y2="245" stroke="currentColor" stroke-opacity="0.78" stroke-width="2"/><line x1="225" x2="235" y1="245" y2="245" stroke="currentColor" stroke-opacity="0.78" stroke-width="2"/><rect x="247" y="245" width="26" height="0" fill="#a78bfa" style="cursor: crosshair;"/><line x1="260" x2="260" y1="245" y2="245" stroke="currentColor" stroke-opacity="0.78" stroke-width="2"/><line x1="255" x2="265" y1="245" y2="245" stroke="currentColor" stroke-opacity="0.78" stroke-width="2"/><line x1="255" x2="265" y1="245" y2="245" stroke="currentColor" stroke-opacity="0.78" stroke-width="2"/><rect x="277" y="21.574803149606282" width="26" height="223.42519685039372" fill="#f43f5e" style="cursor: crosshair;"/><line x1="290" x2="290" y1="18" y2="25.14960629921262" stroke="currentColor" stroke-opacity="0.78" stroke-width="2"/><line x1="285" x2="295" y1="18" y2="18" stroke="currentColor" stroke-opacity="0.78" stroke-width="2"/><line x1="285" x2="295" y1="25.14960629921262" y2="25.14960629921262" stroke="currentColor" stroke-opacity="0.78" stroke-width="2"/><text x="230" y="261" transform="rotate(-28 230 261)" text-anchor="end" fill="currentColor" font-size="11">name=519_faktencheck_core</text><rect x="497" y="231.89238845144357" width="26" height="13.10761154855643" fill="#60a5fa" style="cursor: crosshair;"/><line x1="510" x2="510" y1="224.69330331756964" y2="239.0914735853175" stroke="currentColor" stroke-opacity="0.78" stroke-width="2"/><line x1="505" x2="515" y1="224.69330331756964" y2="224.69330331756964" stroke="currentColor" stroke-opacity="0.78" stroke-width="2"/><line x1="505" x2="515" y1="239.0914735853175" y2="239.0914735853175" stroke="currentColor" stroke-opacity="0.78" stroke-width="2"/><rect x="527" y="243.21259842519686" width="26" height="1.7874015748031495" fill="#f97316" style="cursor: crosshair;"/><line x1="540" x2="540" y1="241.75319115062524" y2="244.67200569976845" stroke="currentColor" stroke-opacity="0.78" stroke-width="2"/><line x1="535" x2="545" y1="241.75319115062524" y2="241.75319115062524" stroke="currentColor" stroke-opacity="0.78" stroke-width="2"/><line x1="535" x2="545" y1="244.67200569976845" y2="244.67200569976845" stroke="currentColor" stroke-opacity="0.78" stroke-width="2"/><rect x="557" y="245" width="26" height="0" fill="#22c55e" style="cursor: crosshair;"/><line x1="570" x2="570" y1="245" y2="245" stroke="currentColor" stroke-opacity="0.78" stroke-width="2"/><line x1="565" x2="575" y1="245" y2="245" stroke="currentColor" stroke-opacity="0.78" stroke-width="2"/><line x1="565" x2="575" y1="245" y2="245" stroke="currentColor" stroke-opacity="0.78" stroke-width="2"/><rect x="587" y="245" width="26" height="0" fill="#a78bfa" style="cursor: crosshair;"/><line x1="600" x2="600" y1="245" y2="245" stroke="currentColor" stroke-opacity="0.78" stroke-width="2"/><line x1="595" x2="605" y1="245" y2="245" stroke="currentColor" stroke-opacity="0.78" stroke-width="2"/><line x1="595" x2="605" y1="245" y2="245" stroke="currentColor" stroke-opacity="0.78" stroke-width="2"/><rect x="617" y="30.511811023622045" width="26" height="214.48818897637796" fill="#f43f5e" style="cursor: crosshair;"/><line x1="630" x2="630" y1="30.511811023622045" y2="30.511811023622045" stroke="currentColor" stroke-opacity="0.78" stroke-width="2"/><line x1="625" x2="635" y1="30.511811023622045" y2="30.511811023622045" stroke="currentColor" stroke-opacity="0.78" stroke-width="2"/><line x1="625" x2="635" y1="30.511811023622045" y2="30.511811023622045" stroke="currentColor" stroke-opacity="0.78" stroke-width="2"/><text x="570" y="261" transform="rotate(-28 570 261)" text-anchor="end" fill="currentColor" font-size="11">name=525_faktencheck_core_bestconfig_testset</text></g></svg>