<?xml version="1.0" encoding="UTF-8"?>
<svg width="760" height="340" viewBox="0 0 760 340" xmlns="http://www.w3.org/2000/svg" xmlns:xlink="http://www.w3.org/1999/xlink" style="color: rgb(31, 41, 55); font-family: Inter, Arial, sans-serif; background-color: rgba(0, 0, 0, 0);"><rect x="0" y="0" width="760" height="340" fill="rgb(255, 255, 255)"/><g transform="translate(0, 0)"><line x1="60" x2="740" y1="245" y2="245" stroke="#64748b66" stroke-width="1"/><text x="52" y="249" text-anchor="end" fill="currentColor" font-size="11">0.00</text><line x1="60" x2="740" y1="199.6" y2="199.6" stroke="#64748b66" stroke-width="1"/><text x="52" y="203.6" text-anchor="end" fill="currentColor" font-size="11">0.10</text><line x1="60" x2="740" y1="154.2" y2="154.2" stroke="#64748b66" stroke-width="1"/><text x="52" y="158.2" text-anchor="end" fill="currentColor" font-size="11">0.20</text><line x1="60" x2="740" y1="108.79999999999998" y2="108.79999999999998" stroke="#64748b66" stroke-width="1"/><text x="52" y="112.79999999999998" text-anchor="end" fill="currentColor" font-size="11">0.29</text><line x1="60" x2="740" y1="63.400000000000006" y2="63.400000000000006" stroke="#64748b66" stroke-width="1"/><text x="52" y="67.4" text-anchor="end" fill="currentColor" font-size="11">0.39</text><line x1="60" x2="740" y1="18" y2="18" stroke="#64748b66" stroke-width="1"/><text x="52" y="22" text-anchor="end" fill="currentColor" font-size="11">0.49</text><rect x="327" y="73.48888888888888" width="26" height="171.51111111111112" fill="#60a5fa" style="cursor: crosshair;"/><line x1="340" x2="340" y1="61.73568901689484" y2="85.24208876088295" stroke="currentColor" stroke-opacity="0.78" stroke-width="2"/><line x1="335" x2="345" y1="61.73568901689484" y2="61.73568901689484" stroke="currentColor" stroke-opacity="0.78" stroke-width="2"/><line x1="335" x2="345" y1="85.24208876088295" y2="85.24208876088295" stroke="currentColor" stroke-opacity="0.78" stroke-width="2"/><rect x="357" y="88.62222222222223" width="26" height="156.37777777777777" fill="#f97316" style="cursor: crosshair;"/><line x1="370" x2="370" y1="83.2294842743004" y2="94.01496017014406" stroke="currentColor" stroke-opacity="0.78" stroke-width="2"/><line x1="365" x2="375" y1="83.2294842743004" y2="83.2294842743004" stroke="currentColor" stroke-opacity="0.78" stroke-width="2"/><line x1="365" x2="375" y1="94.01496017014406" y2="94.01496017014406" stroke="currentColor" stroke-opacity="0.78" stroke-width="2"/><rect x="387" y="181.584126984127" width="26" height="63.415873015873004" fill="#22c55e" style="cursor: crosshair;"/><line x1="400" x2="400" y1="172.52588649071532" y2="190.64236747753864" stroke="currentColor" stroke-opacity="0.78" stroke-width="2"/><line x1="395" x2="405" y1="172.52588649071532" y2="172.52588649071532" stroke="currentColor" stroke-opacity="0.78" stroke-width="2"/><line x1="395" x2="405" y1="190.64236747753864" y2="190.64236747753864" stroke="currentColor" stroke-opacity="0.78" stroke-width="2"/><rect x="417" y="72.76825396825399" width="26" height="172.231746031746" fill="#a78bfa" style="cursor: crosshair;"/><line x1="430" x2="430" y1="65.41919092326631" y2="80.11731701324169" stroke="currentColor" stroke-opacity="0.78" stroke-width="2"/><line x1="425" x2="435" y1="65.41919092326631" y2="65.41919092326631" stroke="currentColor" stroke-opacity="0.78" stroke-width="2"/><line x1="425" x2="435" y1="80.11731701324169" y2="80.11731701324169" stroke="currentColor" stroke-opacity="0.78" stroke-width="2"/><rect x="447" y="18" width="26" height="227" fill="#f43f5e" style="cursor: crosshair;"/><line x1="460" x2="460" y1="18" y2="18" stroke="currentColor" stroke-opacity="0.78" stroke-width="2"/><line x1="455" x2="465" y1="18" y2="18" stroke="currentColor" stroke-opacity="0.78" stroke-width="2"/><line x1="455" x2="465" y1="18" y2="18" stroke="currentColor" stroke-opacity="0.78" stroke-width="2"/><text x="400" y="261" transform="rotate(-28 400 261)" text-anchor="end" fill="currentColor" font-size="11">all</text></g></svg>