<?xml version="1.0" encoding="UTF-8"?>
<svg width="972" height="726" viewBox="0 0 972 726" xmlns="http://www.w3.org/2000/svg" xmlns:xlink="http://www.w3.org/1999/xlink" style="color: rgb(229, 231, 235); font-family: Inter, Arial, sans-serif; background-color: rgba(0, 0, 0, 0);"><rect x="0" y="0" width="972" height="726" fill="rgb(17, 24, 39)"/><text x="616" y="20" text-anchor="middle" fill="currentColor" font-size="13">Predicted label</text><text x="20" y="418" transform="rotate(-90 20 418)" text-anchor="middle" fill="currentColor" font-size="13">Actual label</text><text x="270" y="182" text-anchor="end" fill="currentColor" font-size="11">Artenvielfalt</text><text x="270" y="278" text-anchor="end" fill="currentColor" font-size="11">Genetische Diversität</text><text x="270" y="374" text-anchor="end" fill="currentColor" font-size="11">Habitatdiversität</text><text x="270" y="470" text-anchor="end" fill="currentColor" font-size="11">Strukturelle Diversität</text><text x="270" y="566" text-anchor="end" fill="currentColor" font-size="11">Zusammensetzung der Artengemeinschaft</text><text x="270" y="662" text-anchor="end" fill="currentColor" font-size="11">UNASSIGNABLE</text><rect x="280" y="130" width="96" height="96" fill="rgb(143, 162, 190)" stroke="#33415555" stroke-width="1" style="cursor: crosshair;"/><text x="328" y="182" text-anchor="middle" fill="#0f172a" font-size="11">18±1</text><rect x="376" y="130" width="96" height="96" fill="rgb(236, 241, 248)" stroke="#33415555" stroke-width="1" style="cursor: crosshair;"/><text x="424" y="182" text-anchor="middle" fill="#0f172a" font-size="11">2±0</text><rect x="472" y="130" width="96" height="96" fill="rgb(244, 249, 253)" stroke="#33415555" stroke-width="1" style="cursor: crosshair;"/><text x="520" y="182" text-anchor="middle" fill="#0f172a" font-size="11">1±0</text><rect x="568" y="130" width="96" height="96" fill="rgb(241, 246, 251)" stroke="#33415555" stroke-width="1" style="cursor: crosshair;"/><text x="616" y="182" text-anchor="middle" fill="#0f172a" font-size="11">1±0</text><rect x="664" y="130" width="96" height="96" fill="rgb(242, 247, 252)" stroke="#33415555" stroke-width="1" style="cursor: crosshair;"/><text x="712" y="182" text-anchor="middle" fill="#0f172a" font-size="11">1±0</text><rect x="760" y="130" width="96" height="96" fill="rgb(223, 230, 240)" stroke="#33415555" stroke-width="1" style="cursor: crosshair;"/><text x="808" y="182" text-anchor="middle" fill="#0f172a" font-size="11">4±0</text><rect x="856" y="130" width="96" height="96" fill="rgb(234, 240, 247)" stroke="#33415555" stroke-width="1" style="cursor: crosshair;"/><text x="904" y="182" text-anchor="middle" fill="#0f172a" font-size="11">2±1</text><rect x="280" y="226" width="96" height="96" fill="rgb(243, 248, 253)" stroke="#33415555" stroke-width="1" style="cursor: crosshair;"/><text x="328" y="278" text-anchor="middle" fill="#0f172a" font-size="11">1±0</text><rect x="376" y="226" width="96" height="96" fill="rgb(244, 249, 253)" stroke="#33415555" stroke-width="1" style="cursor: crosshair;"/><text x="424" y="278" text-anchor="middle" fill="#0f172a" font-size="11">0±0</text><rect x="472" y="226" width="96" height="96" fill="rgb(226, 233, 242)" stroke="#33415555" stroke-width="1" style="cursor: crosshair;"/><text x="520" y="278" text-anchor="middle" fill="#0f172a" font-size="11">4±1</text><rect x="568" y="226" width="96" height="96" fill="rgb(246, 250, 255)" stroke="#33415555" stroke-width="1" style="cursor: crosshair;"/><text x="616" y="278" text-anchor="middle" fill="#0f172a" font-size="11">0±0</text><rect x="664" y="226" width="96" height="96" fill="rgb(244, 249, 253)" stroke="#33415555" stroke-width="1" style="cursor: crosshair;"/><text x="712" y="278" text-anchor="middle" fill="#0f172a" font-size="11">0±0</text><rect x="760" y="226" width="96" height="96" fill="rgb(244, 249, 253)" stroke="#33415555" stroke-width="1" style="cursor: crosshair;"/><text x="808" y="278" text-anchor="middle" fill="#0f172a" font-size="11">0±0</text><rect x="856" y="226" width="96" height="96" fill="rgb(237, 243, 249)" stroke="#33415555" stroke-width="1" style="cursor: crosshair;"/><text x="904" y="278" text-anchor="middle" fill="#0f172a" font-size="11">2±1</text><rect x="280" y="322" width="96" height="96" fill="rgb(240, 245, 251)" stroke="#33415555" stroke-width="1" style="cursor: crosshair;"/><text x="328" y="374" text-anchor="middle" fill="#0f172a" font-size="11">1±0</text><rect x="376" y="322" width="96" height="96" fill="rgb(244, 249, 253)" stroke="#33415555" stroke-width="1" style="cursor: crosshair;"/><text x="424" y="374" text-anchor="middle" fill="#0f172a" font-size="11">0±0</text><rect x="472" y="322" width="96" height="96" fill="rgb(247, 251, 255)" stroke="#33415555" stroke-width="1" style="cursor: crosshair;"/><text x="520" y="374" text-anchor="middle" fill="#0f172a" font-size="11">0±0</text><rect x="568" y="322" width="96" height="96" fill="rgb(230, 236, 244)" stroke="#33415555" stroke-width="1" style="cursor: crosshair;"/><text x="616" y="374" text-anchor="middle" fill="#0f172a" font-size="11">3±1</text><rect x="664" y="322" width="96" height="96" fill="rgb(244, 249, 253)" stroke="#33415555" stroke-width="1" style="cursor: crosshair;"/><text x="712" y="374" text-anchor="middle" fill="#0f172a" font-size="11">0±0</text><rect x="760" y="322" width="96" height="96" fill="rgb(239, 244, 250)" stroke="#33415555" stroke-width="1" style="cursor: crosshair;"/><text x="808" y="374" text-anchor="middle" fill="#0f172a" font-size="11">1±0</text><rect x="856" y="322" width="96" height="96" fill="rgb(218, 227, 237)" stroke="#33415555" stroke-width="1" style="cursor: crosshair;"/><text x="904" y="374" text-anchor="middle" fill="#0f172a" font-size="11">5±1</text><rect x="280" y="418" width="96" height="96" fill="rgb(245, 249, 254)" stroke="#33415555" stroke-width="1" style="cursor: crosshair;"/><text x="328" y="470" text-anchor="middle" fill="#0f172a" font-size="11">0±0</text><rect x="376" y="418" width="96" height="96" fill="rgb(247, 251, 255)" stroke="#33415555" stroke-width="1" style="cursor: crosshair;"/><text x="424" y="470" text-anchor="middle" fill="#0f172a" font-size="11">0±0</text><rect x="472" y="418" width="96" height="96" fill="rgb(247, 251, 255)" stroke="#33415555" stroke-width="1" style="cursor: crosshair;"/><text x="520" y="470" text-anchor="middle" fill="#0f172a" font-size="11">0±0</text><rect x="568" y="418" width="96" height="96" fill="rgb(246, 250, 254)" stroke="#33415555" stroke-width="1" style="cursor: crosshair;"/><text x="616" y="470" text-anchor="middle" fill="#0f172a" font-size="11">0±0</text><rect x="664" y="418" width="96" height="96" fill="rgb(245, 249, 254)" stroke="#33415555" stroke-width="1" style="cursor: crosshair;"/><text x="712" y="470" text-anchor="middle" fill="#0f172a" font-size="11">0±0</text><rect x="760" y="418" width="96" height="96" fill="rgb(246, 250, 254)" stroke="#33415555" stroke-width="1" style="cursor: crosshair;"/><text x="808" y="470" text-anchor="middle" fill="#0f172a" font-size="11">0±0</text><rect x="856" y="418" width="96" height="96" fill="rgb(236, 241, 248)" stroke="#33415555" stroke-width="1" style="cursor: crosshair;"/><text x="904" y="470" text-anchor="middle" fill="#0f172a" font-size="11">2±0</text><rect x="280" y="514" width="96" height="96" fill="rgb(219, 227, 238)" stroke="#33415555" stroke-width="1" style="cursor: crosshair;"/><text x="328" y="566" text-anchor="middle" fill="#0f172a" font-size="11">5±0</text><rect x="376" y="514" width="96" height="96" fill="rgb(238, 244, 250)" stroke="#33415555" stroke-width="1" style="cursor: crosshair;"/><text x="424" y="566" text-anchor="middle" fill="#0f172a" font-size="11">2±0</text><rect x="472" y="514" width="96" height="96" fill="rgb(246, 250, 254)" stroke="#33415555" stroke-width="1" style="cursor: crosshair;"/><text x="520" y="566" text-anchor="middle" fill="#0f172a" font-size="11">0±0</text><rect x="568" y="514" width="96" height="96" fill="rgb(247, 251, 255)" stroke="#33415555" stroke-width="1" style="cursor: crosshair;"/><text x="616" y="566" text-anchor="middle" fill="#0f172a" font-size="11">0±0</text><rect x="664" y="514" width="96" height="96" fill="rgb(241, 246, 251)" stroke="#33415555" stroke-width="1" style="cursor: crosshair;"/><text x="712" y="566" text-anchor="middle" fill="#0f172a" font-size="11">1±1</text><rect x="760" y="514" width="96" height="96" fill="rgb(150, 169, 195)" stroke="#33415555" stroke-width="1" style="cursor: crosshair;"/><text x="808" y="566" text-anchor="middle" fill="#0f172a" font-size="11">17±1</text><rect x="856" y="514" width="96" height="96" fill="rgb(223, 231, 240)" stroke="#33415555" stroke-width="1" style="cursor: crosshair;"/><text x="904" y="566" text-anchor="middle" fill="#0f172a" font-size="11">4±1</text><rect x="280" y="610" width="96" height="96" fill="rgb(8, 48, 107)" stroke="#33415555" stroke-width="1" style="cursor: crosshair;"/><text x="328" y="662" text-anchor="middle" fill="#f8fafc" font-size="11">41±3</text><rect x="376" y="610" width="96" height="96" fill="rgb(199, 210, 225)" stroke="#33415555" stroke-width="1" style="cursor: crosshair;"/><text x="424" y="662" text-anchor="middle" fill="#0f172a" font-size="11">8±1</text><rect x="472" y="610" width="96" height="96" fill="rgb(206, 217, 230)" stroke="#33415555" stroke-width="1" style="cursor: crosshair;"/><text x="520" y="662" text-anchor="middle" fill="#0f172a" font-size="11">7±0</text><rect x="568" y="610" width="96" height="96" fill="rgb(165, 182, 204)" stroke="#33415555" stroke-width="1" style="cursor: crosshair;"/><text x="616" y="662" text-anchor="middle" fill="#0f172a" font-size="11">14±2</text><rect x="664" y="610" width="96" height="96" fill="rgb(217, 226, 236)" stroke="#33415555" stroke-width="1" style="cursor: crosshair;"/><text x="712" y="662" text-anchor="middle" fill="#0f172a" font-size="11">5±2</text><rect x="760" y="610" width="96" height="96" fill="rgb(46, 80, 130)" stroke="#33415555" stroke-width="1" style="cursor: crosshair;"/><text x="808" y="662" text-anchor="middle" fill="#f8fafc" font-size="11">35±1</text><rect x="856" y="610" width="96" height="96" fill="rgb(247, 251, 255)" stroke="#33415555" stroke-width="1" style="cursor: crosshair;"/><text x="904" y="662" text-anchor="middle" fill="#0f172a" font-size="11">0±0</text><text x="330" y="120" transform="rotate(-35 330 120)" text-anchor="start" fill="currentColor" font-size="11">Artenvielfalt</text><text x="426" y="120" transform="rotate(-35 426 120)" text-anchor="start" fill="currentColor" font-size="11">Funktionelle Diversität</text><text x="522" y="120" transform="rotate(-35 522 120)" text-anchor="start" fill="currentColor" font-size="11">Genetische Diversität</text><text x="618" y="120" transform="rotate(-35 618 120)" text-anchor="start" fill="currentColor" font-size="11">Habitatdiversität</text><text x="714" y="120" transform="rotate(-35 714 120)" text-anchor="start" fill="currentColor" font-size="11">Strukturelle Diversität</text><text x="810" y="120" transform="rotate(-35 810 120)" text-anchor="start" fill="currentColor" font-size="11">Zusammensetzung der Artengemeinschaft</text><text x="906" y="120" transform="rotate(-35 906 120)" text-anchor="start" fill="currentColor" font-size="11">UNDETECTED</text></svg>