<?xml version="1.0" encoding="UTF-8"?>
<svg width="795" height="378" viewBox="0 0 795 378" xmlns="http://www.w3.org/2000/svg" xmlns:xlink="http://www.w3.org/1999/xlink" style="color: rgb(229, 231, 235); font-family: Inter, Arial, sans-serif; background-color: rgba(0, 0, 0, 0);"><rect x="0" y="0" width="795" height="378" fill="rgb(17, 24, 39)"/><g transform="translate(34.23240661621094, 0)"><line x1="60" x2="740" y1="245" y2="245" stroke="#64748b66" stroke-width="1"/><text x="52" y="249" text-anchor="end" fill="currentColor" font-size="11">0.00</text><line x1="60" x2="740" y1="199.6" y2="199.6" stroke="#64748b66" stroke-width="1"/><text x="52" y="203.6" text-anchor="end" fill="currentColor" font-size="11">0.06</text><line x1="60" x2="740" y1="154.2" y2="154.2" stroke="#64748b66" stroke-width="1"/><text x="52" y="158.2" text-anchor="end" fill="currentColor" font-size="11">0.11</text><line x1="60" x2="740" y1="108.79999999999998" y2="108.79999999999998" stroke="#64748b66" stroke-width="1"/><text x="52" y="112.79999999999998" text-anchor="end" fill="currentColor" font-size="11">0.17</text><line x1="60" x2="740" y1="63.39999999999998" y2="63.39999999999998" stroke="#64748b66" stroke-width="1"/><text x="52" y="67.39999999999998" text-anchor="end" fill="currentColor" font-size="11">0.23</text><line x1="60" x2="740" y1="18" y2="18" stroke="#64748b66" stroke-width="1"/><text x="52" y="22" text-anchor="end" fill="currentColor" font-size="11">0.28</text><rect x="117" y="88.98248655386806" width="26" height="156.01751344613194" fill="#60a5fa" style="cursor: crosshair;"/><line x1="130" x2="130" y1="82.73522774515428" y2="95.22974536258187" stroke="currentColor" stroke-opacity="0.78" stroke-width="2"/><line x1="125" x2="135" y1="82.73522774515428" y2="82.73522774515428" stroke="currentColor" stroke-opacity="0.78" stroke-width="2"/><line x1="125" x2="135" y1="95.22974536258187" y2="95.22974536258187" stroke="currentColor" stroke-opacity="0.78" stroke-width="2"/><rect x="147" y="132.82062212885572" width="26" height="112.17937787114428" fill="#f97316" style="cursor: crosshair;"/><line x1="160" x2="160" y1="126.99762073857308" y2="138.64362351913834" stroke="currentColor" stroke-opacity="0.78" stroke-width="2"/><line x1="155" x2="165" y1="126.99762073857308" y2="126.99762073857308" stroke="currentColor" stroke-opacity="0.78" stroke-width="2"/><line x1="155" x2="165" y1="138.64362351913834" y2="138.64362351913834" stroke="currentColor" stroke-opacity="0.78" stroke-width="2"/><text x="145" y="261" transform="rotate(-28 145 261)" text-anchor="end" fill="currentColor" font-size="11">extractor/llm=gpt_oss_20b_in_process</text><rect x="287" y="33.66612171280522" width="26" height="211.33387828719478" fill="#60a5fa" style="cursor: crosshair;"/><line x1="300" x2="300" y1="18" y2="49.3322434256105" stroke="currentColor" stroke-opacity="0.78" stroke-width="2"/><line x1="295" x2="305" y1="18" y2="18" stroke="currentColor" stroke-opacity="0.78" stroke-width="2"/><line x1="295" x2="305" y1="49.3322434256105" y2="49.3322434256105" stroke="currentColor" stroke-opacity="0.78" stroke-width="2"/><rect x="317" y="57.48903453748659" width="26" height="187.5109654625134" fill="#f97316" style="cursor: crosshair;"/><line x1="330" x2="330" y1="53.23674284031682" y2="61.741326234656356" stroke="currentColor" stroke-opacity="0.78" stroke-width="2"/><line x1="325" x2="335" y1="53.23674284031682" y2="53.23674284031682" stroke="currentColor" stroke-opacity="0.78" stroke-width="2"/><line x1="325" x2="335" y1="61.741326234656356" y2="61.741326234656356" stroke="currentColor" stroke-opacity="0.78" stroke-width="2"/><text x="315" y="261" transform="rotate(-28 315 261)" text-anchor="end" fill="currentColor" font-size="11">extractor/llm=qwen3_30b_in_process</text><rect x="457" y="176.00161735181328" width="26" height="68.99838264818672" fill="#60a5fa" style="cursor: crosshair;"/><line x1="470" x2="470" y1="170.12375507562422" y2="181.87947962800234" stroke="currentColor" stroke-opacity="0.78" stroke-width="2"/><line x1="465" x2="475" y1="170.12375507562422" y2="170.12375507562422" stroke="currentColor" stroke-opacity="0.78" stroke-width="2"/><line x1="465" x2="475" y1="181.87947962800234" y2="181.87947962800234" stroke="currentColor" stroke-opacity="0.78" stroke-width="2"/><rect x="487" y="195.1096400430196" width="26" height="49.890359956980404" fill="#f97316" style="cursor: crosshair;"/><line x1="500" x2="500" y1="194.73371613858654" y2="195.48556394745268" stroke="currentColor" stroke-opacity="0.78" stroke-width="2"/><line x1="495" x2="505" y1="194.73371613858654" y2="194.73371613858654" stroke="currentColor" stroke-opacity="0.78" stroke-width="2"/><line x1="495" x2="505" y1="195.48556394745268" y2="195.48556394745268" stroke="currentColor" stroke-opacity="0.78" stroke-width="2"/><text x="485" y="261" transform="rotate(-28 485 261)" text-anchor="end" fill="currentColor" font-size="11">extractor/llm=mistral_small_3_24b_in_process</text><rect x="627" y="145.74858110927187" width="26" height="99.25141889072815" fill="#60a5fa" style="cursor: crosshair;"/><line x1="640" x2="640" y1="138.80618767389564" y2="152.69097454464807" stroke="currentColor" stroke-opacity="0.78" stroke-width="2"/><line x1="635" x2="645" y1="138.80618767389564" y2="138.80618767389564" stroke="currentColor" stroke-opacity="0.78" stroke-width="2"/><line x1="635" x2="645" y1="152.69097454464807" y2="152.69097454464807" stroke="currentColor" stroke-opacity="0.78" stroke-width="2"/><rect x="657" y="176.83607004039828" width="26" height="68.1639299596017" fill="#f97316" style="cursor: crosshair;"/><line x1="670" x2="670" y1="174.96806485841574" y2="178.70407522238085" stroke="currentColor" stroke-opacity="0.78" stroke-width="2"/><line x1="665" x2="675" y1="174.96806485841574" y2="174.96806485841574" stroke="currentColor" stroke-opacity="0.78" stroke-width="2"/><line x1="665" x2="675" y1="178.70407522238085" y2="178.70407522238085" stroke="currentColor" stroke-opacity="0.78" stroke-width="2"/><text x="655" y="261" transform="rotate(-28 655 261)" text-anchor="end" fill="currentColor" font-size="11">extractor/llm=gemma3_27b_in_process</text></g></svg>